SplineFontDB: 3.2
FontName: MFEKSans-Regular
FullName: MFEK Sans Regular
FamilyName: MFEK Sans
Weight: Regular
Copyright: 
Version: 0.1
ItalicAngle: 0
UnderlinePosition: -200
UnderlineWidth: 100
Ascent: 1600
Descent: 400
InvalidEm: 0
LayerCount: 2
Layer: 0 0 "Back" 1
Layer: 1 0 "Fore" 0
XUID: [1021 31 -699969567 16487490]
FSType: 0
OS2Version: 0
OS2_WeightWidthSlopeOnly: 0
OS2_UseTypoMetrics: 1
CreationTime: 1460762150
ModificationTime: 1688473341
PfmFamily: 33
TTFWeight: 400
TTFWidth: 5
LineGap: 0
VLineGap: 0
OS2TypoAscent: 2500
OS2TypoAOffset: 0
OS2TypoDescent: -850
OS2TypoDOffset: 0
OS2TypoLinegap: 0
OS2WinAscent: 2500
OS2WinAOffset: 0
OS2WinDescent: 850
OS2WinDOffset: 0
HheadAscent: 2500
HheadAOffset: 0
HheadDescent: -850
HheadDOffset: 0
OS2CapHeight: 1500
OS2XHeight: 1040
OS2FamilyClass: 2053
OS2Vendor: 'it* '
OS2UnicodeRanges: 00000001.00000000.00000000.00000000
Lookup: 258 0 0 "kerning yeah boi" { "say cheese" [300,0,4] } ['kern' ('DFLT' <'dflt' > 'grek' <'dflt' > 'latn' <'dflt' > ) ]
MarkAttachClasses: 1
DEI: 91125
KernClass2: 30 23 "say cheese"
 73 A Agrave Aacute Acircumflex Atilde Adieresis Aring Amacron Abreve Aogonek
 96 D O Ograve Oacute Ocircumflex Otilde Odieresis Oslash Dcaron Dcroat Omacron Obreve Ohungarumlaut
 81 E AE Egrave Eacute Ecircumflex Edieresis Emacron Ebreve Edotaccent Eogonek Ecaron
 1 F
 39 G Gcircumflex Gbreve Gdotaccent uni0122
 104 J U Ugrave Uacute Ucircumflex Udieresis IJ Jcircumflex Utilde Umacron Ubreve Uring Uhungarumlaut Uogonek
 11 K X uni0136
 23 L Lacute uni013B Lslash
 1 P
 1 Q
 23 R Racute uni0156 Rcaron
 36 S Sacute Scircumflex Scedilla Scaron
 21 T uni0162 Tcaron Tbar
 1 V
 53 W Wcircumflex Wgrave Wacute Wdieresis uni1E86 uni1E88
 30 Y Ycircumflex Ydieresis Ygrave
 26 Z Zacute Zdotaccent Zcaron
 73 a agrave aacute acircumflex atilde adieresis aring amacron abreve aogonek

StartChar: ampersand
Encoding: 38 38 0
Width: 1280
VWidth: 1920
Flags: HMW
LayerCount: 2
Fore
SplineSet
1043 10 m 2
 558 734 l 2
 433.89681864 919.145803085 340 1030 340 1163 c 0
 340 1303.00195312 438 1435 645 1435 c 0
 832 1435 955 1353.14693183 960 1183 c 4
 964.932649844 1015.14495265 865.04296875 877.8203125 637 776 c 0
 383.354492188 662.748046875 236 592 236 448 c 0
 236 389.00390625 249.98828125 341.438476562 284.5 286 c 2
 330 212.909179688 l 2
 372.4921875 144.650390625 441.1953125 105 526.639648438 105 c 0
 718.238928583 105 904.073428903 336.231430764 1012.13176741 639.9999864 c 0
 1014.06743759 645.441452029 1018.02248207 648 1025 648 c 2
 1145 648 l 2
 1152.03066744 648 1154.13490282 645.350047449 1151.38815501 637.000027364 c 0
 1016.46548426 226.8396892 798.814717401 -35 531.208984375 -35 c 0
 395.288085938 -35 263.368164062 21.1064453125 199 118.501953125 c 2
 146 198.696289062 l 2
 92.9755859375 278.927734375 66 351.583984375 66 448 c 0
 66 657 282 767 527 862 c 0
 687.7265625 924.322265625 825 1032 825 1163 c 0
 825 1243 762 1300 665 1300 c 0
 568 1300 510 1242.02636719 510 1153 c 0
 510 1034 580.549848857 972.534547929 647 876 c 2
 1243 10 l 2
 1247.67018708 3.21412413633 1247 -8.57252759403e-16 1240 0 c 2
 1060 0 l 2
 1053 0 1047.62792969 3.1064453125 1043 10 c 2
EndSplineSet
EndChar

StartChar: period
Encoding: 46 46 1
Width: 540
VWidth: 1920
Flags: HMW
LayerCount: 2
Fore
SplineSet
365 0 m 6
 175 0 l 6
 168 0 165 3 165 10 c 6
 165 200 l 6
 165 207 168 210 175 210 c 6
 365 210 l 6
 372 210 375 207 375 200 c 6
 375 10 l 6
 375 3 372 -8.57252759403e-16 365 0 c 6
EndSplineSet
EndChar

StartChar: zero
Encoding: 48 48 2
Width: 1150
VWidth: 1920
Flags: HMW
LayerCount: 2
Fore
SplineSet
100 488 m 262
 100 913 l 262
 100 1238.79492188 273.346679688 1435 575 1435 c 260
 876.653320312 1435 1050 1238.79492188 1050 913 c 262
 1050 488 l 262
 1050 161.891601562 876.377929688 -35 575 -35 c 260
 273.622070312 -35 100 161.891601562 100 488 c 262
290 508 m 262
 290 259.787109375 391.172851562 105 575 105 c 260
 758.827148438 105 860 259.787109375 860 508 c 262
 860 893 l 262
 860 1140.875 759.051757812 1295 575 1295 c 260
 390.948242188 1295 290 1140.875 290 893 c 262
 290 508 l 262
EndSplineSet
EndChar

StartChar: one
Encoding: 49 49 3
Width: 600
VWidth: 1920
Flags: HMW
LayerCount: 2
Fore
SplineSet
216.00000189 1374.24909204 m 0
 267.940003113 1376.59050369 297.987586271 1397.43598957 308.745062481 1440 c 0
 310.579410094 1447.25794688 314.39885677 1450 321 1450 c 2
 385 1450 l 2
 392 1450 395 1447 395 1440 c 2
 395 10 l 2
 395 3.00000340408 392 -8.57252759403e-16 385 0 c 2
 215 0 l 2
 208 0 205 3 205 10 c 2
 205 1364 l 2
 205 1370.73443476 207.991595524 1373.8880798 216.00000189 1374.24909204 c 0
EndSplineSet
EndChar

StartChar: two
Encoding: 50 50 4
Width: 1080
VWidth: 1920
Flags: HMW
LayerCount: 2
Fore
SplineSet
80 60 m 262
 80 604.034179688 785 735.631835938 785 1033 c 262
 785 1078 l 262
 785 1188 706 1285 549 1285 c 260
 379 1285 285 1174.57601869 285 1002 c 262
 285 912 l 6
 285 905 282 902 275 902 c 6
 115 902 l 6
 108 902 105 905 105 912 c 6
 105 1002 l 262
 105 1275.74114594 282 1435 559 1435 c 260
 806 1435 965 1303 965 1073 c 262
 965 1028 l 262
 965 632.094726562 300 501 300 180 c 262
 300 170 l 261
 990 170 l 6
 997 170 1000 167 1000 160 c 6
 1000 10 l 6
 1000 3.00040172166 997 -8.57252759403e-16 990 0 c 6
 90 0 l 6
 83 0 80 3 80 10 c 6
 80 60 l 262
EndSplineSet
EndChar

StartChar: three
Encoding: 51 51 5
Width: 1100
VWidth: 1920
Flags: HMW
LayerCount: 2
Fore
SplineSet
90 407 m 6
 260 407 l 6
 267 407 270 404 270 397 c 6
 270 327 l 6
 270 207.036515383 381 115 540 115 c 4
 707 115 825 222 825 352 c 6
 825 447 l 6
 825 577 706.918702172 660 530 660 c 6
 450 660 l 6
 443 660 440 663 440 670 c 6
 440 800 l 6
 440 807 443 810 450 810 c 6
 510 810 l 6
 676.886089058 810 770 903 770 1023 c 6
 770 1088 l 6
 770 1198 706 1285 539 1285 c 4
 389 1285 295 1184.8148849 295 1052 c 6
 295 962 l 6
 295 955 292 952 285 952 c 6
 125 952 l 6
 118 952 115 955 115 962 c 6
 115 1052 l 6
 115 1286 297 1435 544 1435 c 4
 791 1435 965 1313 965 1083 c 6
 965 1058 l 6
 965 808 767 720 510 720 c 5
 530 770 l 5
 787 770 1015 672 1015 422 c 6
 1015 347 l 6
 1015 107 827 -35 530 -35 c 4
 278 -35 80 99 80 327 c 6
 80 397 l 6
 80 404 83 407 90 407 c 6
EndSplineSet
EndChar

StartChar: four
Encoding: 52 52 6
Width: 1045
VWidth: 1920
Flags: HMW
LayerCount: 2
Fore
SplineSet
1010 470 m 6
 1010 340 l 6
 1010 333 1007 330 1000 330 c 6
 820 330 l 261
 820 10 l 6
 820 3 817 -8.57252759403e-16 810 0 c 6
 640 0 l 6
 633 0 630 3 630 10 c 6
 630 330 l 261
 60 330 l 6
 53 330 50 333 50 340 c 6
 50 490 l 6
 50 497 51.6258638803 502.679195379 57 510 c 6
 703 1390 l 6
 706.839927636 1395.16007236 712.507874123 1400 720 1400 c 6
 810 1400 l 6
 817 1400 820 1397 820 1390 c 6
 820 480 l 261
 1000 480 l 6
 1007 480 1010 477 1010 470 c 6
640 480 m 261
 640 1060.83300781 l 261
 205 480 l 261
 640 480 l 261
EndSplineSet
EndChar

StartChar: five
Encoding: 53 53 7
Width: 1100
VWidth: 1920
Flags: HMW
LayerCount: 2
Fore
SplineSet
120 368 m 6
 270 368 l 6
 276.907396135 368 280.134673921 365.023536005 280.643589146 359.00001182 c 4
 293.910084797 201.977676061 387.780728992 105 535 105 c 4
 684 105 810 205 810 398 c 6
 810 523 l 6
 810 723 699 805 565 805 c 4
 478.910310807 805 384.405028825 764.098695051 326 663.57421875 c 4
 321.069906079 655.088731807 316.759862432 653 310 653 c 6
 140 653 l 6
 133 653 129.782208459 654.877665595 131 663 c 6
 240 1390 l 6
 241.026367188 1396.84570312 244 1400 251 1400 c 6
 931 1400 l 6
 938 1400 941 1397 941 1390 c 6
 941 1325 l 6
 941 1255 911 1250 741 1250 c 6
 386 1250 l 5
 292.328125 745.357421875 l 5
 269.328125 745.357421875 l 5
 323.97265625 868.810546875 449.609099591 955 610 955 c 4
 810 955 1000 790 1000 493 c 6
 1000 428 l 6
 1000 131 805 -35 535 -35 c 4
 301.010559942 -35 126.269481101 101.001357694 110.536478604 357.999933597 c 4
 110.10707744 365.014201068 112.917282461 368 120 368 c 6
EndSplineSet
EndChar

StartChar: six
Encoding: 54 54 8
Width: 1229
VWidth: 1920
Flags: HMW
LayerCount: 2
Fore
SplineSet
630 740 m 260
 480 740 310 675 310 492 c 262
 310 422 l 261
 250 522 l 261
 250 786 463 890 670 890 c 260
 927 890 1119 731 1119 457 c 262
 1119 407 l 262
 1119 129 921 -35 629 -35 c 260
 252 -35 125 167 125 527 c 262
 125 843 l 262
 125 1223 293 1435 620 1435 c 260
 917 1435 1064 1265.83454422 1064 1082 c 262
 1064 1052 l 6
 1064 1045 1061 1042 1054 1042 c 6
 904 1042 l 6
 897.000287628 1042 894 1045 894 1052 c 6
 894 1082 l 262
 894 1164.91094707 820 1285 640 1285 c 260
 413 1285 310 1138 310 838 c 262
 310 422 l 262
 310 232 432 115 619 115 c 260
 818 115 929 237 929 417 c 262
 929 457 l 262
 929 640 820 740 630 740 c 260
EndSplineSet
EndChar

StartChar: seven
Encoding: 55 55 9
Width: 1015
VWidth: 1920
Flags: HMW
LayerCount: 2
Fore
SplineSet
1011 1390 m 2
 439 10 l 2
 435.937486557 2.61141861566 432.496560701 -9.18063906666e-16 425 0 c 2
 235 0 l 2
 228 0 225.935652204 3.2209572149 229 10 c 2
 785 1240 l 257
 85 1240 l 2
 78 1240 75 1243 75 1250 c 2
 75 1390 l 2
 75 1397 78 1400 85 1400 c 2
 1005 1400 l 2
 1012.37170154 1400 1014.2150889 1396.23060494 1011 1390 c 2
EndSplineSet
EndChar

StartChar: eight
Encoding: 56 56 10
Width: 1182
VWidth: 1920
Flags: HMW
LayerCount: 2
Fore
SplineSet
591 110 m 260
 770.859323272 110 877 196.100129374 877 342 c 262
 877 427 l 262
 877 574.159239402 771.689270782 659.927734375 591 659.927734375 c 260
 410.310729218 659.927734375 305 574.159239402 305 427 c 262
 305 342 l 262
 305 196.100129374 411.140676728 110 591 110 c 260
591 810 m 260
 741.429032212 810 827 887.231424317 827 1023 c 262
 827 1088 l 262
 827 1214.95949632 739.328916495 1290 591 1290 c 260
 442.671083505 1290 355 1214.95949632 355 1088 c 262
 355 1023 l 262
 355 887.231424317 440.570967788 810 591 810 c 260
622 760 m 261
 902.075490238 760 1067 623.61298968 1067 392 c 262
 1067 347 l 262
 1067 99.7502688302 899.091288054 -35 591 -35 c 260
 282.908711946 -35 115 99.7502688302 115 347 c 262
 115 392 l 262
 115 623.61298968 279.924509762 760 560 760 c 261
 562 720.282226562 l 261
 295.816444076 725.766068556 165 837.048280703 165 1058 c 262
 165 1083 l 262
 165 1304.25899984 323.226324062 1435 591 1435 c 260
 858.773675938 1435 1017 1304.25899984 1017 1083 c 262
 1017 1058 l 262
 1017 837.048280703 886.183555924 725.766068556 620 720.282226562 c 261
 622 760 l 261
EndSplineSet
EndChar

StartChar: nine
Encoding: 57 57 11
Width: 1169
VWidth: 1920
Flags: HMW
LayerCount: 2
Fore
SplineSet
569 660 m 256
 719 660 859 755 859 948 c 258
 859 1018 l 257
 919 918 l 257
 919 644 736 510 529 510 c 256
 292 510 110 669 110 943 c 258
 110 993 l 258
 110 1271 298 1435 570 1435 c 256
 927 1435 1044 1243 1044 913 c 258
 1044 557 l 258
 1044 177 866 -35 559 -35 c 256
 262 -35 135 134.14696646 135 318 c 258
 135 348 l 2
 135 355 138 358 145 358 c 2
 295 358 l 2
 302 358 305 355 305 348 c 2
 305 318 l 258
 305 235 359 115 539 115 c 256
 746 115 859 262 859 562 c 258
 859 1018 l 258
 859 1168 747 1285 580 1285 c 256
 401 1285 300 1163 300 983 c 258
 300 943 l 258
 300 760 399 660 569 660 c 256
EndSplineSet
EndChar

StartChar: A
Encoding: 65 65 12
Width: 1280
VWidth: 1920
Flags: HMW
AnchorPoint: "ogonek" 1130 0 basechar 0
AnchorPoint: "bottom" 625 0 basechar 0
AnchorPoint: "top" 624 1400 basechar 0
LayerCount: 2
Fore
SplineSet
310 570 m 257
 940 570 l 257
 940 420 l 257
 310 420 l 257
 310 570 l 257
624 1226 m 257
 223 10 l 258
 221 4 217 0 210 0 c 258
 50 0 l 258
 43 0 41 4 43 10 c 258
 522 1390 l 258
 524 1396 528 1400 535 1400 c 258
 735 1400 l 258
 742 1400 746 1396 748 1390 c 258
 1237 10 l 258
 1239 4 1237 0 1230 0 c 258
 1050 0 l 258
 1043 0 1039 3 1037 10 c 258
 624 1226 l 257
EndSplineSet
EndChar

StartChar: B
Encoding: 66 66 13
Width: 1280
VWidth: 1920
Flags: HMW
AnchorPoint: "top" 624 1400 basechar 0
AnchorPoint: "bottom" 625 0 basechar 0
LayerCount: 2
Fore
SplineSet
360 790 m 261
 690 790 l 262
 856.899867628 790 945 863 945 983 c 262
 945 1068 l 262
 945 1188 856.993036662 1250 690 1250 c 262
 360 1250 l 261
 360 790 l 261
710 750 m 261
 967 750 1195 652 1195 402 c 262
 1195 347 l 262
 1195 67 966.995593524 -3.14728831004e-14 710 0 c 262
 180 0 l 262
 173 0 170 3 170 10 c 262
 170 1390 l 262
 170 1397 173 1400 180 1400 c 262
 690 1400 l 262
 946.904990758 1400 1145 1313 1145 1063 c 262
 1145 1038 l 262
 1145 788 947 700 690 700 c 261
 710 750 l 261
710 640 m 262
 360 640 l 261
 360 150 l 261
 710 150 l 262
 886.899337397 150 995 222 995 342 c 262
 995 437 l 262
 995 557 887 640 710 640 c 262
EndSplineSet
EndChar

StartChar: C
Encoding: 67 67 14
Width: 1385
VWidth: 1920
Flags: HMW
AnchorPoint: "top" 704 1400 basechar 0
AnchorPoint: "bottom" 685 0 basechar 0
LayerCount: 2
Fore
SplineSet
1270 498 m 260
 1265 433 1252 372 1231 314 c 4
 1157 111 981 -35 695 -35 c 260
 308 -35 100 238 100 618 c 262
 100 783 l 262
 100 1163 308 1435 695 1435 c 260
 975 1435 1140 1307 1206 1138 c 4
 1226 1086 1238 1030 1240 973 c 260
 1240 964 1237 963 1230 963 c 262
 1081 963 l 262
 1074 963 1070 964 1070 973 c 260
 1068 1159 922 1295 705 1295 c 260
 448 1295 300 1063 300 793 c 262
 300 608 l 262
 300 338 428 105 705 105 c 260
 942 105 1103 285 1100 498 c 260
 1100 507 1103 508 1110 508 c 262
 1260 508 l 262
 1267 508 1271 507 1270 498 c 260
EndSplineSet
EndChar

StartChar: D
Encoding: 68 68 15
Width: 1380
VWidth: 1920
Flags: HMW
AnchorPoint: "top" 654 1400 basechar 0
AnchorPoint: "bottom" 625 0 basechar 0
LayerCount: 2
Fore
SplineSet
705 0 m 258
 180 0 l 258
 173 0 170 3 170 10 c 258
 170 1390 l 258
 170 1397 173 1400 180 1400 c 258
 705 1400 l 258
 1018.99854155 1400 1280 1168.79492188 1280 783 c 258
 1280 618 l 258
 1280 231.891601562 1059.19954713 -4.33769341658e-14 705 0 c 258
665 150 m 258
 919.389464401 150 1080 309.787109375 1080 608 c 258
 1080 793 l 258
 1080 1090.875 919.003861852 1250 665 1250 c 258
 360 1250 l 257
 360 150 l 257
 665 150 l 258
EndSplineSet
EndChar

StartChar: E
Encoding: 69 69 16
Width: 1280
VWidth: 1920
Flags: HMW
AnchorPoint: "ogonek" 1100 0 basechar 0
AnchorPoint: "top" 684 1400 basechar 0
AnchorPoint: "bottom" 685 0 basechar 0
LayerCount: 2
Fore
SplineSet
360 790 m 261
 900 790 l 262
 907 790 910 787 910 780 c 262
 910 650 l 262
 910 643 907 640 900 640 c 262
 360 640 l 261
 360 150 l 261
 1170 150 l 262
 1177 150 1180 147 1180 140 c 262
 1180 10 l 262
 1180 3 1177 -8.57252759403e-16 1170 0 c 262
 180 0 l 262
 173 0 170 3 170 10 c 262
 170 1390 l 262
 170 1397 173 1400 180 1400 c 262
 1150 1400 l 262
 1157 1400 1160 1397 1160 1390 c 262
 1160 1260 l 262
 1160 1253 1156.99927193 1250 1150 1250 c 262
 360 1250 l 261
 360 790 l 261
EndSplineSet
EndChar

StartChar: F
Encoding: 70 70 17
Width: 1170
VWidth: 1920
Flags: HMW
AnchorPoint: "top" 644 1400 basechar 0
AnchorPoint: "bottom" 645 0 basechar 0
LayerCount: 2
Fore
SplineSet
360 790 m 257
 810 790 l 258
 818.518456742 790 820 788.595344111 820 780 c 258
 820 650 l 258
 820 641.479270153 818.595344111 640 810 640 c 258
 360 640 l 257
 360 10 l 258
 360 1.47927015262 358.595344111 0 350 0 c 258
 180 0 l 258
 171.479270153 0 170 1.40465588873 170 10 c 258
 170 1390 l 258
 170 1397 173 1400 180 1400 c 258
 1100 1400 l 258
 1107 1400 1110 1397 1110 1390 c 258
 1110 1260 l 258
 1110 1253 1106.99924573 1250.0945844 1100 1250 c 258
 360 1250 l 257
 360 790 l 257
EndSplineSet
EndChar

StartChar: G
Encoding: 71 71 18
Width: 1385
VWidth: 1920
Flags: HMW
AnchorPoint: "top" 694 1400 basechar 0
AnchorPoint: "bottom" 695 0 basechar 0
LayerCount: 2
Fore
SplineSet
750 575 m 6
 750 700 l 6
 750 707 753 710 760 710 c 6
 1260 710 l 6
 1267 710 1270 707 1270 700 c 6
 1270 10 l 6
 1270 3 1267 0 1260 0 c 6
 1170 0 l 6
 1163 0 1160 3 1158 10 c 6
 1080 320 l 5
 1170 620 l 5
 1150 230 1002 -35 675 -35 c 4
 298 -35 100 238 100 618 c 6
 100 783 l 6
 100 1163 308 1435 695 1435 c 4
 957 1435 1117 1320 1191 1168 c 4
 1221 1107 1237 1041 1240 973 c 4
 1240 964 1237 963 1230 963 c 6
 1090 963 l 6
 1083 963 1080 964 1080 973 c 4
 1071 1160 922 1295 705 1295 c 4
 448 1295 300 1063 300 793 c 6
 300 608 l 6
 300 338 438 105 715 105 c 4
 931 105 1081 272 1106 615 c 5
 1118 565 l 5
 760 565 l 6
 753 565 750 568 750 575 c 6
EndSplineSet
EndChar

StartChar: H
Encoding: 72 72 19
Width: 1380
VWidth: 1920
Flags: HMW
AnchorPoint: "top" 654 1400 basechar 0
AnchorPoint: "bottom" 655 0 basechar 0
LayerCount: 2
Fore
SplineSet
1050 1400 m 2
 1220 1400 l 2
 1227 1400 1230 1397 1230 1390 c 2
 1230 10 l 2
 1230 3 1227 -8.57252759403e-16 1220 0 c 2
 1050 0 l 2
 1043 0 1040 3 1040 10 c 2
 1040 640 l 257
 340 640 l 257
 340 10 l 2
 340 3 337 -8.57252759403e-16 330 0 c 2
 160 0 l 2
 153 0 150 3 150 10 c 2
 150 1390 l 18
 150 1397 153 1400 160 1400 c 10
 330 1400 l 18
 337 1400 340 1397 340 1390 c 10
 340 790 l 257
 1040 790 l 257
 1040 1390 l 2
 1040 1397 1043 1400 1050 1400 c 2
EndSplineSet
EndChar

StartChar: I
Encoding: 73 73 20
Width: 550
VWidth: 1920
Flags: HMW
AnchorPoint: "ogonek" 280 0 basechar 0
AnchorPoint: "top" 279 1400 basechar 0
AnchorPoint: "bottom" 280 0 basechar 0
LayerCount: 2
Fore
SplineSet
190 1400 m 14
 360 1400 l 22
 367 1400 370 1397 370 1390 c 14
 370 10 l 22
 370 3 367 -8.57252759403e-16 360 0 c 14
 190 0 l 22
 183 0 180 3 180 10 c 14
 180 1390 l 22
 180 1397 183 1400 190 1400 c 14
EndSplineSet
EndChar

StartChar: J
Encoding: 74 74 21
Width: 1161
VWidth: 1920
Flags: HMW
AnchorPoint: "top" 909 1400 basechar 0
AnchorPoint: "bottom" 510 0 basechar 0
LayerCount: 2
Fore
SplineSet
813 1400 m 2
 993 1400 l 2
 1000 1400 1003 1397 1003 1390 c 2
 1003 538 l 258
 1003 152.475712574 853.649414062 -35 508.575195312 -35 c 256
 212.5703125 -35 53 154.524604158 53 478 c 258
 53 653 l 2
 53 660 56 663 63 663 c 2
 213 663 l 2
 220 663 223 660 223 653 c 2
 223 488 l 258
 223 256.828125 322.043945312 125 495.811523438 125 c 256
 700.5859375 125 803 248.626953125 803 508 c 258
 803 1390 l 2
 803 1397 806 1400 813 1400 c 2
EndSplineSet
EndChar

StartChar: K
Encoding: 75 75 22
Width: 1280
VWidth: 1920
Flags: HMW
AnchorPoint: "top" 624 1400 basechar 0
AnchorPoint: "bottom" 625 0 basechar 0
LayerCount: 2
Fore
SplineSet
160 1400 m 10
 330 1400 l 18
 337 1400 340 1397 340 1390 c 10
 340 10 l 18
 340 3 337 0 330 0 c 10
 160 0 l 18
 153 0 150 3 150 10 c 10
 150 1390 l 18
 150 1397 153 1400 160 1400 c 10
480 820 m 257
 670 850 l 257
 1253 10 l 258
 1258.87969075 1.52840441172 1257 -8.57252759403e-16 1250 0 c 2
 1050 0 l 2
 1043 0 1038.48510618 1.96575767562 1033 10 c 258
 480 820 l 257
1030 1390 m 258
 1035.4572043 1394.5427957 1040 1400 1050 1400 c 2
 1234 1400 l 2
 1247 1400 1247.15028526 1397.07657098 1240 1390 c 258
 645 801.134020619 l 1
 601 757.587628866 l 5
 270 430 l 257
 210 560 l 257
 1030 1390 l 258
EndSplineSet
EndChar

StartChar: L
Encoding: 76 76 23
Width: 1067
VWidth: 1920
Flags: HMW
AnchorPoint: "top" 264 1400 basechar 0
AnchorPoint: "bottom" 625 0 basechar 0
LayerCount: 2
Fore
SplineSet
160 1400 m 2
 330 1400 l 2
 337 1400 340 1397 340 1390 c 2
 340 150 l 281
 990 150 l 2
 997 150 1000 147 1000 140 c 2
 1000 10 l 2
 1000 3 997 -8.57252759403e-16 990 0 c 2
 160 0 l 2
 153 0 150 3 150 10 c 2
 150 1390 l 2
 150 1397 153 1400 160 1400 c 2
EndSplineSet
EndChar

StartChar: M
Encoding: 77 77 24
Width: 1600
VWidth: 1920
Flags: HMW
AnchorPoint: "top" 804 1400 basechar 0
AnchorPoint: "bottom" 805 0 basechar 0
LayerCount: 2
Fore
SplineSet
300 1220.40816327 m 257
 300 10 l 2
 300 3 297 -8.57252759403e-16 290 0 c 2
 160 0 l 2
 153 0 150 3 150 10 c 2
 150 1390 l 2
 150 1397 153 1400 160 1400 c 2
 400 1400 l 2
 407 1400 411.177230792 1397.4462705 414 1390 c 2
 820 319 l 257
 1216 1390 l 2
 1218.63775859 1397.133938 1222.5034393 1400 1230 1400 c 2
 1440 1400 l 2
 1447 1400 1450 1397 1450 1390 c 2
 1450 10 l 2
 1450 3 1447 -8.57252759403e-16 1440 0 c 2
 1290 0 l 2
 1283 0 1280 3 1280 10 c 2
 1280 1167.34693878 l 257
 844 10 l 2
 841.317827864 2.88026671703 837.496560701 -9.18063906666e-16 830 0 c 2
 770 0 l 2
 762.571276925 0 758.682227552 2.88028481556 756 10 c 2
 300 1220.40816327 l 257
EndSplineSet
EndChar

StartChar: N
Encoding: 78 78 25
Width: 1380
VWidth: 1920
Flags: HMW
AnchorPoint: "top" 694 1400 basechar 0
AnchorPoint: "bottom" 685 0 basechar 0
LayerCount: 2
Fore
SplineSet
1070 1400 m 2
 1220 1400 l 2
 1227 1400 1230 1397 1230 1390 c 2
 1230 10 l 2
 1230 3 1227 -8.57252759403e-16 1220 0 c 2
 1130 0 l 2
 1123 0 1118.52842228 2.04942762964 1113 10 c 2
 300 1179.43457031 l 1
 320 1179.43457031 l 257
 320 10 l 2
 320 3 317 -8.57252759403e-16 310 0 c 2
 160 0 l 2
 153 0 150 3 150 10 c 2
 150 1390 l 2
 150 1397 153 1400 160 1400 c 2
 350 1400 l 2
 358 1400 361.233387097 1398.16413501 367 1390 c 2
 1080 380.87890625 l 1
 1060 380.87890625 l 257
 1060 1390 l 2
 1060 1397 1063 1400 1070 1400 c 2
EndSplineSet
EndChar

StartChar: O
Encoding: 79 79 26
Width: 1490
VWidth: 1920
Flags: HMW
AnchorPoint: "top" 744 1400 basechar 0
AnchorPoint: "bottom" 745 0 basechar 0
LayerCount: 2
Fore
SplineSet
100 618 m 258
 100 783 l 258
 100 1168.79512682 363.346845401 1435 745 1435 c 256
 1126.6531546 1435 1390 1168.79512682 1390 783 c 258
 1390 618 l 258
 1390 231.891434913 1126.3782917 -35 745 -35 c 256
 363.621708298 -35 100 231.891434913 100 618 c 258
300 608 m 258
 300 309.786901998 481.17330296 105 745 105 c 256
 1008.82669704 105 1190 309.786901998 1190 608 c 258
 1190 793 l 258
 1190 1090.87452593 1009.0521196 1295 745 1295 c 256
 480.947880401 1295 300 1090.87452593 300 793 c 258
 300 608 l 258
EndSplineSet
EndChar

StartChar: P
Encoding: 80 80 27
Width: 1280
VWidth: 1920
Flags: HMW
AnchorPoint: "top" 624 1400 basechar 0
AnchorPoint: "bottom" 275 0 basechar 0
LayerCount: 2
Fore
SplineSet
360 1250 m 257
 360 750 l 257
 700 750 l 258
 867 750 975 818 975 938 c 258
 975 1062 l 258
 975 1182 867 1250 700 1250 c 258
 360 1250 l 257
700 1400 m 258
 986.879430823 1400 1175 1302 1175 1032 c 258
 1175 968 l 258
 1175 698 987 600 700 600 c 258
 360 600 l 257
 360 10 l 2
 360 3 357 -8.57252759403e-16 350 0 c 2
 180 0 l 2
 173 0 170 3 170 10 c 2
 170 1390 l 2
 170 1397 173 1400 180 1400 c 2
 700 1400 l 258
EndSplineSet
EndChar

StartChar: Q
Encoding: 81 81 28
Width: 1600
VWidth: 1920
Flags: HMW
AnchorPoint: "top" 744 1400 basechar 0
AnchorPoint: "bottom" 745 0 basechar 0
LayerCount: 2
Fore
SplineSet
1525 110 m 2
 1525 10 l 2
 1525 2.82735156409 1525 -0.172648435913 1513.53388983 -3.00000145609 c 0
 1303.8465341 -54.7054333536 1190 92.794414002 1190 358 c 257
 1300 588 l 257
 1300 238 1152 -35 725 -35 c 256
 278 -35 140 238 140 588 c 258
 140 813 l 258
 140 1163 288 1435 745 1435 c 256
 1202 1435 1350 1163 1350 813 c 258
 1350 328 l 258
 1350 184.238580001 1421.64679905 124.983640934 1512.99999642 120.303426442 c 0
 1525 119.688641275 1525 116.688641275 1525 110 c 2
1150 558 m 258
 1150 843 l 258
 1150 1113 1022 1295 745 1295 c 256
 468 1295 340 1113 340 843 c 258
 340 558 l 258
 340 288 468 105 745 105 c 256
 1022 105 1150 288 1150 558 c 258
EndSplineSet
EndChar

StartChar: R
Encoding: 82 82 29
Width: 1380
VWidth: 1920
Flags: HMW
AnchorPoint: "top" 674 1400 basechar 0
AnchorPoint: "bottom" 675 0 basechar 0
LayerCount: 2
Fore
SplineSet
360 1250 m 261
 360 790 l 261
 760 790 l 262
 927 790 1015 858 1015 978 c 262
 1015 1062 l 262
 1015 1182 927 1250 760 1250 c 262
 360 1250 l 261
760 1400 m 262
 1016.99681367 1400 1215 1282 1215 1042 c 262
 1215 1018 l 262
 1215 778 1017 680 760 680 c 261
 760 740 l 261
 1017 740 1205 662 1205 422 c 262
 1205 328 l 262
 1205 214.202180376 1236.47555773 129.182013533 1282.37024537 61 c 4
 1290 49.6650926266 1290 46.6650390625 1290 40 c 6
 1290 10 l 6
 1290 3 1287 -8.57252759403e-16 1280 0 c 6
 1100 0 l 6
 1092.8295272 0 1089.82888226 0 1084.77695989 8.99999663428 c 4
 1029.12302034 108.14745613 1015 240.670560611 1015 328 c 262
 1015 452 l 262
 1015 572 927 640 760 640 c 262
 360 640 l 261
 360 10 l 6
 360 3 357 -8.57252759403e-16 350 0 c 6
 180 0 l 6
 173 0 170 3 170 10 c 6
 170 1390 l 6
 170 1397 173 1400 180 1400 c 6
 760 1400 l 262
EndSplineSet
EndChar

StartChar: S
Encoding: 83 83 30
Width: 1280
VWidth: 1920
Flags: HMW
AnchorPoint: "top" 624 1400 basechar 0
AnchorPoint: "bottom" 625 0 basechar 0
LayerCount: 2
Back
SplineSet
110 508 m 6
 260 508 l 6
 262.7734375 508 270 507 270 500 c 4
 270 467.995291462 270.890625 457.995117188 271.017578125 436 c 4
 272.18359375 234.81640625 411.219947625 115 650 115 c 260
 878 115 1010 187 1010 378 c 260
 1010 494.667017502 903.306624187 560.5822968 628 614 c 260
 326 673 140 785 140 1033 c 260
 140 1273 313 1435 630 1435 c 260
 954 1435 1130 1256 1130 1041 c 6
 1130 971 l 6
 1130 964 1125.14491835 963 1120 963 c 6
 970 963 l 6
 964.855081719 963 960.167284073 964.00199914 960 971 c 4
 959.450195312 994 959 1003.96108237 959 1031 c 4
 959 1166 825 1295 630 1295 c 260
 453 1295 320 1203 320 1053 c 260
 320 902 479 826 648 792 c 260
 1046.71920486 712.256159029 1200 605.625976562 1200 388 c 260
 1200 131 1019 -35 650 -35 c 260
 291.512695312 -35 101 152.553710938 101 389 c 6
 101 499 l 6
 101 506 107.296875 508 110 508 c 6
EndSplineSet
Fore
SplineSet
110 508 m 2
 260 508 l 2
 262.7734375 508 270 507 270 500 c 0
 270 467.995291462 270.890625 457.995117188 271.017578125 436 c 0
 272.18359375 234.81640625 411.219947625 115 650 115 c 256
 878 115 1010 187 1010 378 c 256
 1010 524.442339708 842.215613164 553.692683903 654.012972357 607.719536278 c 0
 416.751146391 675.829683887 140 727.964253121 140 1033 c 256
 140 1273 313 1435 630 1435 c 256
 954 1435 1130 1256 1130 1041 c 2
 1130 971 l 2
 1130 964 1125.14491835 963 1120 963 c 2
 970 963 l 2
 964.855081719 963 960.167284073 964.00199914 960 971 c 0
 959.450195312 994 959 1003.96108237 959 1031 c 0
 959 1166 825 1295 630 1295 c 256
 453 1295 320 1203 320 1053 c 256
 320 873.386181091 513.565983869 834.453944399 715.67215732 776.128957941 c 0
 949.4080647 708.676077111 1200 657.079941725 1200 388 c 256
 1200 131 1019 -35 650 -35 c 256
 291.512695312 -35 101 152.553710938 101 389 c 2
 101 499 l 2
 101 506 107.296875 508 110 508 c 2
EndSplineSet
EndChar

StartChar: T
Encoding: 84 84 31
Width: 1170
VWidth: 1920
Flags: HMW
AnchorPoint: "top" 584 1400 basechar 0
AnchorPoint: "bottom" 545 0 basechar 0
LayerCount: 2
Fore
SplineSet
50 1400 m 2
 1120 1400 l 2
 1127 1400 1130 1397 1130 1390 c 2
 1130 1260 l 2
 1130 1253 1127 1250 1120 1250 c 2
 680 1250 l 257
 680 10 l 2
 680 3 677 -8.57252759403e-16 670 0 c 2
 500 0 l 2
 493 0 490 3 490 10 c 2
 490 1250 l 257
 50 1250 l 2
 43 1250 40 1253 40 1260 c 2
 40 1390 l 2
 40 1397 43 1400 50 1400 c 2
EndSplineSet
EndChar

StartChar: U
Encoding: 85 85 32
Width: 1389
VWidth: 1920
Flags: HMW
AnchorPoint: "ogonek" 799.931 0 basechar 0
AnchorPoint: "top" 703.931 1400 basechar 0
AnchorPoint: "bottom" 704.931 0 basechar 0
LayerCount: 2
Fore
SplineSet
1054.93066406 488 m 258
 1054.93066406 1390 l 2
 1054.93066406 1397 1057.93066406 1400 1064.93066406 1400 c 2
 1214.93066406 1400 l 2
 1221.93066406 1400 1224.93066406 1397 1224.93066406 1390 c 2
 1224.93066406 498 l 258
 1228.47753906 178.043945312 1096.93066406 -35 699.930664062 -35 c 256
 242.930664062 -35 164.930664062 208.009765625 164.930664062 588 c 258
 164.930664062 1390 l 2
 164.930664062 1397 167.930664062 1400 174.930664062 1400 c 2
 354.930664062 1400 l 2
 361.930664062 1400 364.930664062 1397 364.930664062 1390 c 2
 364.930664062 558 l 258
 364.930664062 258.067382812 432.930664062 105 699.930664062 105 c 256
 926.930664062 105 1054.93066406 228.01171875 1054.93066406 488 c 258
EndSplineSet
EndChar

StartChar: V
Encoding: 86 86 33
Width: 1280
VWidth: 1920
Flags: HMW
AnchorPoint: "top" 654 1400 basechar 0
AnchorPoint: "bottom" 655 0 basechar 0
LayerCount: 2
Fore
SplineSet
655.69140625 173.6171875 m 1
 1057 1390 l 2
 1059.38027182 1397.21470155 1063 1400 1070 1400 c 2
 1230 1400 l 2
 1237 1400 1239.47627692 1397.14113054 1237 1390 c 2
 758 10 l 2
 755.30671498 2.24064023514 752.028689192 -8.60766172139e-16 745 0 c 2
 545 0 l 2
 538.034188607 0 534.538395005 2.83643127359 532 10 c 2
 43 1390 l 2
 40.4836632358 1397.10916281 43 1400 50 1400 c 2
 230 1400 l 2
 237 1400 240.565959999 1397.17418482 243 1390 c 2
 655.69140625 173.6171875 l 1
EndSplineSet
EndChar

StartChar: W
Encoding: 87 87 34
Width: 1810
VWidth: 1920
Flags: HMW
AnchorPoint: "top" 924 1400 basechar 0
AnchorPoint: "bottom" 925 0 basechar 0
LayerCount: 2
Fore
SplineSet
529.931640625 210.13671875 m 257
 867 1390 l 2
 868.848891571 1396.47180079 873 1400 880 1400 c 2
 980 1400 l 2
 987 1400 991.230143001 1396.51953742 993 1390 c 2
 1317.70800781 193.888671875 l 257
 1607 1390 l 2
 1608.5994602 1396.61315388 1613 1400 1620 1400 c 2
 1780 1400 l 2
 1787 1400 1788.74684315 1396.53290933 1787 1390 c 2
 1418 10 l 2
 1416.11970238 2.96799262556 1412.02868919 -8.60766172139e-16 1405 0 c 2
 1205 0 l 2
 1198.03418861 0 1193.94937052 2.71872162696 1192 10 c 2
 913.301757812 1050.9921875 l 257
 628 10 l 2
 626.075833883 2.97921642416 622.028689192 -8.6076617214e-16 615 0 c 2
 420 0 l 2
 413 0 408.949243612 2.50708583811 407 10 c 2
 48 1390 l 2
 46.2944118398 1396.55629989 48 1400 55 1400 c 2
 230 1400 l 2
 237 1400 241.392722944 1396.60912535 243 1390 c 2
 529.931640625 210.13671875 l 257
EndSplineSet
EndChar

StartChar: X
Encoding: 88 88 35
Width: 1280
VWidth: 1920
Flags: HMW
AnchorPoint: "top" 634 1400 basechar 0
AnchorPoint: "bottom" 635 0 basechar 0
LayerCount: 2
Fore
SplineSet
1015 1400 m 2
 1190 1400 l 2
 1197 1400 1198.16200739 1397.60507064 1193 1390 c 2
 741.688476562 725.092773438 l 257
 1223 10 l 2
 1228.27359795 2.16492520656 1227 -8.57252759403e-16 1220 0 c 2
 1020 0 l 2
 1013 0 1008.96690011 2.33091089742 1004 10 c 2
 639.657226562 572.559570312 l 257
 252 10 l 2
 246.33036293 1.77234841629 242 -8.57252759403e-16 235 0 c 2
 60 0 l 2
 53 0 51.38877111 2.02309118095 57 10 c 2
 548.865234375 709.234375 l 257
 87 1390 l 2
 81.6907607699 1397.82554584 83 1400 90 1400 c 2
 290 1400 l 2
 298 1400 302.013283514 1397.65968239 307 1390 c 2
 650.897460938 861.767578125 l 257
 998 1390 l 2
 1003.32356812 1398.10158661 1008 1400 1015 1400 c 2
EndSplineSet
EndChar

StartChar: Y
Encoding: 89 89 36
Width: 1280
VWidth: 1920
Flags: HMW
AnchorPoint: "top" 644 1400 basechar 0
AnchorPoint: "bottom" 645 0 basechar 0
LayerCount: 2
Fore
SplineSet
1075 1400 m 2
 1230 1400 l 2
 1237 1400 1238.28221634 1397.20854053 1234 1390 c 2
 735 550 l 257
 735 10 l 2
 735 3 732 -8.57252759403e-16 725 0 c 2
 555 0 l 2
 548 0 545 3 545 10 c 2
 545 550 l 257
 46 1390 l 2
 41.3612807864 1397.80866561 43 1400 50 1400 c 2
 235 1400 l 2
 242.058194589 1400 246.6222161 1397.36961595 251 1390 c 2
 655 709.901367188 l 257
 1059 1390 l 2
 1063.3777839 1397.36961595 1067.89066707 1400 1075 1400 c 2
EndSplineSet
EndChar

StartChar: Z
Encoding: 90 90 37
Width: 1170
VWidth: 1920
Flags: HMW
AnchorPoint: "top" 614 1400 basechar 0
AnchorPoint: "bottom" 615 0 basechar 0
LayerCount: 2
Fore
SplineSet
-23 10 m 2
 856.071289062 1250 l 257
 120 1250 l 2
 113 1250 110 1253 110 1260 c 2
 110 1390 l 2
 110 1397 113 1400 120 1400 c 2
 1150 1400 l 2
 1157 1400 1158.5066683 1397.7675938 1153 1390 c 2
 273.928710938 150 l 257
 1090 150 l 2
 1097 150 1100 147 1100 140 c 2
 1100 10 l 2
 1100 3 1097 -8.57252759403e-16 1090 0 c 2
 -20 0 l 2
 -27 0 -28.6439980671 2.0386916394 -23 10 c 2
EndSplineSet
EndChar

StartChar: a
Encoding: 97 97 38
Width: 1110
VWidth: 1920
Flags: HMW
AnchorPoint: "ogonek" 930 0 basechar 0
AnchorPoint: "top" 574 1050 basechar 0
AnchorPoint: "bottom" 525 0 basechar 0
LayerCount: 2
Fore
SplineSet
260 270 m 0
 260 176.396484375 312.181787539 95 460 95 c 256
 624 95 778 222 778 398 c 257
 838 328 l 257
 838 125 667 -35 426 -35 c 256
 236.736328125 -35 70 45.109375 70 260 c 4
 70 431.0078125 168.559645712 575.213334063 529 615 c 256
 713.191803706 635.331734988 778 655 778 738 c 257
 818 618 l 257
 818 555 726.447199786 524.015663328 556 500 c 256
 331.513547388 468.370316002 260 380.081054688 260 270 c 0
778 208 m 258
 778 788 l 258
 778 888 694 955 559 955 c 256
 410.254022283 955 313.323245627 858.200145622 308.135665033 722.000006482 c 0
 307.907067286 715.998163343 304.863084374 713 298 713 c 2
 148 713 l 2
 140.933639932 713 138.238961133 715.961104783 138.853120489 721.99996582 c 0
 162.529134462 954.799738252 312.381634987 1085 578 1085 c 256
 838 1085 958 971 958 733 c 258
 958 208 l 258
 958 113.612259255 979.472646949 48.673149846 1015.41789085 6.99999680684 c 0
 1019.67987464 2.0588618047 1018.61066474 -8.09572940929e-16 1012 0 c 2
 848 0 l 2
 840.683825851 0 835.746568518 2.05334160689 832.337212556 6 c 0
 795.397449954 48.761338429 778 112.835920156 778 208 c 258
EndSplineSet
EndChar

StartChar: b
Encoding: 98 98 39
Width: 1135
VWidth: 1920
Flags: HMW
LayerCount: 2
Fore
SplineSet
130 1450 m 6
 300 1450 l 6
 307 1450 310 1447 310 1440 c 6
 310 175 l 261
 177 -25 l 6
 171.932617188 -32.6201171875 167 -35 160 -35 c 6
 130 -35 l 6
 123 -35 120 -32 120 -25 c 6
 120 1440 l 6
 120 1447 123 1450 130 1450 c 6
240 633 m 261
 240 923 427 1085 624 1085 c 260
 831 1085 1060 943 1060 603 c 262
 1060 447 l 262
 1060 127 841 -35 634 -35 c 260
 407 -35 210 127 210 417 c 261
 310 437 l 261
 310 227 427 105 584 105 c 260
 731 105 870 207 870 417 c 262
 870 633 l 262
 870 843 731 945 584 945 c 260
 427 945 310 823 310 613 c 261
 240 633 l 261
EndSplineSet
EndChar

StartChar: c
Encoding: 99 99 40
Width: 1000
VWidth: 1920
Flags: HMW
AnchorPoint: "bottom" 530 0 basechar 0
AnchorPoint: "top" 524 1050 basechar 0
LayerCount: 2
Fore
SplineSet
955 380 m 4
 952 336 945 294 934 256 c 4
 881 72 733 -35 530 -35 c 260
 250 -35 65 151 65 448 c 262
 65 603 l 262
 65 900 245 1085 525 1085 c 260
 731 1085 874 988 925 800 c 4
 936 761 943 718 945 671 c 4
 945 666 942 663 935 663 c 6
 795 663 l 6
 788 663 785 666 785 670 c 4
 782 718 773 760 759 795 c 4
 719 895 636 945 520 945 c 260
 366 945 255 833 255 633 c 262
 255 418 l 262
 255 225 376 105 535 105 c 260
 649 105 727 161 767 255 c 4
 782 292 792 334 795 381 c 4
 795 385 798 388 805 388 c 6
 945 388 l 6
 952 388 955 385 955 380 c 4
EndSplineSet
EndChar

StartChar: d
Encoding: 100 100 41
Width: 1135
VWidth: 1920
Flags: HMW
LayerCount: 2
Fore
SplineSet
895 417 m 261
 895 127 706 -35 509 -35 c 260
 302 -35 75 107 75 447 c 262
 75 603 l 262
 75 943 302 1085 509 1085 c 260
 706 1085 895 923 895 633 c 261
 825 613 l 261
 825 823 706 945 549 945 c 260
 402 945 265 843 265 633 c 262
 265 417 l 262
 265 207 402 105 549 105 c 260
 706 105 825 227 825 437 c 261
 895 417 l 261
1015 1440 m 6
 1015 10 l 6
 1015 3 1012 -8.57252759403e-16 1005 0 c 6
 850 0 l 6
 843 0 840 3 840 10 c 6
 840 220 l 261
 825 252 l 261
 825 1440 l 6
 825 1447 828 1450 835 1450 c 6
 1005 1450 l 6
 1012 1450 1015 1446.99999659 1015 1440 c 6
EndSplineSet
EndChar

StartChar: e
Encoding: 101 101 42
Width: 1110
VWidth: 1920
Flags: HMW
AnchorPoint: "ogonek" 770 60 basechar 0
AnchorPoint: "bottom" 564 0 basechar 0
AnchorPoint: "top" 565 1050 basechar 0
LayerCount: 2
Fore
SplineSet
1014 329 m 4
 1003 278 987 233 965 192 c 4
 887 45 743 -35 562 -35 c 260
 293 -35 106 138 106 448 c 262
 106 603 l 262
 106 903 293 1085 570 1085 c 260
 837 1085 992 889 1016 674 c 260
 1024 603 1024 577 1024 493 c 4
 1024 488 1021 485 1014 485 c 6
 230 485 l 261
 230 605 l 261
 840 605 l 261
 835 832 733 955 570 955 c 260
 413 955 296 843 296 633 c 262
 296 418 l 262
 296 198 403 95 570 95 c 260
 702 95 813 184 845 332 c 4
 846 336 849 338 856 338 c 6
 1006 338 l 6
 1013 338 1015 335 1014 329 c 4
EndSplineSet
EndChar

StartChar: f
Encoding: 102 102 43
Width: 620
VWidth: 1920
Flags: HMW
LayerCount: 2
Fore
SplineSet
580 910 m 2
 70 910 l 2
 63 910 60 913 60 920 c 2
 60 1040 l 2
 60 1047 63 1050 70 1050 c 2
 580 1050 l 2
 587 1050 590 1047 590 1040 c 2
 590 920 l 2
 590 913 587 910 580 910 c 2
180 1188 m 262
 180 1395.14532511 290.911586484 1468.85022688 578 1441.16584861 c 4
 587.027382074 1440.29532424 590 1437.04717092 590 1430 c 6
 590 1320 l 6
 590 1313.15658313 587.042270588 1310.51024436 573.999994664 1311.88973719 c 4
 428.802169805 1327.24743692 365 1293.49478024 365 1168 c 262
 365 10 l 6
 365 3 362 -8.57252759403e-16 355 0 c 6
 190 0 l 6
 183 0 180 3 180 10 c 6
 180 1188 l 262
EndSplineSet
EndChar

StartChar: g
Encoding: 103 103 44
Width: 1000
VWidth: 1920
Flags: HMW
AnchorPoint: "top" 415 1100 basechar 0
LayerCount: 2
Fore
SplineSet
954.318863229 1249.99998994 m 0
 940.59228664 1057.73717119 724.158891667 970 675 970 c 257
 645 1000 l 257
 704.090374663 1000 732.930052577 1060.90238683 763.63545746 1251 c 0
 764.617164072 1257.07776007 768.014919438 1260 775 1260 c 2
 945 1260 l 2
 952.18271343 1260 954.821140618 1257.03519395 954.318863229 1249.99998994 c 0
643 140 m 258
 883 140 1005 82 1005 -85 c 256
 1005 -262 803 -360 563 -360 c 258
 338 -360 l 258
 158 -360 5 -292 5 -135 c 256
 5 -18 138 90 298 90 c 257
 328 50 l 257
 238 50 165 2 165 -75 c 256
 165 -172 268 -210 398 -210 c 258
 543 -210 l 258
 733 -210 845 -152 845 -75 c 256
 845 -18 783 0 663 0 c 258
 388 0 l 258
 198 0 126 98 126 195 c 256
 126 302 220 395 410 395 c 257
 390 345 l 257
 330 345 286 302 286 245 c 256
 286 183 338 140 468 140 c 258
 643 140 l 258
725 668 m 258
 725 723 l 258
 725 870.170898438 642.73046875 955 500.727539062 955 c 256
 352.546875 955 255 862.629882812 255 723 c 258
 255 668 l 258
 255 528.012695312 352.802734375 435 500.729492188 435 c 256
 642.5 435 725 520.432617188 725 668 c 258
905 638 m 258
 905 458 757 305 490 305 c 256
 223 305 75 458 75 638 c 258
 75 753 l 258
 75 933 223 1085 490 1085 c 256
 757 1085 905 933 905 753 c 258
 905 638 l 258
EndSplineSet
EndChar

StartChar: h
Encoding: 104 104 45
Width: 1110
VWidth: 1920
Flags: HMW
AnchorPoint: "bottom" 554 0 basechar 0
AnchorPoint: "top" 223 1450 basechar 0
LayerCount: 2
Fore
SplineSet
135 1450 m 2
 305 1450 l 2
 312 1450 315 1447 315 1440 c 2
 315 10 l 2
 315 3 311.595344111 -8.07696705514e-16 305 0 c 2
 135 0 l 2
 128 0 125 3 125 10 c 2
 125 1440 l 2
 125 1447 128 1450 135 1450 c 2
265 703 m 257
 265 923 433 1085 640 1085 c 256
 847 1085 985 963 985 763 c 258
 985 10 l 2
 985 3 982 -8.57252759403e-16 975 0 c 2
 805 0 l 2
 798 0 795 3 795 10 c 2
 795 763 l 258
 795 883 727 955 590 955 c 256
 423 955 315 833 315 623 c 257
 265 703 l 257
EndSplineSet
EndChar

StartChar: i
Encoding: 105 105 46
Width: 445
VWidth: 1920
Flags: HMW
AnchorPoint: "bottom" 224 0 basechar 0
AnchorPoint: "ogonek" 224 0 basechar 0
LayerCount: 2
Fore
SplineSet
328 1400 m 2
 328 1220 l 2
 328 1213 325 1210 318 1210 c 2
 128 1210 l 2
 121 1210 118 1213 118 1220 c 2
 118 1400 l 2
 118 1407 121 1410 128 1410 c 2
 318 1410 l 2
 325 1410 328 1407 328 1400 c 2
318 1040 m 2
 318 10 l 2
 318 3 315 -8.57252759403e-16 308 0 c 2
 138 0 l 2
 131 0 128 3 128 10 c 2
 128 1040 l 2
 128 1047 131 1050 138 1050 c 2
 308 1050 l 2
 315 1050 318 1047 318 1040 c 2
EndSplineSet
EndChar

StartChar: j
Encoding: 106 106 47
Width: 445
VWidth: 1920
Flags: HMW
LayerCount: 2
Fore
SplineSet
328 1400 m 2
 328 1220 l 2
 328 1213 325 1210 318 1210 c 2
 128 1210 l 2
 121 1210 118 1213 118 1220 c 2
 118 1400 l 2
 118 1407 121 1410 128 1410 c 2
 318 1410 l 2
 325 1410 328 1407 328 1400 c 2
318 -98 m 262
 318 -305.388243546 196.923850901 -378.212324891 -91 -351.071861109 c 4
 -99.0306840663 -350.314867586 -102 -347.039908704 -102 -340 c 6
 -102 -230 l 6
 -102 -223.059452658 -99.045807618 -220.382714175 -91.9999880275 -221.216262324 c 4
 57.081105309 -238.853141572 128 -205.207856125 128 -78 c 262
 128 1040 l 6
 128 1047 131 1050 138 1050 c 6
 308 1050 l 6
 315 1050 318 1047 318 1040 c 6
 318 -98 l 262
EndSplineSet
EndChar

StartChar: k
Encoding: 107 107 48
Width: 1000
VWidth: 1920
Flags: HMW
LayerCount: 2
Fore
SplineSet
130 1450 m 6
 300 1450 l 6
 307 1450 310 1447 310 1440 c 6
 310 10 l 6
 310 3 306.595703125 0 300 0 c 6
 130 0 l 6
 123 0 120 3 120 10 c 6
 120 1440 l 6
 120 1447 123 1450 130 1450 c 6
190 463 m 261
 731 1040 l 6
 738.703246431 1048.21584693 741.985997927 1050 750 1050 c 6
 950 1050 l 6
 957 1050 957.92976002 1048.35187108 949 1040 c 6
 300 433 l 261
 190 463 l 261
420 653 m 261
 570 713 l 261
 1014 10 l 6
 1018.7049505 2.5504950495 1017 -8.57252759403e-16 1010 0 c 6
 810 0 l 6
 801.941805411 0 798.306246781 2.59647946505 794 10 c 6
 420 653 l 261
EndSplineSet
EndChar

StartChar: l
Encoding: 108 108 49
Width: 445
VWidth: 1920
Flags: HMW
LayerCount: 2
Fore
SplineSet
138 1450 m 6
 308 1450 l 6
 315 1450 318 1447 318 1440 c 6
 318 10 l 6
 318 3 314.595703125 0 308 0 c 6
 138 0 l 6
 131 0 128 3 128 10 c 6
 128 1440 l 6
 128 1447 131 1450 138 1450 c 6
EndSplineSet
EndChar

StartChar: m
Encoding: 109 109 50
Width: 1665
VWidth: 1920
Flags: HMW
LayerCount: 2
Fore
SplineSet
858 703 m 257
 858 923 1035 1085 1222 1085 c 256
 1409 1085 1538 962.991378922 1538 763 c 258
 1538 10 l 6
 1538 3 1535 -8.57252759403e-16 1528 0 c 6
 1358 0 l 6
 1351 0 1348 3 1348 10 c 6
 1348 763 l 258
 1348 882.999370063 1289 955 1172 955 c 256
 1025 955 928 833 928 623 c 257
 858 703 l 257
138 1050 m 2
 298 1050 l 2
 305 1050 308 1047 308 1040 c 2
 308 852 l 257
 318 825 l 257
 318 10 l 2
 318 3 315 -8.57252759403e-16 308 0 c 2
 138 0 l 2
 131 0 128 3 128 10 c 2
 128 1040 l 2
 128 1047 131 1050 138 1050 c 2
268 703 m 257
 268 923 425 1085 612 1085 c 256
 799 1085 928 962.994233362 928 763 c 258
 928 10 l 2
 928 3 925 -8.57252759403e-16 918 0 c 2
 748 0 l 2
 741 0 738 3 738 10 c 2
 738 763 l 258
 738 882.999785107 679 955 562 955 c 256
 415 955 318 833 318 623 c 257
 268 703 l 257
EndSplineSet
EndChar

StartChar: n
Encoding: 110 110 51
Width: 1110
VWidth: 1920
Flags: HMW
AnchorPoint: "bottom" 554 0 basechar 0
AnchorPoint: "top" 555 1050 basechar 0
LayerCount: 2
Fore
SplineSet
135 1050 m 2
 295 1050 l 2
 302 1050 305 1047 305 1040 c 2
 305 837 l 257
 315 810 l 257
 315 10 l 2
 315 3 312 -8.57252759403e-16 305 0 c 2
 135 0 l 2
 128 0 125 3 125 10 c 2
 125 1040 l 2
 125 1047 128 1050 135 1050 c 2
265 703 m 257
 265 923 433 1085 640 1085 c 256
 847 1085 985 962.995075946 985 763 c 258
 985 10 l 2
 985 3 982 -8.57252759403e-16 975 0 c 2
 805 0 l 2
 798 0 795 3 795 10 c 2
 795 763 l 258
 795 883 727 955 590 955 c 256
 423 955 315 833 315 623 c 257
 265 703 l 257
EndSplineSet
EndChar

StartChar: o
Encoding: 111 111 52
Width: 1110
VWidth: 1920
Flags: HMW
AnchorPoint: "top" 555 1050 basechar 0
AnchorPoint: "bottom" 554 0 basechar 0
LayerCount: 2
Fore
SplineSet
90 448 m 258
 90 603 l 258
 90 893 278 1085 555 1085 c 256
 832 1085 1020 893 1020 603 c 258
 1020 448 l 258
 1020 158 832 -35 555 -35 c 256
 278 -35 90 158 90 448 c 258
285 418 m 258
 285 228 368 95 555 95 c 256
 742 95 825 228 825 418 c 258
 825 633 l 258
 825 823 742 955 555 955 c 256
 368 955 285 823 285 633 c 258
 285 418 l 258
EndSplineSet
EndChar

StartChar: p
Encoding: 112 112 53
Width: 1135
VWidth: 1920
Flags: HMW
LayerCount: 2
Fore
SplineSet
240 633 m 261
 240 923 447 1085 644 1085 c 260
 851 1085 1060 943 1060 603 c 262
 1060 447 l 262
 1060 107 851 -35 644 -35 c 260
 447 -35 240 127 240 417 c 261
 310 437 l 261
 310 227 447 105 604 105 c 260
 751 105 870 207 870 417 c 262
 870 633 l 262
 870 843 751 945 604 945 c 260
 447 945 310 823 310 613 c 261
 240 633 l 261
120 -350 m 6
 120 1040 l 6
 120 1047 123 1050 130 1050 c 6
 285 1050 l 6
 292 1050 295 1047 295 1040 c 6
 295 800 l 261
 310 756 l 261
 310 -350 l 6
 310 -357 307 -360 300 -360 c 6
 130 -360 l 6
 123 -360 120 -357 120 -350 c 6
EndSplineSet
EndChar

StartChar: q
Encoding: 113 113 54
Width: 1135
VWidth: 1920
Flags: HMW
LayerCount: 2
Fore
SplineSet
1005 -360 m 6
 835 -360 l 6
 828 -360 825 -357 825 -350 c 6
 825 875 l 257
 958 1075 l 6
 963.219573922 1082.84898334 968 1085 975 1085 c 6
 1005 1085 l 6
 1012 1085 1015 1082 1015 1075 c 6
 1015 -350 l 6
 1015 -357 1012 -360 1005 -360 c 6
895 417 m 257
 895 127 688 -35 491 -35 c 256
 284 -35 75 107 75 447 c 258
 75 603 l 258
 75 923 274 1085 481 1085 c 256
 708 1085 925 923 925 633 c 257
 825 613 l 257
 825 823 688 945 531 945 c 256
 384 945 265 843 265 633 c 258
 265 417 l 258
 265 207 384 105 531 105 c 256
 688 105 825 227 825 437 c 257
 895 417 l 257
EndSplineSet
EndChar

StartChar: r
Encoding: 114 114 55
Width: 715
VWidth: 1920
Flags: HMW
AnchorPoint: "top" 375 1050 basechar 0
AnchorPoint: "bottom" 224 0 basechar 0
LayerCount: 2
Fore
SplineSet
130 1050 m 10
 285 1050 l 2
 292 1050 295 1047 295 1040 c 2
 295 774 l 257
 310 765 l 257
 310 10 l 2
 310 3 307 -8.57252759403e-16 300 0 c 2
 130 0 l 2
 123 0 120 3 120 10 c 2
 120 1040 l 2
 120 1047 123 1050 130 1050 c 10
270 723 m 257
 270 918.681735595 440.591277662 1087.69075244 650.999992139 1076.0286074 c 0
 662.009776612 1075.41837744 665 1072.26208159 665 1065 c 2
 665 925 l 2
 665 918.345899562 662.004480766 915.249835181 648.000003333 914.644755946 c 0
 502.557546312 908.360750625 310 826.542808017 310 663 c 257
 270 723 l 257
EndSplineSet
EndChar

StartChar: s
Encoding: 115 115 56
Width: 1000
VWidth: 1920
Flags: HMW
AnchorPoint: "top" 495 1050 basechar 0
AnchorPoint: "bottom" 514 0 basechar 0
LayerCount: 2
Back
SplineSet
72 358 m 6
 212 358 l 6
 219 358 224 356 224 349 c 4
 224 300 224 280 235 248 c 4
 270 147 383 105 524 105 c 260
 669 105 762 169 762 282.475426448 c 260
 762 349.673456054 729.386877703 385.981452645 646 412 c 6
 376.000003649 496.245961527 l 6
 186.121541249 555.492235062 112 632.125301635 112 769.436468877 c 260
 112 968 267 1085 494 1085 c 260
 687 1085 827 1014 877 885 c 4
 889 855 897 814 897 742 c 4
 897 735 894 733 887 733 c 6
 748 733 l 6
 741 733 737 736 737 743 c 4
 737 791 737 811 721 843 c 4
 687 911 602 950 492 950 c 260
 364 950 282 895 282 797.249715776 c 260
 282 727.739034194 323.464925425 685.525763282 419 655 c 6
 694 567.130859375 l 6
 866.052074777 512.156066817 932 435.878144523 932 291.155205383 c 260
 932 70 778 -36 514 -36 c 260
 281 -36 128 35 80 198 c 4
 64 252 63 295 63 350 c 4
 63 357 65 358 72 358 c 6
EndSplineSet
Fore
SplineSet
72 358 m 2
 212 358 l 2
 219 358 224 356 224 349 c 0
 224 300 224 280 235 248 c 0
 270 147 383 105 524 105 c 256
 669 105 762 169 762 282.475426448 c 256
 762 527.115782603 112 388.82600079 112 780.436523438 c 256
 112 979 267 1085 494 1085 c 256
 687 1085 827 1014 877 885 c 0
 889 855 897 814 897 742 c 0
 897 735 894 733 887 733 c 2
 748 733 l 2
 741 733 737 736 737 743 c 0
 737 791 737 811 721 843 c 0
 687 911 602 950 492 950 c 256
 364 950 282 895 282 797.249715776 c 256
 282 538.719830302 932 694.101021494 932 291.155205383 c 256
 932 70 778 -36 514 -36 c 256
 281 -36 128 35 80 198 c 0
 64 252 63 295 63 350 c 0
 63 357 65 358 72 358 c 2
EndSplineSet
EndChar

StartChar: t
Encoding: 116 116 57
Width: 625
VWidth: 1920
Flags: HMW
AnchorPoint: "bottom" 354 0 basechar 0
LayerCount: 2
Fore
SplineSet
570 910 m 2
 40 910 l 2
 33 910 30 913 30 920 c 2
 30 1040 l 2
 30 1047 33 1050 40 1050 c 2
 570 1050 l 2
 577 1050 580 1047 580 1040 c 2
 580 920 l 2
 580 913 577 910 570 910 c 2
585 120 m 2
 585 10 l 2
 585 2.96148477967 582.055664062 -0.396484375 575 -1.30859375 c 4
 287.491210938 -38.482421875 160 44.3721379873 160 252 c 258
 160 1290 l 2
 160 1297 163 1300 170 1300 c 2
 335 1300 l 2
 342 1300 345 1297 345 1290 c 2
 345 272 l 258
 345 144.507012174 426.081920661 110.674364653 575.999963478 128.901314649 c 0
 582.046597246 129.636460928 585 126.950972548 585 120 c 2
EndSplineSet
EndChar

StartChar: u
Encoding: 117 117 58
Width: 1110
VWidth: 1920
Flags: HMW
AnchorPoint: "ogonek" 890 0 basechar 0
AnchorPoint: "bottom" 554 0 basechar 0
AnchorPoint: "top" 555 1050 basechar 0
LayerCount: 2
Fore
SplineSet
972 0 m 2
 817 0 l 2
 810 0 807 3 807 10 c 2
 807 193 l 257
 792 250 l 257
 792 1040 l 2
 792 1047 795 1050 802 1050 c 2
 972 1050 l 2
 979 1050 982 1047 982 1040 c 2
 982 10 l 2
 982 3 979 -8.57252759403e-16 972 0 c 2
842 347 m 257
 842 127 675 -35 468 -35 c 256
 261 -35 122 87.0231529633 122 287 c 258
 122 1040 l 2
 122 1047 125 1050 132 1050 c 2
 302 1050 l 2
 309 1050 312 1047 312 1040 c 2
 312 287 l 258
 313.572312153 167.032582705 381 95 518 95 c 256
 685 95 792 217 792 427 c 257
 842 347 l 257
EndSplineSet
EndChar

StartChar: v
Encoding: 118 118 59
Width: 1000
VWidth: 1920
Flags: HMW
LayerCount: 2
Fore
SplineSet
510 158 m 257
 808 1040 l 2
 810 1047 815 1050 822 1050 c 2
 972 1050 l 2
 979 1050 981 1047 978 1040 c 2
 596 10 l 2
 593 2 589 0 582 0 c 2
 408 0 l 2
 401 0 397 3 394 10 c 2
 22 1040 l 2
 20 1047 21 1050 28 1050 c 2
 198 1050 l 2
 205 1050 209 1047 211 1040 c 2
 510 158 l 257
EndSplineSet
EndChar

StartChar: w
Encoding: 119 119 60
Width: 1445
VWidth: 1920
Flags: HMW
LayerCount: 2
Fore
SplineSet
1040 208 m 257
 1248 1040 l 2
 1249.76470588 1047.05882353 1253.35462039 1050 1260 1050 c 2
 1400 1050 l 2
 1407.34529823 1050 1408.8849439 1046.60371504 1407 1040 c 2
 1113 10 l 2
 1111.07713172 3.26342065446 1107.02868919 -8.60766172139e-16 1100 0 c 2
 955 0 l 2
 948.034188607 0 944.118244159 2.30794287109 942 10 c 2
 725 798 l 257
 513 10 l 2
 510.857994137 2.038204623 507.028689192 -8.60766172139e-16 500 0 c 2
 345 0 l 2
 338.034188607 0 334.262137682 2.07482376566 332 10 c 2
 38 1040 l 2
 35.9264592064 1047.26444564 38 1050 45 1050 c 2
 215 1050 l 2
 221.965811393 1050 226.228089514 1047.29816596 228 1040 c 2
 430 208 l 257
 657 1040 l 2
 658.985383588 1047.27682443 662.971310808 1050 670 1050 c 2
 805 1050 l 2
 811.965811393 1050 816.056959601 1047.28202528 818 1040 c 2
 1040 208 l 257
EndSplineSet
EndChar

StartChar: x
Encoding: 120 120 61
Width: 1000
VWidth: 1920
Flags: HMW
LayerCount: 2
Fore
SplineSet
230 0 m 2
 50 0 l 2
 43 0 41.929152123 2.66612910352 47 10 c 2
 410 535 l 257
 62 1040 l 2
 56.6208029692 1047.80601868 58 1050 65 1050 c 2
 265 1050 l 2
 272.058194589 1050 276.104469952 1047.70201926 281 1040 c 2
 513 675 l 257
 734 1040 l 2
 738.710934496 1047.78050267 742.890667072 1050 750 1050 c 2
 930 1050 l 2
 937 1050 938.209292204 1047.38109624 933 1040 c 2
 590 554 l 257
 948 10 l 2
 953.015883046 2.37809950483 952 -8.57252759403e-16 945 0 c 2
 755 0 l 2
 746.941805411 0 743.913805473 2.30627270637 739 10 c 2
 488 403 l 257
 246 10 l 2
 241.499983569 2.69212207706 237.109332928 -8.70642181484e-16 230 0 c 2
EndSplineSet
EndChar

StartChar: y
Encoding: 121 121 62
Width: 1000
VWidth: 1920
Flags: HMW
AnchorPoint: "top" 505 1050 basechar 0
LayerCount: 2
Fore
SplineSet
497 208 m 257
 792 1040 l 2
 794.428145561 1046.84819358 797.971310808 1050 805 1050 c 2
 950 1050 l 2
 957 1050 958.44598189 1046.57786251 956 1040 c 2
 528 -111 l 258
 423.07252976 -392.99257627 321.15505359 -399.636933921 126 -362.859193422 c 0
 113.887489635 -360.576543012 111 -357.04433992 111 -350 c 2
 111 -230 l 2
 111 -223.088944339 113.702939914 -220.919428555 122 -223.418875241 c 0
 270.536747508 -268.164806638 328.777650783 -234.548537599 402 -10 c 257
 39 1040 l 2
 36.7086575131 1046.62785017 38 1050 45 1050 c 2
 215 1050 l 2
 222 1050 225.950972096 1046.33751381 228 1040 c 2
 497 208 l 257
EndSplineSet
EndChar

StartChar: z
Encoding: 122 122 63
Width: 1000
VWidth: 1920
Flags: HMW
AnchorPoint: "top" 525 1050 basechar 0
LayerCount: 2
Fore
SplineSet
59 10 m 6
 689 900 l 5
 132 900 l 6
 123.480306556 900 122 901.404655889 122 910 c 6
 122 1040 l 6
 122 1048.52072985 123.404669731 1050 132 1050 c 6
 972 1050 l 6
 979 1050 980.549434599 1047.85214117 975 1040 c 6
 346 150 l 5
 952 150 l 6
 959 150 962 147 962 140 c 6
 962 10 l 6
 962 3.01527573634 959 -8.57252759403e-16 952 0 c 6
 62 0 l 6
 55 0 53.16627418 1.75870479394 59 10 c 6
EndSplineSet
EndChar

StartChar: comma
Encoding: 44 44 65
Width: 540
VWidth: 1920
Flags: HMW
LayerCount: 2
Fore
SplineSet
175 -210 m 6
 145 -210 l 6
 138 -210 136.038706516 -207.545320921 140 -200 c 6
 245 0 l 261
 175 0 l 6
 166.479270153 0 165 1.40465588873 165 10 c 6
 165 200 l 6
 165 207 168 210 175 210 c 6
 365 210 l 6
 372 210 375 207 375 200 c 6
 375 20 l 6
 375 13 373.336399172 8.53069671189 366 0 c 6
 194 -200 l 6
 187.138192688 -207.978845712 183 -210 175 -210 c 6
EndSplineSet
EndChar

StartChar: exclam
Encoding: 33 33 67
Width: 540
VWidth: 1920
Flags: HMW
LayerCount: 2
Fore
SplineSet
365 0 m 6
 175 0 l 6
 168 0 165 3 165 10 c 6
 165 200 l 6
 165 207 168 210 175 210 c 6
 365 210 l 6
 372 210 375 207 375 200 c 6
 375 10 l 6
 375 3 372 -8.57252759403e-16 365 0 c 6
175 950 m 6
 175 1440 l 6
 175 1447 178 1450 185 1450 c 6
 355 1450 l 6
 362 1450 365 1447 365 1440 c 6
 365 950 l 6
 365 943 364.81712286 936.903279335 364 930 c 6
 306 440 l 6
 305.18287714 433.096720665 302 430 295 430 c 6
 245 430 l 6
 238 430 234.81712286 433.096720665 234 440 c 6
 176 930 l 6
 175.18287714 936.903279335 175 943 175 950 c 6
EndSplineSet
EndChar

StartChar: quotesingle
Encoding: 39 39 70
Width: 370
VWidth: 1920
Flags: HMW
LayerCount: 2
Fore
SplineSet
210 930 m 6
 160 930 l 6
 153 930 149.159179688 933.197265625 148 940 c 6
 102 1210 l 6
 100.840820312 1216.80273438 100 1223 100 1230 c 6
 100 1410 l 6
 100 1417 103 1420 110 1420 c 6
 260 1420 l 6
 267 1420 270 1417 270 1410 c 6
 270 1230 l 6
 270 1223 269.159179688 1216.80273438 268 1210 c 6
 222 940 l 6
 220.840820312 933.197265625 217 930 210 930 c 6
EndSplineSet
EndChar

StartChar: question
Encoding: 63 63 71
Width: 1080
VWidth: 1920
Flags: HMW
LayerCount: 2
Fore
SplineSet
655 0 m 2
 465 0 l 2
 458 0 455 3 455 10 c 2
 455 200 l 2
 455 207 458 210 465 210 c 2
 655 210 l 2
 662 210 665 207 665 200 c 2
 665 10 l 2
 665 3 662 0 655 0 c 2
600 400 m 2
 510 400 l 2
 502.91162141 400 499.546835977 402.940166433 498.740177597 409 c 0
 455.886085614 730.931404503 805 748.144767228 805 1023 c 258
 805 1068 l 262
 805 1228 736 1335 579 1335 c 260
 409 1335 325 1224.77129372 325 1052 c 262
 325 962 l 2
 325 955 322 952 315 952 c 2
 155 952 l 2
 148 952 145 955 145 962 c 2
 145 1052 l 262
 145 1316 312 1485 589 1485 c 260
 836 1485 1005 1333 1005 1073 c 262
 1005 1048 l 258
 1005 734.727454173 669.930949857 713.434529336 611.557051229 408 c 0
 610.570023307 402.835492986 606.93028855 400 600 400 c 2
EndSplineSet
EndChar

StartChar: parenleft
Encoding: 40 40 72
Width: 535
VWidth: 2048
Flags: HMW
LayerCount: 2
Fore
SplineSet
70 838 m 258
 70 1243 209.35546875 1561.42578125 489.315429688 1618 c 0
 497.134765625 1619.58007812 500 1617.13964844 500 1610 c 2
 500 1540 l 2
 500 1533.21679688 497.642578125 1529.04882812 490.721679688 1526 c 0
 352.015625 1464.88964844 245 1259 245 858 c 258
 245 392 l 258
 245 -9 352.015664501 -214.890073866 490.721846214 -276.000001511 c 0
 497.642555457 -279.049065626 500 -283.216373582 500 -290 c 2
 500 -360 l 2
 500 -367.140018812 497.13437981 -369.57999665 489.315695958 -368.000002259 c 0
 209.355800504 -311.425894256 70 7 70 412 c 258
 70 838 l 258
EndSplineSet
EndChar

StartChar: parenright
Encoding: 41 41 73
Width: 535
VWidth: 2048
Flags: HMW
LayerCount: 2
Fore
SplineSet
465 412 m 258
 465 7 325.64453125 -311.42578125 45.6845703125 -368 c 0
 37.865234375 -369.580078125 35 -367.139648438 35 -360 c 2
 35 -290 l 2
 35 -283.216796875 37.357421875 -279.048828125 44.2783203125 -276 c 0
 182.984375 -214.889648438 290 -9 290 392 c 258
 290 858 l 258
 290 1259 182.984375 1464.88964844 44.2783203125 1526 c 0
 37.357421875 1529.04882812 35 1533.21679688 35 1540 c 2
 35 1610 l 2
 35 1617.13964844 37.865234375 1619.58007812 45.6845703125 1618 c 0
 325.64453125 1561.42578125 465 1243 465 838 c 258
 465 412 l 258
EndSplineSet
EndChar

StartChar: asterisk
Encoding: 42 42 74
Width: 914
VWidth: 2048
Flags: HMW
LayerCount: 2
Back
SplineSet
492 1020 m 261
 422 1020 l 261
 373 1370 l 6
 371.962520697 1376.66666667 371.947597844 1383.33333333 373 1390 c 6
 381 1440 l 6
 382.092043682 1446.82527301 385 1450 392 1450 c 6
 522 1450 l 6
 529 1450 531.907956318 1446.82527301 533 1440 c 6
 541 1390 l 6
 542.037479303 1383.33333333 542.052402156 1376.66666667 541 1370 c 6
 492 1020 l 261
EndSplineSet
Fore
SplineSet
468 986 m 257
 446 1053 l 257
 764 1208 l 2
 770 1211 776 1213 783 1214 c 2
 833 1222 l 2
 840 1223 844 1221 846 1214 c 2
 886 1091 l 2
 888 1084 886 1080 880 1077 c 2
 835 1054 l 2
 829 1051 823 1049 816 1048 c 2
 468 986 l 257
428 1000 m 257
 485 1041 l 257
 730 787 l 2
 735 782 739 776 742 770 c 2
 765 725 l 2
 768 719 768 715 762 711 c 2
 657 634 l 2
 651 630 647 631 642 636 c 2
 606 672 l 2
 601 677 597 682 594 688 c 2
 428 1000 l 257
429 1041 m 257
 486 1000 l 257
 320 688 l 2
 317 682 313 677 308 672 c 2
 272 636 l 2
 267 631 263 630 257 634 c 2
 152 711 l 2
 146 715 146 719 149 725 c 2
 172 770 l 2
 175 776 179 782 184 787 c 2
 429 1041 l 257
468 1053 m 257
 446 986 l 257
 98 1048 l 2
 91 1049 85 1051 79 1054 c 2
 34 1077 l 2
 28 1080 26 1084 28 1091 c 2
 68 1214 l 2
 70 1221 74 1223 81 1222 c 2
 131 1214 l 2
 138 1213 144 1211 150 1208 c 2
 468 1053 l 257
492 1020 m 257
 422 1020 l 257
 373 1370 l 2
 372 1377 372 1383 373 1390 c 2
 381 1440 l 2
 382 1447 385 1450 392 1450 c 2
 522 1450 l 2
 529 1450 532 1447 533 1440 c 2
 541 1390 l 2
 542 1383 542 1377 541 1370 c 2
 492 1020 l 257
EndSplineSet
EndChar

StartChar: at
Encoding: 64 64 75
Width: 1990
VWidth: 1920
Flags: HMW
LayerCount: 2
Fore
SplineSet
1265 472 m 257
 1265 182 1118 40 921 40 c 256
 734 40 565 157 565 497 c 258
 565 528 l 258
 565 848 724 985 911 985 c 256
 1118 985 1275 843 1275 553 c 257
 1175 533 l 257
 1175 743 1098 845 961 845 c 256
 834 845 755 763 755 553 c 258
 755 472 l 258
 755 262 834 180 961 180 c 256
 1098 180 1175 282 1175 492 c 257
 1265 472 l 257
1332.00000472 -254.827238957 m 0
 1264.32137181 -314.503652472 1144.91626673 -360 985 -360 c 256
 428 -360 100 13 100 493 c 258
 100 583 l 258
 100 1093 488 1435 1025 1435 c 256
 1632 1435 1890 1024 1890 633 c 258
 1890 543 l 258
 1890 183 1697 40 1490 40 c 256
 1283 40 1175 185 1175 405 c 258
 1175 775 l 257
 1308 975 l 2
 1311.83992764 980.160072364 1318 985 1325 985 c 2
 1355 985 l 2
 1362 985 1365 982 1365 975 c 2
 1365 445 l 258
 1365 251.000680415 1403 180 1510 180 c 256
 1607 180 1710 303 1710 543 c 258
 1710 633 l 258
 1710 973 1472 1295 1025 1295 c 256
 618 1295 290 1013 290 593 c 258
 290 483 l 258
 290 103 548 -220 985 -220 c 256
 1097.12312814 -220 1208.64729519 -181.401905932 1280.99999687 -124.412387155 c 0
 1288.40396194 -118.580560615 1291.24150507 -119.775370421 1294 -127 c 2
 1336 -237 l 2
 1338.95422969 -244.737268223 1338.71353661 -248.907504943 1332.00000472 -254.827238957 c 0
EndSplineSet
EndChar

StartChar: dollar
Encoding: 36 36 76
Width: 1110
VWidth: 1920
Flags: HMW
LayerCount: 2
Fore
SplineSet
80 508 m 2
 230 508 l 2
 232.7734375 508 240 507 240 500 c 2
 240 440 l 2
 240 236.4140625 349.641601562 115 560 115 c 256
 768 115 850 187 850 378 c 256
 850 494.666992188 782.067693756 554.551492898 538 614 c 256
 267.580819769 679.867040037 110 815 110 1033 c 256
 110 1273 253 1435 540 1435 c 256
 834 1435 970 1256 970 1041 c 2
 970 971 l 2
 970 964 965.14453125 963 960 963 c 2
 810 963 l 2
 804.85546875 963 800 964 800 971 c 2
 800 1031 l 2
 800 1166 735 1295 540 1295 c 256
 363 1295 290 1203 290 1053 c 256
 290 902 390.472849297 832.640543517 558 792 c 256
 886.71875 712.255859375 1040 585.625976562 1040 388 c 256
 1040 131 909 -35 560 -35 c 256
 251.512695312 -35 71 152.553710938 71 389 c 2
 71 499 l 2
 71 506 77.296875 508 80 508 c 2
  Spiro
    80 508 [
    230 508 ]
    233.821 507.483 o
    238.027 505.182 o
    240 500 [
    240 440 ]
    276.145 265.403 o
    383.687 153.941 o
    560 115 o
    727.501 140.688 o
    821.097 225.043 o
    850 378 o
    823.406 477.741 o
    727.225 552.385 o
    538 614 o
    307.041 696.689 o
    160.77 828.95 o
    110 1033 o
    157.608 1243.71 o
    301.154 1384.21 o
    540 1435 o
    781.957 1380.73 o
    923.945 1238.53 o
    970 1041 [
    970 971 ]
    968.553 965.818 o
    964.875 963.517 o
    960 963 [
    810 963 ]
    805.125 963.517 o
    801.447 965.818 o
    800 971 [
    800 1031 ]
    775.976 1159.33 o
    693.958 1256.63 o
    540 1295 o
    396.63 1265.65 o
    315.429 1182.3 o
    290 1053 o
    322.19 927.356 o
    414.181 844.108 o
    558 792 o
    828.846 700.286 o
    988.19 571.589 o
    1040 388 o
    993.208 164.299 o
    839.342 17.4533 o
    560 -35 o
    296.334 22.2727 o
    129.111 174.175 o
    71 389 [
    71 499 ]
    72.7295 504.44 o
    76.4693 507.224 o
    0 0 z
  EndSpiro
520 1590 m 2
 580 1590 l 2
 587 1590 590 1587 590 1580 c 2
 590 -180 l 2
 590 -187 587 -190 580 -190 c 2
 520 -190 l 2
 513 -190 510 -187 510 -180 c 2
 510 1580 l 2
 510 1587 513 1590 520 1590 c 2
  Spiro
    520 1590 [
    580 1590 ]
    585.699 1588.97 o
    588.965 1585.7 o
    590 1580 [
    590 -180 ]
    588.965 -185.699 o
    585.699 -188.965 o
    580 -190 [
    520 -190 ]
    514.301 -188.965 o
    511.035 -185.699 o
    510 -180 [
    510 1580 ]
    511.035 1585.7 o
    514.301 1588.97 o
    0 0 z
  EndSpiro
EndSplineSet
EndChar

StartChar: numbersign
Encoding: 35 35 77
Width: 1300
VWidth: 1920
Flags: HMW
LayerCount: 2
Fore
SplineSet
80 540 m 2
 1140 540 l 2
 1147 540 1150 537 1150 530 c 2
 1150 440 l 2
 1150 433 1148 430 1140 430 c 2
 80 430 l 2
 73 430 70 433 70 440 c 2
 70 530 l 2
 70 537 73 540 80 540 c 2
160 1050 m 2
 1220 1050 l 6
 1227 1050 1230 1047 1230 1040 c 2
 1230 950 l 2
 1230 943 1227 940 1220 940 c 2
 160 940 l 2
 153 940 150 943 150 950 c 2
 150 1040 l 2
 150 1047 153 1050 160 1050 c 2
950 1400 m 2
 1080 1400 l 2
 1090 1400 1090 1397 1088 1390 c 2
 762 10 l 2
 760 3 760 0 750 0 c 2
 620 0 l 2
 610 0 610 3 612 10 c 2
 938 1390 l 2
 940 1397 940 1400 950 1400 c 2
530 1400 m 2
 660 1400 l 2
 667 1400 670 1397 668 1390 c 2
 342 10 l 2
 340 3 337 0 330 0 c 2
 200 0 l 2
 193 0 190 3 192 10 c 2
 518 1390 l 2
 520 1397 523 1400 530 1400 c 2
EndSplineSet
EndChar

StartChar: slash
Encoding: 47 47 78
Width: 840
VWidth: 2048
Flags: HMW
LayerCount: 2
Fore
SplineSet
796 1390 m 6
 179 -90 l 6
 175.448353208 -98.5193472494 172 -100 165 -100 c 6
 25 -100 l 6
 18 -100 15.4483532075 -98.5193472494 19 -90 c 6
 636 1390 l 6
 639.551646792 1398.51934725 644 1400 650 1400 c 6
 790 1400 l 6
 797 1400 799.551646792 1398.51934725 796 1390 c 6
EndSplineSet
EndChar

StartChar: percent
Encoding: 37 37 79
Width: 1755
VWidth: 2048
Flags: HMW
LayerCount: 2
Fore
SplineSet
100 1083 m 258
 100 1118 l 258
 100 1308 258 1435 435 1435 c 256
 612 1435 780 1308 780 1118 c 258
 780 1083 l 258
 780 893 612 765 435 765 c 256
 258 765 100 893 100 1083 c 258
275 1063 m 258
 275 953 348 895 435 895 c 256
 522 895 605 953 605 1063 c 258
 605 1138 l 258
 605 1248 522 1305 435 1305 c 256
 348 1305 275 1248 275 1138 c 258
 275 1063 l 258
975 283 m 258
 975 318 l 258
 975 508 1133 635 1310 635 c 256
 1487 635 1655 508 1655 318 c 258
 1655 283 l 258
 1655 93 1487 -35 1310 -35 c 256
 1133 -35 975 93 975 283 c 258
1150 263 m 258
 1150 153 1223 95 1310 95 c 256
 1397 95 1480 153 1480 263 c 258
 1480 338 l 258
 1480 448 1397 505 1310 505 c 256
 1223 505 1150 448 1150 338 c 258
 1150 263 l 258
1379 1390 m 2
 536 10 l 2
 531.55136443 2.71753607676 527 -8.57252759403e-16 520 0 c 2
 380 0 l 2
 373 0 371.55136443 2.71753607676 376 10 c 2
 1219 1390 l 2
 1223.44863557 1397.28246392 1228 1400 1235 1400 c 2
 1375 1400 l 2
 1382 1400 1383.44863557 1397.28246392 1379 1390 c 2
EndSplineSet
EndChar

StartChar: hyphen
Encoding: 45 45 80
Width: 570
VWidth: 1920
Flags: HMW
LayerCount: 2
Fore
SplineSet
40 545 m 14
 40 680 l 22
 40 687 43 690 50 690 c 14
 520 690 l 22
 527 690 530 687 530 680 c 14
 530 545 l 22
 530 538 527 535 520 535 c 14
 50 535 l 22
 43 535 40 538 40 545 c 14
EndSplineSet
EndChar

StartChar: underscore
Encoding: 95 95 81
Width: 900
VWidth: 1920
Flags: HMW
LayerCount: 2
Fore
SplineSet
0 -145 m 10
 0 -10 l 18
 0 -3 3 0 10 0 c 10
 890 0 l 22
 897 0 900 -3 900 -10 c 14
 900 -145 l 22
 900 -152 897 -155 890 -155 c 14
 10 -155 l 18
 3 -155 0 -152 0 -145 c 10
EndSplineSet
EndChar

StartChar: plus
Encoding: 43 43 82
Width: 1040
VWidth: 1920
Flags: HMW
LayerCount: 2
Fore
SplineSet
45 625 m 14
 45 760 l 22
 45 767 48 770 55 770 c 14
 985 770 l 22
 992 770 995 767 995 760 c 14
 995 625 l 22
 995 618 992 615 985 615 c 14
 55 615 l 22
 48 615 45 618 45 625 c 14
455 1190 m 14
 585 1190 l 22
 592 1190 595 1187 595 1180 c 14
 595 180 l 22
 595 173 592 170 585 170 c 14
 455 170 l 22
 448 170 445 173 445 180 c 14
 445 1180 l 22
 445 1187 448 1190 455 1190 c 14
EndSplineSet
EndChar

StartChar: equal
Encoding: 61 61 83
Width: 1180
VWidth: 1920
Flags: HMW
LayerCount: 2
Fore
SplineSet
150 245 m 14
 150 380 l 22
 150 387 153 390 160 390 c 14
 1020 390 l 22
 1027 390 1030 387 1030 380 c 14
 1030 245 l 22
 1030 238 1027 235 1020 235 c 14
 160 235 l 22
 153 235 150 238 150 245 c 14
150 615 m 14
 150 750 l 22
 150 757 153 760 160 760 c 14
 1020 760 l 22
 1027 760 1030 757 1030 750 c 14
 1030 615 l 22
 1030 608 1027 605 1020 605 c 14
 160 605 l 22
 153 605 150 608 150 615 c 14
EndSplineSet
EndChar

StartChar: less
Encoding: 60 60 84
Width: 1010
VWidth: 1920
Flags: HMW
LayerCount: 2
Fore
SplineSet
850 86 m 6
 80 544 l 6
 72.6133475526 548.393619248 70 553 70 560 c 6
 70 640 l 6
 70 647 72.6133475526 651.606380752 80 656 c 6
 850 1114 l 2
 857.386652447 1118.39361925 860 1117 860 1110 c 2
 860 950 l 2
 860 943 857.579152962 938.283453046 850 934 c 2
 259.01953125 600 l 261
 850 266 l 6
 857.579152962 261.716546954 860 257 860 250 c 6
 860 90 l 6
 860 83 857.386652447 81.6063807521 850 86 c 6
EndSplineSet
EndChar

StartChar: greater
Encoding: 62 62 85
Width: 1010
VWidth: 1920
Flags: HMW
LayerCount: 2
Fore
SplineSet
160 1114 m 2
 930 656 l 2
 937.38671875 651.606445312 940 647 940 640 c 2
 940 560 l 2
 940 553 937.38671875 548.393554688 930 544 c 2
 160 86 l 2
 152.61328125 81.6064453125 150 83 150 90 c 2
 150 250 l 2
 150 257 152.420898438 261.716796875 160 266 c 2
 750.98046875 600 l 257
 160 934 l 2
 152.420898438 938.283203125 150 943 150 950 c 2
 150 1110 l 2
 150 1117 152.61328125 1118.39355469 160 1114 c 2
EndSplineSet
EndChar

StartChar: backslash
Encoding: 92 92 86
Width: 840
VWidth: 2048
Flags: HMW
LayerCount: 2
Fore
SplineSet
821 -90 m 2
 824.551757812 -98.51953125 822 -100 815 -100 c 2
 675 -100 l 2
 669 -100 664.551757812 -98.51953125 661 -90 c 2
 44 1390 l 2
 40.4482421875 1398.51953125 43 1400 50 1400 c 2
 190 1400 l 2
 197 1400 200.448242188 1398.51953125 204 1390 c 2
 821 -90 l 2
EndSplineSet
EndChar

StartChar: bracketleft
Encoding: 91 91 87
Width: 550
VWidth: 1920
Flags: HMW
LayerCount: 2
Fore
SplineSet
260 1450 m 261
 260 -210 l 261
 490 -210 l 6
 497 -210 500 -213 500 -220 c 6
 500 -350 l 6
 500 -357 497 -360 490 -360 c 6
 80 -360 l 6
 73 -360 70 -357 70 -350 c 6
 70 1590 l 6
 70 1597 73 1600 80 1600 c 6
 490 1600 l 6
 497 1600 500 1597 500 1590 c 6
 500 1460 l 6
 500 1453 497 1450 490 1450 c 6
 260 1450 l 261
EndSplineSet
EndChar

StartChar: braceleft
Encoding: 123 123 88
Width: 575
VWidth: 2048
Flags: HMW
LayerCount: 2
Fore
SplineSet
155 1278 m 262
 155 1505 197 1598 465 1600 c 4
 472 1600 475 1597 475 1590 c 6
 475 1520 l 6
 475 1513 472 1510 464 1510 c 4
 365 1506 330 1452 330 1278 c 262
 330 956 l 262
 330 771 302 668 146 620 c 261
 302 572 330 469 330 284 c 262
 330 -38 l 262
 330 -211 365 -264 462 -270 c 4
 472 -271 475 -273 475 -280 c 6
 475 -350 l 6
 475 -357 472 -360 463 -360 c 4
 197 -356 155 -265 155 -38 c 262
 155 284 l 262
 155 457 119 521 22 552 c 4
 13 555 10 559 10 566 c 6
 10 674 l 6
 10 681 13 685 20 687 c 4
 121 720 155 782 155 956 c 262
 155 1278 l 262
EndSplineSet
EndChar

StartChar: bracketright
Encoding: 93 93 89
Width: 550
VWidth: 1920
Flags: HMW
LayerCount: 2
Fore
SplineSet
290 -210 m 257
 290 1450 l 257
 60 1450 l 2
 53 1450 50 1453 50 1460 c 2
 50 1590 l 2
 50 1597 53 1600 60 1600 c 2
 470 1600 l 2
 477 1600 480 1597 480 1590 c 2
 480 -350 l 2
 480 -357 477 -360 470 -360 c 2
 60 -360 l 2
 53 -360 50 -357 50 -350 c 2
 50 -220 l 2
 50 -213 53 -210 60 -210 c 2
 290 -210 l 257
EndSplineSet
EndChar

StartChar: braceright
Encoding: 125 125 90
Width: 575
VWidth: 2048
Flags: HMW
LayerCount: 2
Fore
SplineSet
420 -38 m 258
 420 -265 378 -358 110 -360 c 0
 103 -360 100 -357 100 -350 c 2
 100 -280 l 2
 100 -273 103 -270 111 -270 c 0
 210 -266 245 -212 245 -38 c 258
 245 284 l 258
 245 469 273 572 429 620 c 257
 273 668 245 771 245 956 c 258
 245 1278 l 258
 245 1451 210 1504 113 1510 c 0
 103 1511 100 1513 100 1520 c 2
 100 1590 l 2
 100 1597 103 1600 112 1600 c 0
 378 1596 420 1505 420 1278 c 258
 420 956 l 258
 420 783 456 719 553 688 c 0
 562 685 565 681 565 674 c 2
 565 566 l 2
 565 559 562 555 555 553 c 0
 454 520 420 458 420 284 c 258
 420 -38 l 258
EndSplineSet
EndChar

StartChar: bar
Encoding: 124 124 91
Width: 415
VWidth: 1920
Flags: HMW
LayerCount: 2
Fore
SplineSet
138 1600 m 10
 278 1600 l 18
 285 1600 288 1597 288 1590 c 10
 288 -350 l 18
 288 -357 285 -360 278 -360 c 10
 138 -360 l 18
 131 -360 128 -357 128 -350 c 10
 128 1590 l 18
 128 1597 131 1600 138 1600 c 10
EndSplineSet
EndChar

StartChar: asciitilde
Encoding: 126 126 92
Width: 1330
VWidth: 2048
Flags: HMW
LayerCount: 2
Fore
SplineSet
422 659 m 256
 329.912721746 659 263.124208212 589.868595041 260.084111394 447 c 0
 259.956415432 440.99895994 256.91444093 438 250 438 c 2
 110 438 l 2
 102.910712222 438 99.9682691489 440.998566181 100.088976266 446.999990836 c 0
 104.280230073 655.384504883 251.445623234 809 422 809 c 256
 661 809 757 552 909 552 c 256
 1000.87221347 552 1067.62867997 620.809942797 1070.89595963 763 c 0
 1071.05683738 770.00130352 1074.10603732 773 1081 773 c 2
 1220 773 l 2
 1227.10958856 773 1230.04227892 770.001779547 1229.89084289 763.000009156 c 0
 1225.3948746 555.125178547 1079.28150859 402 909 402 c 256
 670 402 574 659 422 659 c 256
EndSplineSet
EndChar

StartChar: asciicircum
Encoding: 94 94 93
Width: 820
VWidth: 1920
Flags: HMW
LayerCount: 2
Fore
SplineSet
410 1191.48144531 m 257
 234 740 l 2
 231.669353849 734.021343792 227 730 220 730 c 2
 70 730 l 2
 63 730 61.3021565824 733.552947715 64 740 c 2
 336 1390 l 2
 339.561041242 1398.5098412 343 1400 350 1400 c 2
 470 1400 l 2
 477 1400 480.438958758 1398.5098412 484 1390 c 2
 756 740 l 2
 759.117274776 733.823736235 762.493809261 730 750 730 c 2
 600 730 l 2
 589.571276925 730 587.769395056 733.769395056 586 740 c 2
 410 1191.48144531 l 257
EndSplineSet
EndChar

StartChar: figuredash
Encoding: 8210 8210 108
Width: 1150
VWidth: 2048
Flags: HMW
LayerCount: 2
Fore
SplineSet
40 545 m 10
 40 680 l 18
 40 687 43 690 50 690 c 10
 1100 690 l 18
 1107 690 1110 687 1110 680 c 10
 1110 545 l 18
 1110 538 1107 535 1100 535 c 10
 50 535 l 18
 43 535 40 538 40 545 c 10
EndSplineSet
EndChar

StartChar: endash
Encoding: 8211 8211 109
Width: 1100
VWidth: 2048
Flags: HMW
LayerCount: 2
Fore
SplineSet
40 545 m 10
 40 680 l 18
 40 687 43 690 50 690 c 10
 1050 690 l 18
 1057 690 1060 687 1060 680 c 10
 1060 545 l 18
 1060 538 1057 535 1050 535 c 10
 50 535 l 18
 43 535 40 538 40 545 c 10
EndSplineSet
EndChar

StartChar: emdash
Encoding: 8212 8212 110
Width: 2200
VWidth: 2048
Flags: HMW
LayerCount: 2
Fore
SplineSet
40 545 m 10
 40 680 l 18
 40 687 43 690 50 690 c 10
 2150 690 l 18
 2157 690 2160 687 2160 680 c 10
 2160 545 l 18
 2160 538 2157 535 2150 535 c 10
 50 535 l 18
 43 535 40 538 40 545 c 10
EndSplineSet
EndChar

StartChar: uni2015
Encoding: 8213 8213 111
Width: 2360
VWidth: 2048
Flags: HMW
LayerCount: 2
Fore
SplineSet
40 545 m 10
 40 680 l 18
 40 687 43 690 50 690 c 10
 2310 690 l 18
 2317 690 2320 687 2320 680 c 10
 2320 545 l 18
 2320 538 2317 535 2310 535 c 10
 50 535 l 18
 43 535 40 538 40 545 c 10
EndSplineSet
EndChar

StartChar: quoteleft
Encoding: 8216 8216 114
Width: 540
VWidth: 1920
Flags: HMW
LayerCount: 2
Fore
SplineSet
365 1460 m 6
 395 1460 l 6
 402 1460 403.9609375 1457.54492188 400 1450 c 6
 295 1250 l 261
 365 1250 l 6
 373.520507812 1250 375 1248.59570312 375 1240 c 6
 375 1050 l 6
 375 1043 372 1040 365 1040 c 6
 175 1040 l 6
 168 1040 165 1043 165 1050 c 6
 165 1230 l 6
 165 1237 166.6640625 1241.46972656 174 1250 c 6
 346 1450 l 6
 352.861328125 1457.97851562 357 1460 365 1460 c 6
EndSplineSet
EndChar

StartChar: quotereversed
Encoding: 8219 8219 117
Width: 540
VWidth: 1920
Flags: HMW
LayerCount: 2
Fore
SplineSet
365 1000 m 6
 357 1000 352.861328125 1002.02148438 346 1010 c 6
 174 1210 l 6
 166.6640625 1218.53027344 165 1223 165 1230 c 6
 165 1410 l 6
 165 1417 168 1420 175 1420 c 6
 365 1420 l 6
 372 1420 375 1417 375 1410 c 6
 375 1220 l 6
 375 1211.40429688 373.520507812 1210 365 1210 c 6
 295 1210 l 261
 400 1010 l 6
 403.9609375 1002.45507812 402 1000 395 1000 c 6
 365 1000 l 6
EndSplineSet
EndChar

StartChar: bullet
Encoding: 8226 8226 120
Width: 690
VWidth: 2048
Flags: HMW
LayerCount: 2
Fore
SplineSet
150 718 m 258
 150 773 l 258
 150 893 243 950 340 950 c 256
 437 950 540 893 540 773 c 258
 540 718 l 258
 540 598 437 540 340 540 c 256
 243 540 150 598 150 718 c 258
EndSplineSet
EndChar

StartChar: dagger
Encoding: 8224 8224 124
Width: 1130
VWidth: 1920
Flags: HMW
LayerCount: 2
Fore
SplineSet
70 905 m 14
 70 1040 l 22
 70 1047 73 1050 80 1050 c 14
 1050 1050 l 22
 1057 1050 1060 1047 1060 1040 c 14
 1060 905 l 22
 1060 898 1057 895 1050 895 c 14
 80 895 l 22
 73 895 70 898 70 905 c 14
480 1400 m 14
 650 1400 l 22
 657 1400 660 1397 660 1390 c 14
 660 10 l 22
 660 3 657 0 650 0 c 14
 480 0 l 22
 473 0 470 3 470 10 c 14
 470 1390 l 22
 470 1397 473 1400 480 1400 c 14
EndSplineSet
EndChar

StartChar: daggerdbl
Encoding: 8225 8225 125
Width: 1130
VWidth: 1920
Flags: HMW
LayerCount: 2
Fore
SplineSet
70 10 m 14
 70 145 l 22
 70 152 73 155 80 155 c 14
 1050 155 l 22
 1057 155 1060 152 1060 145 c 14
 1060 10 l 22
 1060 3 1057 0 1050 0 c 14
 80 0 l 22
 73 0 70 3 70 10 c 14
70 905 m 10
 70 1040 l 18
 70 1047 73 1050 80 1050 c 10
 1050 1050 l 18
 1057 1050 1060 1047 1060 1040 c 10
 1060 905 l 18
 1060 898 1057 895 1050 895 c 10
 80 895 l 18
 73 895 70 898 70 905 c 10
480 1400 m 10
 650 1400 l 18
 657 1400 660 1397 660 1390 c 10
 660 -350 l 18
 660 -357 657 -360 650 -360 c 10
 480 -360 l 18
 473 -360 470 -357 470 -350 c 10
 470 1390 l 18
 470 1397 473 1400 480 1400 c 10
EndSplineSet
EndChar

StartChar: perthousand
Encoding: 8240 8240 126
Width: 2555
VWidth: 2048
Flags: HMW
LayerCount: 2
Fore
SplineSet
1775 283 m 258
 1775 318 l 258
 1775 508 1933 635 2110 635 c 256
 2287 635 2455 508 2455 318 c 258
 2455 283 l 258
 2455 93 2287 -35 2110 -35 c 256
 1933 -35 1775 93 1775 283 c 258
1950 263 m 258
 1950 153 2023 95 2110 95 c 256
 2197 95 2280 153 2280 263 c 258
 2280 338 l 258
 2280 448 2197 505 2110 505 c 256
 2023 505 1950 448 1950 338 c 258
 1950 263 l 258
100 1083 m 262
 100 1118 l 262
 100 1308 258 1435 435 1435 c 260
 612 1435 780 1308 780 1118 c 262
 780 1083 l 262
 780 893 612 765 435 765 c 260
 258 765 100 893 100 1083 c 262
275 1063 m 262
 275 953 348 895 435 895 c 260
 522 895 605 953 605 1063 c 262
 605 1138 l 262
 605 1248 522 1305 435 1305 c 260
 348 1305 275 1248 275 1138 c 262
 275 1063 l 262
975 283 m 258
 975 318 l 258
 975 508 1133 635 1310 635 c 256
 1487 635 1655 508 1655 318 c 258
 1655 283 l 258
 1655 93 1487 -35 1310 -35 c 256
 1133 -35 975 93 975 283 c 258
1150 263 m 258
 1150 153 1223 95 1310 95 c 256
 1397 95 1480 153 1480 263 c 258
 1480 338 l 258
 1480 448 1397 505 1310 505 c 256
 1223 505 1150 448 1150 338 c 258
 1150 263 l 258
1379 1390 m 2
 536 10 l 2
 531.55136443 2.71753607676 527 -8.57252759403e-16 520 0 c 2
 380 0 l 2
 373 0 371.55136443 2.71753607676 376 10 c 2
 1219 1390 l 2
 1223.44863557 1397.28246392 1228 1400 1235 1400 c 2
 1375 1400 l 2
 1382 1400 1383.44863557 1397.28246392 1379 1390 c 2
EndSplineSet
EndChar

StartChar: uni2031
Encoding: 8241 8241 127
Width: 3355
VWidth: 2048
Flags: HMW
LayerCount: 2
Fore
SplineSet
2575 283 m 258
 2575 318 l 258
 2575 508 2733 635 2910 635 c 256
 3087 635 3255 508 3255 318 c 258
 3255 283 l 258
 3255 93 3087 -35 2910 -35 c 256
 2733 -35 2575 93 2575 283 c 258
2750 263 m 258
 2750 153 2823 95 2910 95 c 256
 2997 95 3080 153 3080 263 c 258
 3080 338 l 258
 3080 448 2997 505 2910 505 c 256
 2823 505 2750 448 2750 338 c 258
 2750 263 l 258
1775 283 m 258
 1775 318 l 258
 1775 508 1933 635 2110 635 c 256
 2287 635 2455 508 2455 318 c 258
 2455 283 l 258
 2455 93 2287 -35 2110 -35 c 256
 1933 -35 1775 93 1775 283 c 258
1950 263 m 258
 1950 153 2023 95 2110 95 c 256
 2197 95 2280 153 2280 263 c 258
 2280 338 l 258
 2280 448 2197 505 2110 505 c 256
 2023 505 1950 448 1950 338 c 258
 1950 263 l 258
100 1083 m 262
 100 1118 l 262
 100 1308 258 1435 435 1435 c 260
 612 1435 780 1308 780 1118 c 262
 780 1083 l 262
 780 893 612 765 435 765 c 260
 258 765 100 893 100 1083 c 262
275 1063 m 262
 275 953 348 895 435 895 c 260
 522 895 605 953 605 1063 c 262
 605 1138 l 262
 605 1248 522 1305 435 1305 c 260
 348 1305 275 1248 275 1138 c 262
 275 1063 l 262
975 283 m 258
 975 318 l 258
 975 508 1133 635 1310 635 c 256
 1487 635 1655 508 1655 318 c 258
 1655 283 l 258
 1655 93 1487 -35 1310 -35 c 256
 1133 -35 975 93 975 283 c 258
1150 263 m 258
 1150 153 1223 95 1310 95 c 256
 1397 95 1480 153 1480 263 c 258
 1480 338 l 258
 1480 448 1397 505 1310 505 c 256
 1223 505 1150 448 1150 338 c 258
 1150 263 l 258
1379 1390 m 2
 536 10 l 2
 531.55136443 2.71753607676 527 -8.57252759403e-16 520 0 c 2
 380 0 l 2
 373 0 371.55136443 2.71753607676 376 10 c 2
 1219 1390 l 2
 1223.44863557 1397.28246392 1228 1400 1235 1400 c 2
 1375 1400 l 2
 1382 1400 1383.44863557 1397.28246392 1379 1390 c 2
EndSplineSet
EndChar

StartChar: fraction
Encoding: 8260 8260 128
Width: 930
VWidth: 1920
Flags: HMW
LayerCount: 2
Fore
SplineSet
755.538085938 1311.625 m 14
 859.461914062 1251.625 l 22
 865.5234375 1248.125 866.622070312 1244.02636719 863.122070312 1237.96484375 c 14
 188.122070312 142.03515625 l 22
 184.622070312 135.973632812 180.5234375 134.875 174.461914062 138.375 c 14
 70.5380859375 198.375 l 22
 64.4765625 201.875 63.3779296875 205.973632812 66.8779296875 212.03515625 c 14
 741.877929688 1307.96484375 l 22
 745.377929688 1314.02636719 749.4765625 1315.125 755.538085938 1311.625 c 14
EndSplineSet
EndChar

StartChar: uni2074
Encoding: 8308 8308 129
Width: 676
VWidth: 1920
Flags: HMW
LayerCount: 2
Fore
SplineSet
646 952 m 2
 646 834 l 2
 646 830 644 828 640 828 c 2
 532 828 l 257
 532 636 l 2
 532 632 530 630 526 630 c 2
 384 630 l 2
 380 630 378 632 378 636 c 2
 378 828 l 257
 46 828 l 2
 42 828 40 830 40 834 c 2
 40 964 l 2
 40 968 41 972 44 976 c 2
 432 1464 l 2
 434 1467 438 1470 442 1470 c 2
 526 1470 l 2
 530 1470 532 1468 532 1464 c 2
 532 958 l 257
 640 958 l 2
 644 958 646 956 646 952 c 2
384 958 m 257
 384 1226 l 257
 163 958 l 261
 384 958 l 257
EndSplineSet
EndChar

StartChar: uni2073
Encoding: 8307 8307 130
Width: 721
VWidth: 1920
Flags: HMW
LayerCount: 2
Fore
SplineSet
66 874 m 2
 208 874 l 2
 212 874 214 872 214 868 c 2
 214 826 l 6
 214 774 271 739 356 739 c 4
 446 739 507 783 507 841 c 6
 507 898 l 6
 507 966 436 1006 350 1006 c 6
 302 1006 l 2
 298 1006 296 1008 296 1012 c 2
 296 1130 l 6
 296 1134 298 1136 302 1136 c 6
 338 1136 l 6
 438 1136 474 1182 474 1244 c 6
 474 1283 l 6
 474 1329 435 1361 355 1361 c 4
 285 1361 229 1331 229 1261 c 6
 229 1207 l 2
 229 1203 227 1201 223 1201 c 2
 87 1201 l 2
 83 1201 81 1203 81 1207 c 2
 81 1261 l 2
 81 1401 200 1491 358 1491 c 4
 516 1491 631 1418 631 1280 c 2
 631 1265 l 2
 631 1115 492 1062 338 1062 c 1
 350 1092 l 1
 504 1092 661 1033 661 883 c 2
 661 838 l 2
 661 694 528 609 350 609 c 0
 199 609 60 689 60 826 c 2
 60 868 l 2
 60 872 62 874 66 874 c 2
EndSplineSet
EndChar

StartChar: uni2072
Encoding: 8306 8306 131
Width: 692
VWidth: 1920
Flags: HMW
LayerCount: 2
Fore
SplineSet
60 693 m 262
 60 1019 483 1089 483 1257 c 258
 483 1284 l 258
 483 1340 435 1368 361 1368 c 256
 279 1368 223 1322 223 1238 c 258
 223 1184 l 2
 223 1180 221 1178 217 1178 c 2
 81 1178 l 2
 77 1178 75 1180 75 1184 c 2
 75 1238 l 258
 75 1402 191 1498 367 1498 c 260
 525 1498 631 1419 631 1281 c 258
 631 1254 l 258
 631 1016 232 928 232 785 c 258
 232 779 l 257
 626 779 l 2
 630 779 632 777 632 773 c 2
 632 643 l 2
 632 639 630 637 626 637 c 2
 66 637 l 2
 62 637 60 639 60 643 c 2
 60 693 l 262
EndSplineSet
EndChar

StartChar: uni2070
Encoding: 8304 8304 132
Width: 770
VWidth: 1920
Flags: HMW
LayerCount: 2
Fore
SplineSet
80 923 m 258
 80 1178 l 258
 80 1373 194 1491 385 1491 c 260
 576 1491 690 1373 690 1178 c 258
 690 923 l 258
 690 727 576 609 385 609 c 260
 194 609 80 727 80 923 c 258
234 935 m 262
 234 786 295 733 385 733 c 260
 475 733 536 786 536 935 c 262
 536 1166 l 262
 536 1315 475 1367 385 1367 c 260
 295 1367 234 1315 234 1166 c 262
 234 935 l 262
EndSplineSet
EndChar

StartChar: uni2075
Encoding: 8309 8309 133
Width: 754
VWidth: 1920
Flags: HMW
LayerCount: 2
Fore
SplineSet
106 844 m 2
 236 844 l 2
 240 844 242 842 242 838 c 0
 250 764 287 726 375 726 c 0
 464 726 520 766 520 862 c 2
 520 937 l 2
 520 1037 473 1086 393 1086 c 0
 351 1086 295 1063 270 1021 c 0
 267 1016 264 1015 260 1015 c 2
 118 1015 l 2
 114 1015 112 1016 113 1021 c 2
 178 1457 l 2
 179 1461 181 1463 185 1463 c 2
 633 1463 l 2
 637 1463 639 1461 639 1457 c 2
 639 1408 l 2
 639 1366 621 1333 519 1333 c 2
 306 1333 l 1
 249 1070 l 1
 226 1070 l 1
 259 1144 324 1216 440 1216 c 0
 570 1216 674 1117 674 919 c 2
 674 880 l 2
 674 692 557 602 375 602 c 0
 215 602 109 694 100 838 c 0
 100 842 102 844 106 844 c 2
EndSplineSet
EndChar

StartChar: uni2076
Encoding: 8310 8310 134
Width: 836
VWidth: 1920
Flags: HMW
LayerCount: 2
Fore
SplineSet
423 1054 m 260
 343 1054 231 1015 231 925 c 262
 231 883 l 261
 195 943 l 261
 195 1101 323 1184 447 1184 c 260
 611 1184 736 1068 736 904 c 262
 736 874 l 262
 736 707 607 609 422 609 c 260
 196 609 100 730 100 946 c 262
 100 1136 l 262
 100 1364 221 1491 417 1491 c 260
 595 1491 703 1389 703 1279 c 262
 703 1261 l 6
 703 1257 701 1255 697 1255 c 6
 567 1255 l 6
 563 1255 561 1257 561 1261 c 6
 561 1279 l 262
 561 1329 517 1361 429 1361 c 260
 313 1361 231 1303 231 1133 c 262
 231 883 l 262
 231 789 304 739 416 739 c 260
 535 739 582 792 582 880 c 262
 582 904 l 262
 582 994 527 1054 423 1054 c 260
EndSplineSet
EndChar

StartChar: uni2077
Encoding: 8311 8311 135
Width: 652
VWidth: 1920
Flags: HMW
LayerCount: 2
Fore
SplineSet
651 1464 m 2
 308 636 l 2
 306 632 304 630 300 630 c 2
 146 630 l 2
 142 630 140 632 142 636 c 2
 466 1334 l 261
 76 1334 l 2
 72 1334 70 1336 70 1340 c 2
 70 1464 l 2
 70 1468 72 1470 76 1470 c 2
 648 1470 l 2
 652 1470 653 1468 651 1464 c 2
EndSplineSet
EndChar

StartChar: uni2078
Encoding: 8312 8312 136
Width: 812
VWidth: 1920
Flags: HMW
LayerCount: 2
Fore
SplineSet
406 736 m 256
 504 736 558 777 558 855 c 262
 558 886 l 258
 558 964 504 1006 406 1006 c 256
 308 1006 254 964 254 886 c 258
 254 855 l 258
 254 777 308 736 406 736 c 256
406 1136 m 256
 486 1136 528 1163 528 1234 c 258
 528 1263 l 258
 528 1329 485 1364 406 1364 c 256
 327 1364 284 1329 284 1263 c 258
 284 1234 l 258
 284 1163 326 1136 406 1136 c 256
425 1086 m 257
 593 1086 712 1004 712 865 c 258
 712 838 l 258
 712 690 611 609 406 609 c 256
 201 609 100 690 100 838 c 258
 100 865 l 258
 100 1004 219 1086 387 1086 c 257
 389 1062 l 257
 229 1065 130 1132 130 1265 c 258
 130 1280 l 258
 130 1413 245 1491 406 1491 c 256
 567 1491 682 1413 682 1280 c 258
 682 1265 l 258
 682 1132 583 1065 423 1062 c 257
 425 1086 l 257
EndSplineSet
EndChar

StartChar: uni2079
Encoding: 8313 8313 137
Width: 826
VWidth: 1920
Flags: HMW
LayerCount: 2
Fore
SplineSet
403 1046 m 256
 483 1046 595 1085 595 1175 c 258
 595 1217 l 257
 631 1157 l 257
 631 999 503 916 379 916 c 256
 215 916 100 1032 100 1196 c 258
 100 1226 l 258
 100 1393 219 1491 404 1491 c 256
 630 1491 726 1370 726 1154 c 258
 726 964 l 258
 726 736 595 609 399 609 c 256
 221 609 103 711 103 821 c 262
 103 839 l 6
 103 843 105 845 109 845 c 6
 239 845 l 6
 243 845 245 843 245 839 c 6
 245 821 l 262
 245 771 299 739 387 739 c 256
 503 739 595 797 595 967 c 258
 595 1217 l 258
 595 1311 522 1361 410 1361 c 256
 291 1361 254 1308 254 1220 c 258
 254 1196 l 258
 254 1106 299 1046 403 1046 c 256
EndSplineSet
EndChar

StartChar: uni00B9
Encoding: 185 185 138
Width: 514
VWidth: 1920
Flags: HMW
LayerCount: 2
Fore
SplineSet
187 1465 m 0
 218 1466 256 1478 262 1504 c 0
 263 1508 266 1510 270 1510 c 2
 328 1510 l 6
 332 1510 334 1508 334 1504 c 6
 334 646 l 6
 334 642 332 640 328 640 c 6
 186 640 l 2
 182 640 180 642 180 646 c 2
 180 1458 l 2
 180 1462 182 1465 187 1465 c 0
EndSplineSet
EndChar

StartChar: cent
Encoding: 162 162 154
Width: 1000
VWidth: 1920
Flags: HMW
LayerCount: 2
Fore
SplineSet
490 1240 m 6
 550 1240 l 6
 557 1240 560 1237 560 1230 c 6
 560 -180 l 6
 560 -187 557 -190 550 -190 c 6
 490 -190 l 6
 483 -190 480 -187 480 -180 c 6
 480 1230 l 6
 480 1237 483 1240 490 1240 c 6
EndSplineSet
Refer: 40 99 N 1 0 0 1 0 0 2
EndChar

StartChar: uni203D
Encoding: 8253 8253 157
Width: 1080
VWidth: 1920
Flags: HMW
LayerCount: 2
Fore
SplineSet
465 950 m 2
 465 1080 l 2
 465 1087 468 1090 475 1090 c 2
 645 1090 l 2
 652 1090 655 1087 655 1080 c 2
 655 950 l 2
 655 943 654.817382812 936.903320312 654 930 c 2
 576 410 l 2
 575.182617188 403.096679688 572 400 565 400 c 2
 535 400 l 2
 528 400 524.817382812 403.096679688 524 410 c 2
 466 930 l 2
 465.182617188 936.903320312 465 943 465 950 c 2
655 0 m 2
 465 0 l 2
 458 0 455 3 455 10 c 2
 455 200 l 2
 455 207 458 210 465 210 c 2
 655 210 l 2
 662 210 665 207 665 200 c 2
 665 10 l 2
 665 3 662 0 655 0 c 2
580 400 m 2
 560 400 l 2
 552.912109375 400 549.546875 402.940429688 548.740234375 409 c 0
 505.885742188 730.931640625 805 748.144767228 805 1023 c 258
 805 1068 l 258
 805 1188 736 1285 579 1285 c 256
 409 1285 325 1184.77129372 325 1052 c 258
 325 962 l 2
 325 955 322 952 315 952 c 2
 155 952 l 2
 148 952 145 955 145 962 c 2
 145 1052 l 258
 145 1276 312 1435 589 1435 c 256
 836 1435 1005 1293 1005 1073 c 258
 1005 1048 l 258
 1005 734.727454173 669.930949857 713.434529336 611.557051229 408 c 0
 610.570023307 402.835492986 586.930664062 400 580 400 c 2
EndSplineSet
EndChar

StartChar: ordfeminine
Encoding: 170 170 159
Width: 847
VWidth: 1920
Flags: HMW
LayerCount: 2
Fore
SplineSet
245 854 m 0
 245 790 282 739 370 739 c 256
 454 739 558 806 558 952 c 257
 618 902 l 261
 618 759 517 609 326 609 c 256
 167 609 70 699 70 834 c 0
 70 985 163 1080 399 1119 c 256
 524 1139 558 1159 558 1242 c 257
 598 1122 l 257
 598 1059 539 1027 426 1004 c 256
 288 977 245 914 245 854 c 0
558 852 m 258
 558 1262 l 258
 558 1322 514 1359 419 1359 c 256
 320 1359 273 1302 268 1226 c 0
 268 1220 265 1217 258 1217 c 2
 128 1217 l 2
 121 1217 118 1220 119 1226 c 0
 143 1379 202 1489 438 1489 c 256
 648 1489 718 1395 718 1187 c 258
 718 852 l 258
 718 758 739 693 775 651 c 0
 779 646 779 644 772 644 c 2
 628 644 l 2
 621 644 615 646 612 650 c 0
 575 693 558 757 558 852 c 258
EndSplineSet
EndChar

StartChar: exclamdown
Encoding: 161 161 160
Width: 540
VWidth: 1920
Flags: HMW
LayerCount: 2
Fore
SplineSet
175 1050 m 2
 365 1050 l 2
 372 1050 375 1047 375 1040 c 2
 375 850 l 2
 375 843 372 840 365 840 c 2
 175 840 l 2
 168 840 165 843 165 850 c 2
 165 1040 l 2
 165 1047 168 1050 175 1050 c 2
365 100 m 2
 365 -390 l 2
 365 -397 362 -400 355 -400 c 2
 185 -400 l 2
 178 -400 175 -397 175 -390 c 2
 175 100 l 2
 175 107 175.182617188 113.096679688 176 120 c 2
 234 610 l 2
 234.817382812 616.903320312 238 620 245 620 c 2
 295 620 l 2
 302 620 305.182617188 616.903320312 306 610 c 2
 364 120 l 2
 364.817382812 113.096679688 365 107 365 100 c 2
EndSplineSet
EndChar

StartChar: AE
Encoding: 198 198 161
Width: 2200
VWidth: 1920
Flags: HMW
LayerCount: 2
Fore
SplineSet
450 570 m 257
 1120 570 l 257
 1120 420 l 257
 450 420 l 257
 450 570 l 257
1165 1400 m 1
 253 10 l 2
 249.338482947 4.41939835142 247 0 240 0 c 2
 50 0 l 2
 43 0 39.6385374198 4.89678948218 43 10 c 2
 952 1390 l 2
 955.36146258 1395.10321052 958 1400 965 1400 c 2
 1165 1400 l 1
EndSplineSet
Refer: 16 69 N 1 0 0 1 920 0 2
EndChar

StartChar: questiondown
Encoding: 191 191 162
Width: 1080
VWidth: 1920
Flags: HMW
LayerCount: 2
Fore
SplineSet
495 1050 m 2
 685 1050 l 2
 692 1050 695 1047 695 1040 c 2
 695 850 l 2
 695 843 692 840 685 840 c 2
 495 840 l 2
 488 840 485 843 485 850 c 2
 485 1040 l 2
 485 1047 488 1050 495 1050 c 2
550 650 m 2
 640 650 l 2
 647.087890625 650 650.453125 647.059570312 651.259765625 641 c 0
 694.114257812 319.068359375 345 301.85546875 345 27 c 258
 345 -18 l 258
 345 -138 414 -235 571 -235 c 256
 741 -235 825 -134.771484375 825 -2 c 258
 825 88 l 2
 825 95 828 98 835 98 c 2
 995 98 l 2
 1002 98 1005 95 1005 88 c 2
 1005 -2 l 258
 1005 -226 838 -385 561 -385 c 256
 314 -385 145 -243 145 -23 c 258
 145 2 l 258
 145 315.272460938 480.069335938 336.565429688 538.443359375 642 c 0
 539.4296875 647.1640625 543.069335938 650 550 650 c 2
EndSplineSet
EndChar

StartChar: yen
Encoding: 165 165 163
Width: 1280
VWidth: 1920
Flags: HMW
LayerCount: 2
Fore
SplineSet
190 285 m 14
 190 390 l 22
 190 397 193 400 200 400 c 14
 1080 400 l 22
 1087 400 1090 397 1090 390 c 14
 1090 285 l 22
 1090 278 1087 275 1080 275 c 14
 200 275 l 22
 193 275 190 278 190 285 c 14
190 555 m 14
 190 660 l 22
 190 667 193 670 200 670 c 14
 1080 670 l 22
 1087 670 1090 667 1090 660 c 14
 1090 555 l 22
 1090 548 1087 545 1080 545 c 14
 200 545 l 22
 193 545 190 548 190 555 c 14
EndSplineSet
Refer: 36 89 N 1 0 0 1 0 0 2
EndChar

StartChar: gravecomb
Encoding: 768 768 164
Width: 0
Flags: HMW
AnchorPoint: "top" -563 1000 mark 0
LayerCount: 2
Fore
SplineSet
-464 1104 m 2
 -564 1104 l 2
 -571 1104 -579 1109 -584 1114 c 2
 -859 1390 l 2
 -864 1395 -866 1400 -859 1400 c 2
 -649 1400 l 2
 -642 1400 -637 1397 -633 1390 c 2
 -460 1114 l 2
 -456 1107 -457 1104 -464 1104 c 2
EndSplineSet
EndChar

StartChar: acutecomb
Encoding: 769 769 165
Width: 0
Flags: HMW
AnchorPoint: "top" -548 1000 mark 0
LayerCount: 2
Fore
SplineSet
-647 1104 m 6
 -654 1104 -655 1107 -651 1114 c 6
 -478 1390 l 6
 -474 1397 -469 1400 -462 1400 c 6
 -252 1400 l 6
 -245 1400 -247 1395 -252 1390 c 6
 -527 1114 l 6
 -532 1109 -540 1104 -547 1104 c 6
 -647 1104 l 6
EndSplineSet
EndChar

StartChar: uni0302
Encoding: 770 770 166
Width: 0
VWidth: 1920
Flags: HMW
AnchorPoint: "top" -559 1000.48 mark 0
LayerCount: 2
Fore
SplineSet
-560 1291.48144531 m 257
 -706 1110 l 2
 -710.228697606 1104.74362909 -718 1100 -725 1100 c 2
 -830 1100 l 2
 -837 1100 -840.044449898 1103.77776939 -836 1110 c 2
 -654 1390 l 2
 -648.756702068 1398.0666122 -647 1400 -640 1400 c 2
 -480 1400 l 2
 -473 1400 -471.427895961 1397.91568161 -466 1390 c 2
 -274 1110 l 2
 -269.802800527 1103.8790841 -267.505859375 1100 -280 1100 c 2
 -385 1100 l 2
 -395.428710938 1100 -399.743245653 1105.04793634 -404 1110 c 2
 -560 1291.48144531 l 257
EndSplineSet
EndChar

StartChar: tildecomb
Encoding: 771 771 167
Width: 0
Flags: HMW
AnchorPoint: "top" -578 1000 mark 0
LayerCount: 2
Fore
SplineSet
-698 1289 m 256
 -740.086914062 1289 -756.875976562 1249.86816406 -759.916015625 1217 c 0
 -760.46875 1211.0234375 -763.0859375 1208 -770 1208 c 2
 -870 1208 l 2
 -877.088867188 1208 -880.09285071 1211.00034567 -879.911132812 1217 c 0
 -875.719726562 1355.38476562 -788.5546875 1429 -698 1429 c 256
 -569 1429 -533 1322 -431 1322 c 256
 -389.127929688 1322 -372.37109375 1360.80957031 -369.104492188 1393 c 0
 -368.397460938 1399.96679688 -365.893554688 1403 -359 1403 c 2
 -260 1403 l 2
 -252.890625 1403 -249.881121295 1399.99951589 -250.109375 1393 c 0
 -254.60546875 1255.125 -340.71875 1182 -431 1182 c 256
 -560 1182 -596 1289 -698 1289 c 256
EndSplineSet
EndChar

StartChar: uni0304
Encoding: 772 772 168
Width: 0
VWidth: 1920
Flags: HMW
AnchorPoint: "top" -560 1000 mark 0
LayerCount: 2
Fore
SplineSet
-830 1205 m 14
 -830 1320 l 22
 -830 1327 -827 1330 -820 1330 c 14
 -300 1330 l 22
 -293 1330 -290 1327 -290 1320 c 14
 -290 1205 l 22
 -290 1198 -293 1195 -300 1195 c 14
 -820 1195 l 22
 -827 1195 -830 1198 -830 1205 c 14
EndSplineSet
EndChar

StartChar: uni0306
Encoding: 774 774 169
Width: 0
VWidth: 1920
Flags: HMW
AnchorPoint: "top" -560 1000 mark 0
LayerCount: 2
Fore
SplineSet
-560 1305 m 0
 -450 1305 -386 1359 -385 1427 c 0
 -385 1435 -382 1438 -375 1438 c 2
 -260 1438 l 2
 -253 1438 -249 1435 -250 1424 c 0
 -258 1282 -357 1175 -560 1175 c 0
 -763 1175 -864 1283 -870 1427 c 0
 -870 1435 -867 1438 -860 1438 c 2
 -745 1438 l 2
 -738 1438 -735 1435 -735 1425 c 0
 -734 1355 -668 1305 -560 1305 c 0
EndSplineSet
EndChar

StartChar: uni0307
Encoding: 775 775 170
Width: 0
Flags: HMW
AnchorPoint: "top" -548 1000 mark 0
LayerCount: 2
Fore
SplineSet
-455 1190 m 2
 -645 1190 l 2
 -652 1190 -655 1193 -655 1200 c 2
 -655 1390 l 2
 -655 1397 -652 1400 -645 1400 c 2
 -455 1400 l 2
 -448 1400 -445 1397 -445 1390 c 2
 -445 1200 l 2
 -445 1193 -448 1190 -455 1190 c 2
EndSplineSet
EndChar

StartChar: uni0308
Encoding: 776 776 171
Width: 0
Flags: HMW
AnchorPoint: "top" -548 1000 mark 0
LayerCount: 2
Fore
SplineSet
-635 1190 m 2
 -825 1190 l 2
 -832 1190 -835 1193 -835 1200 c 2
 -835 1390 l 2
 -835 1397 -832 1400 -825 1400 c 2
 -635 1400 l 2
 -628 1400 -625 1397 -625 1390 c 2
 -625 1200 l 2
 -625 1193 -628 1190 -635 1190 c 2
-285 1190 m 2
 -475 1190 l 2
 -482 1190 -485 1193 -485 1200 c 2
 -485 1390 l 2
 -485 1397 -482 1400 -475 1400 c 2
 -285 1400 l 2
 -278 1400 -275 1397 -275 1390 c 2
 -275 1200 l 2
 -275 1193 -278 1190 -285 1190 c 2
EndSplineSet
EndChar

StartChar: uni030A
Encoding: 778 778 172
Width: 0
Flags: HMW
AnchorPoint: "top" -554 1000 mark 0
LayerCount: 2
Fore
SplineSet
-360 1312 m 0
 -360 1208 -450 1122 -554 1122 c 0
 -660 1122 -750 1206 -750 1312 c 0
 -750 1414 -660 1502 -554 1502 c 0
 -448 1502 -360 1420 -360 1312 c 0
-454 1312 m 0
 -454 1368 -500 1407 -554 1407 c 0
 -608 1407 -654 1362 -654 1312 c 0
 -654 1258 -608 1217 -554 1217 c 0
 -502 1217 -454 1262 -454 1312 c 0
EndSplineSet
EndChar

StartChar: uni030B
Encoding: 779 779 173
Width: 0
Flags: HMW
AnchorPoint: "top" -618 1000 mark 0
LayerCount: 2
Fore
SplineSet
-497 1104 m 2
 -504 1104 -505 1107 -501 1114 c 2
 -328 1390 l 2
 -324 1397 -319 1400 -312 1400 c 2
 -102 1400 l 2
 -95 1400 -97 1395 -102 1390 c 2
 -377 1114 l 2
 -382 1109 -390 1104 -397 1104 c 2
 -497 1104 l 2
-827 1104 m 2
 -834 1104 -835 1107 -831 1114 c 2
 -658 1390 l 2
 -654 1397 -649 1400 -642 1400 c 2
 -432 1400 l 2
 -425 1400 -427 1395 -432 1390 c 2
 -707 1114 l 2
 -712 1109 -720 1104 -727 1104 c 2
 -827 1104 l 2
EndSplineSet
EndChar

StartChar: uni030C
Encoding: 780 780 174
Width: 0
Flags: HMW
AnchorPoint: "top" -554 1000 mark 0
LayerCount: 2
Fore
SplineSet
-554 1229 m 257
 -408 1410 l 2
 -404 1415 -396 1420 -389 1420 c 2
 -284 1420 l 2
 -277 1420 -274 1416 -278 1410 c 2
 -460 1130 l 2
 -465 1122 -467 1120 -474 1120 c 2
 -634 1120 l 2
 -641 1120 -643 1122 -648 1130 c 2
 -840 1410 l 2
 -844 1416 -846 1420 -834 1420 c 2
 -729 1420 l 2
 -719 1420 -714 1415 -710 1410 c 2
 -554 1229 l 257
EndSplineSet
EndChar

StartChar: uni030F
Encoding: 783 783 175
Width: 0
Flags: HMW
AnchorPoint: "top" -508 1000 mark 0
LayerCount: 2
Fore
SplineSet
-274 1104 m 2
 -374 1104 l 2
 -381 1104 -389 1109 -394 1114 c 2
 -669 1390 l 2
 -674 1395 -676 1400 -669 1400 c 2
 -459 1400 l 2
 -452 1400 -447 1397 -443 1390 c 2
 -270 1114 l 2
 -266 1107 -267 1104 -274 1104 c 2
-604 1104 m 2
 -704 1104 l 2
 -711 1104 -719 1109 -724 1114 c 2
 -999 1390 l 2
 -1004 1395 -1006 1400 -999 1400 c 2
 -789 1400 l 2
 -782 1400 -777 1397 -773 1390 c 2
 -600 1114 l 2
 -596 1107 -597 1104 -604 1104 c 2
EndSplineSet
EndChar

StartChar: uni0311
Encoding: 785 785 176
Width: 0
Flags: HMW
AnchorPoint: "top" -604 1000 mark 0
LayerCount: 2
Fore
SplineSet
-604 1305 m 0
 -714 1305 -778 1251 -779 1183 c 0
 -779.1171875 1175.00097656 -782 1172 -789 1172 c 2
 -904 1172 l 2
 -911 1172 -914.619140625 1175.01757812 -914 1186 c 0
 -906 1328 -807 1435 -604 1435 c 0
 -401 1435 -300 1327 -294 1183 c 0
 -293.666992188 1175.00683594 -297 1172 -304 1172 c 2
 -419 1172 l 2
 -426 1172 -428.857421875 1175.00097656 -429 1185 c 0
 -430 1255 -496 1305 -604 1305 c 0
  Spiro
    -604 1305 o
    -711.293 1284.08 o
    -764.327 1235.91 o
    -779 1183 o
    -780.109 1176.6 o
    -783.338 1173.07 o
    -789 1172 [
    -904 1172 ]
    -909.699 1173.18 o
    -912.965 1177.49 o
    -914 1186 o
    -890.787 1375.78 o
    -803.791 1433.13 o
    -604 1435 o
    -403.765 1432.8 o
    -316.324 1374.44 o
    -294 1183 o
    -295.035 1176.6 o
    -298.301 1173.07 o
    -304 1172 [
    -419 1172 ]
    -424.655 1173.15 o
    -427.876 1177.19 o
    -429 1185 o
    -444.116 1238.28 o
    -497.596 1285.04 o
    0 0 z
  EndSpiro
EndSplineSet
EndChar

StartChar: dotbelowcomb
Encoding: 803 803 177
Width: 0
Flags: HMW
AnchorPoint: "bottom" -551 0 mark 0
LayerCount: 2
Fore
SplineSet
-455 -360 m 2
 -645 -360 l 2
 -652 -360 -655 -357 -655 -350 c 2
 -655 -160 l 2
 -655 -153 -652 -150 -645 -150 c 2
 -455 -150 l 2
 -448 -150 -445 -153 -445 -160 c 2
 -445 -350 l 2
 -445 -357 -448 -360 -455 -360 c 2
EndSplineSet
EndChar

StartChar: uni0326
Encoding: 806 806 178
Width: 0
Flags: HMW
AnchorPoint: "bottom" -561 0 mark 0
LayerCount: 2
Fore
SplineSet
-655 -570 m 2
 -685 -570 l 2
 -692 -570 -693.9609375 -567.544921875 -690 -560 c 2
 -585 -360 l 257
 -655 -360 l 2
 -663.520507812 -360 -665 -358.595703125 -665 -350 c 2
 -665 -160 l 2
 -665 -153 -662 -150 -655 -150 c 2
 -465 -150 l 2
 -458 -150 -455 -153 -455 -160 c 2
 -455 -340 l 2
 -455 -347 -456.6640625 -351.469726562 -464 -360 c 2
 -636 -560 l 2
 -642.861328125 -567.978515625 -647 -570 -655 -570 c 2
EndSplineSet
EndChar

StartChar: uni0327
Encoding: 807 807 179
Width: 1200
Flags: HMW
AnchorPoint: "bottom" -531 0 mark 0
LayerCount: 2
Fore
SplineSet
-633 -500 m 0
 -712.01308465 -500 -768.021668706 -485.84338425 -821 -450.872070138 c 0
 -831.101879468 -444.203758936 -831.101879468 -444.203758936 -826 -434 c 2
 -790 -354 l 2
 -785.066921658 -344.133843316 -785.066921658 -344.133843316 -776 -348.975630805 c 0
 -724.208537665 -376.632564862 -682.182558925 -382 -633 -382 c 0
 -539 -382 -493 -364 -493 -312 c 0
 -493 -265.534199156 -551.099991397 -241.558717563 -680 -240.07355522 c 0
 -693.030632539 -239.923418654 -693.030632539 -239.923418654 -697 -230 c 2
 -713 -196 l 2
 -717.286753819 -186.890648135 -713.538863448 -182.612171443 -709 -176 c 2
 -547 60 l 1
 -405 60 l 1
 -572 -172 l 1
 -556 -167 -540 -164 -525 -164 c 0
 -439 -164 -349 -212 -349 -312 c 0
 -349 -440 -479 -500 -633 -500 c 0
EndSplineSet
EndChar

StartChar: uni0328
Encoding: 808 808 180
Width: 1200
Flags: HMW
AnchorPoint: "ogonek" -551 0 mark 0
LayerCount: 2
Fore
SplineSet
-475 -310 m 2
 -475 -430 l 2
 -475 -437 -478 -440 -485 -440 c 2
 -565 -440 l 2
 -733 -440 -811 -358 -811 -240 c 0
 -811 -122 -687 -2 -527 70 c 1
 -465 0 l 1
 -569 -44 -651 -126 -651 -210 c 0
 -651 -272 -614.989005048 -300 -555 -300 c 2
 -485 -300 l 2
 -478 -300 -475 -303 -475 -310 c 2
EndSplineSet
EndChar

StartChar: uni0312
Encoding: 786 786 181
Width: 0
Flags: HMW
AnchorPoint: "top" -604 950 mark 0
LayerCount: 2
Fore
SplineSet
-499 1430 m 2
 -469 1430 l 2
 -462 1430 -460.0390625 1427.54492188 -464 1420 c 2
 -569 1220 l 257
 -499 1220 l 2
 -490.479492188 1220 -489 1218.59570312 -489 1210 c 2
 -489 1020 l 2
 -489 1013 -492 1010 -499 1010 c 2
 -689 1010 l 2
 -696 1010 -699 1013 -699 1020 c 2
 -699 1200 l 2
 -699 1207 -697.3359375 1211.46972656 -690 1220 c 2
 -518 1420 l 2
 -511.138671875 1427.97851562 -507 1430 -499 1430 c 2
EndSplineSet
EndChar

StartChar: sterling
Encoding: 163 163 182
Width: 1280
VWidth: 1920
Flags: HMW
LayerCount: 2
Fore
SplineSet
50 645 m 14
 50 740 l 18
 50 747 53 750 60 750 c 10
 720 750 l 18
 727 750 730 747 730 740 c 10
 730 645 l 22
 730 638 727 635 720 635 c 14
 60 635 l 22
 53 635 50 638 50 645 c 14
84 154 m 0
 200.068945028 270.068945028 328 305 328 514.35546875 c 0
 328 712.5078125 140 794.966796875 140 1043 c 0
 140 1273 288 1435 575 1435 c 0
 869.171875 1435 1016.63476562 1266.05566406 1029.68945312 971 c 0
 1030.04394531 963 1027.04394531 963 1020 963 c 2
 870 963 l 2
 863.072265625 963 860.072265625 963 859.927734375 971 c 0
 856.21484375 1176.09472656 759.612304688 1295 585 1295 c 0
 408 1295 320 1223 320 1063 c 0
 320 871.723632812 488 740 488 514.35546875 c 0
 488 332.653320312 357.922851562 241.385742188 238.950195312 155 c 1
 1030 155 l 2
 1037 155 1040 152 1040 145 c 2
 1040 10 l 2
 1040 3 1037 0 1030 0 c 2
 90 0 l 2
 83 0 80 3 80 10 c 2
 80 145 l 2
 80 149.28125 80 150 84 154 c 0
EndSplineSet
EndChar

StartChar: currency
Encoding: 164 164 183
Width: 1112
Flags: HMW
LayerCount: 2
Fore
SplineSet
958.354492188 1204.2421875 m 14
 1046.7421875 1115.85449219 l 22
 1051.69238281 1110.90429688 1051.69238281 1106.66210938 1046.7421875 1101.71191406 c 14
 884.108398438 939.077148438 l 22
 879.158203125 934.127929688 874.916015625 934.127929688 869.965820312 939.077148438 c 14
 781.577148438 1027.46582031 l 22
 776.627929688 1032.41601562 776.627929688 1036.65820312 781.577148438 1041.60839844 c 14
 944.211914062 1204.2421875 l 22
 949.162109375 1209.19238281 953.404296875 1209.19238281 958.354492188 1204.2421875 c 14
230.034179688 475.922851562 m 14
 318.422851562 387.534179688 l 22
 323.372070312 382.583984375 323.372070312 378.341796875 318.422851562 373.391601562 c 14
 155.788085938 210.7578125 l 22
 150.837890625 205.807617188 146.595703125 205.807617188 141.645507812 210.7578125 c 14
 53.2578125 299.145507812 l 22
 48.3076171875 304.095703125 48.3076171875 308.337890625 53.2578125 313.288085938 c 14
 215.891601562 475.922851562 l 22
 220.841796875 480.872070312 225.083984375 480.872070312 230.034179688 475.922851562 c 14
53.2578125 1115.85449219 m 14
 141.645507812 1204.2421875 l 22
 146.595703125 1209.19238281 150.837890625 1209.19238281 155.788085938 1204.2421875 c 14
 318.422851562 1041.60839844 l 22
 323.372070312 1036.65820312 323.372070312 1032.41601562 318.422851562 1027.46582031 c 14
 230.034179688 939.077148438 l 22
 225.083984375 934.127929688 220.841796875 934.127929688 215.891601562 939.077148438 c 14
 53.2578125 1101.71191406 l 22
 48.3076171875 1106.66210938 48.3076171875 1110.90429688 53.2578125 1115.85449219 c 14
781.577148438 387.534179688 m 14
 869.965820312 475.922851562 l 22
 874.916015625 480.872070312 879.158203125 480.872070312 884.108398438 475.922851562 c 14
 1046.7421875 313.288085938 l 22
 1051.69238281 308.337890625 1051.69238281 304.095703125 1046.7421875 299.145507812 c 14
 958.354492188 210.7578125 l 22
 953.404296875 205.807617188 949.162109375 205.807617188 944.211914062 210.7578125 c 14
 781.577148438 373.391601562 l 22
 776.627929688 378.341796875 776.627929688 382.583984375 781.577148438 387.534179688 c 14
63 710 m 0
 63 979 284 1200 553 1200 c 0
 822 1200 1043 979 1043 710 c 0
 1043 441 822 220 553 220 c 0
 284 220 63 441 63 710 c 0
223 710 m 0
 223 521 364 370 553 370 c 0
 742 370 883 521 883 710 c 0
 883 899 742 1050 553 1050 c 0
 364 1050 223 899 223 710 c 0
EndSplineSet
EndChar

StartChar: brokenbar
Encoding: 166 166 184
Width: 415
VWidth: 1920
Flags: HMW
LayerCount: 2
Fore
SplineSet
138 430 m 14
 278 430 l 22
 285 430 288 427 288 420 c 14
 288 -350 l 18
 288 -357 285 -360 278 -360 c 10
 138 -360 l 18
 131 -360 128 -357 128 -350 c 10
 128 420 l 22
 128 427 131 430 138 430 c 14
138 1600 m 10
 278 1600 l 18
 285 1600 288 1597 288 1590 c 10
 288 820 l 18
 288 813 285 810 278 810 c 10
 138 810 l 18
 131 810 128 813 128 820 c 10
 128 1590 l 18
 128 1597 131 1600 138 1600 c 10
EndSplineSet
EndChar

StartChar: section
Encoding: 167 167 185
Width: 1086
VWidth: 1920
Flags: HMW
LayerCount: 2
Fore
SplineSet
483 850 m 257
 338 850 245 736 245 618 c 256
 245 511 308.229492188 424.002929688 490 321 c 256
 730 185 875 67 875 -93 c 256
 875 -275 740 -400 513 -400 c 256
 279 -400 174 -267 160 -57 c 0
 160 -51 163 -48 170 -48 c 2
 309 -48 l 2
 316 -48 319 -51 320 -58 c 0
 334 -188 372 -265 515 -265 c 256
 643 -265 705 -210 705 -110 c 256
 705 -32 605 71 440 162 c 256
 156.844726562 318.1640625 75 406 75 563 c 256
 75 785 230 930 494 930 c 257
 483 850 l 257
603 185 m 257
 748 185 841 299 841 417 c 256
 841 524 777.770507812 610.997070312 596 714 c 256
 356 850 211 968 211 1128 c 256
 211 1310 346 1435 573 1435 c 256
 807 1435 912 1302 926 1092 c 0
 926 1086 923 1083 916 1083 c 2
 777 1083 l 2
 770 1083 767 1086 766 1093 c 0
 752 1223 714 1300 571 1300 c 256
 443 1300 381 1245 381 1145 c 256
 381 1067 481 964 646 873 c 256
 929.155273438 716.8359375 1011 629 1011 472 c 256
 1011 250 856 105 592 105 c 257
 603 185 l 257
EndSplineSet
EndChar

StartChar: copyright
Encoding: 169 169 186
Width: 1484
Flags: HMW
LayerCount: 2
Fore
SplineSet
1079 548.799804688 m 256
 1065.57910156 373.749023438 954.200195312 229 734 229 c 256
 501.799804688 229 377 392.799804688 377 620.799804688 c 258
 377 719.799804688 l 258
 377 947.799804688 501.799804688 1111 734 1111 c 256
 954.200195312 1111 1055.55957031 979.1796875 1061 833.799804688 c 256
 1061.1953125 828.590820312 1059.20019531 827.799804688 1055 827.799804688 c 258
 965.599609375 827.799804688 l 258
 961.400390625 827.799804688 959.049804688 828.546875 959 833.799804688 c 256
 957.951171875 945.25390625 870.200195312 1027 740 1027 c 256
 585.799804688 1027 497 887.799804688 497 725.799804688 c 258
 497 614.799804688 l 258
 497 452.799804688 573.799804688 313 740 313 c 256
 882.200195312 313 978.713867188 421.274414062 977 548.799804688 c 256
 976.9296875 554.001953125 978.799804688 554.799804688 983 554.799804688 c 258
 1073 554.799804688 l 258
 1077.20019531 554.799804688 1079.40332031 554.0546875 1079 548.799804688 c 256
1439 668 m 0
 1439 284 1125 -28 741 -28 c 0
 357 -28 45 284 45 668 c 0
 45 1052 357 1366 741 1366 c 0
 1125 1366 1439 1052 1439 668 c 0
1353 668 m 0
 1353 1006 1079 1280 741 1280 c 0
 403 1280 131 1006 131 668 c 0
 131 330 403 58 741 58 c 0
 1079 58 1353 330 1353 668 c 0
EndSplineSet
EndChar

StartChar: registered
Encoding: 174 174 188
Width: 1484
Flags: HMW
LayerCount: 2
Fore
SplineSet
538 1030 m 261
 538 754 l 261
 778 754 l 262
 878.200195312 754 931 794.799804688 931 866.799804688 c 262
 931 917.200195312 l 262
 931 989.200195312 878.200195312 1030 778 1030 c 262
 538 1030 l 261
778 1120 m 262
 932.198242188 1120 1051 1049.20019531 1051 905.200195312 c 262
 1051 890.799804688 l 262
 1051 746.799804688 932.200195312 688 778 688 c 261
 778 724 l 261
 932.200195312 724 1045 677.200195312 1045 533.200195312 c 262
 1045 476.799804688 l 262
 1045 408.521484375 1063.88574219 357.508789062 1091.421875 316.599609375 c 4
 1096 309.798828125 1096 307.999023438 1096 304 c 6
 1096 286 l 6
 1096 281.799804688 1094.20019531 280 1090 280 c 6
 982 280 l 6
 977.697265625 280 975.897460938 280 972.866210938 285.400390625 c 4
 939.473632812 344.888671875 931 424.40234375 931 476.799804688 c 262
 931 551.200195312 l 262
 931 623.200195312 878.200195312 664 778 664 c 262
 538 664 l 261
 538 286 l 6
 538 281.799804688 536.200195312 280 532 280 c 6
 430 280 l 6
 425.799804688 280 424 281.799804688 424 286 c 6
 424 1114 l 6
 424 1118.20019531 425.799804688 1120 430 1120 c 6
 778 1120 l 262
1439 668 m 0
 1439 284 1125 -28 741 -28 c 0
 357 -28 45 284 45 668 c 0
 45 1052 357 1366 741 1366 c 0
 1125 1366 1439 1052 1439 668 c 0
1353 668 m 0
 1353 1006 1079 1280 741 1280 c 0
 403 1280 131 1006 131 668 c 0
 131 330 403 58 741 58 c 0
 1079 58 1353 330 1353 668 c 0
EndSplineSet
EndChar

StartChar: dotlessi
Encoding: 305 305 279
Width: 445
VWidth: 1920
Flags: HMW
AnchorPoint: "top" 225 1050 basechar 0
LayerCount: 2
Fore
SplineSet
318 1040 m 2
 318 10 l 2
 318 3 315 -8.57252759403e-16 308 0 c 2
 138 0 l 2
 131 0 128 3 128 10 c 2
 128 1040 l 2
 128 1047 131 1050 138 1050 c 2
 308 1050 l 2
 315 1050 318 1047 318 1040 c 2
EndSplineSet
EndChar

StartChar: uni0237
Encoding: 567 567 291
Width: 445
VWidth: 1920
Flags: HMW
AnchorPoint: "top" 221 1050 basechar 0
LayerCount: 2
Fore
SplineSet
318 -98 m 258
 318 -305.388243546 196.923850901 -378.212324891 -91 -351.071861109 c 0
 -99.0306840663 -350.314867586 -102 -347.039908704 -102 -340 c 2
 -102 -230 l 2
 -102 -223.059452658 -99.045807618 -220.382714175 -91.9999880275 -221.216262324 c 0
 57.081105309 -238.853141572 128 -205.207856125 128 -78 c 258
 128 1040 l 2
 128 1047 131 1050 138 1050 c 2
 308 1050 l 2
 315 1050 318 1047 318 1040 c 2
 318 -98 l 258
EndSplineSet
EndChar

StartChar: kgreenlandic
Encoding: 312 312 298
Width: 1000
VWidth: 1920
Flags: HMW
LayerCount: 2
Fore
SplineSet
130 1050 m 6
 300 1050 l 6
 307 1050 310 1047 310 1040 c 6
 310 10 l 2
 310 3 306.595703125 0 300 0 c 2
 130 0 l 2
 123 0 120 3 120 10 c 2
 120 1040 l 6
 120 1047 123 1050 130 1050 c 6
190 463 m 257
 731 1040 l 2
 738.703246431 1048.21584693 741.985997927 1050 750 1050 c 2
 950 1050 l 2
 957 1050 957.92976002 1048.35187108 949 1040 c 2
 300 433 l 257
 190 463 l 257
420 653 m 257
 570 713 l 257
 1014 10 l 2
 1018.7049505 2.5504950495 1017 -8.57252759403e-16 1010 0 c 2
 810 0 l 2
 801.941805411 0 798.306246781 2.59647946505 794 10 c 2
 420 653 l 257
EndSplineSet
EndChar

StartChar: grave
Encoding: 96 96 339
Width: 623
VWidth: 0
Flags: HMW
LayerCount: 2
Fore
SplineSet
456 1104 m 2
 356 1104 l 2
 349 1104 341 1109 336 1114 c 2
 61 1390 l 2
 56 1395 54 1400 61 1400 c 2
 271 1400 l 2
 278 1400 283 1397 287 1390 c 2
 460 1114 l 2
 464 1107 463 1104 456 1104 c 2
EndSplineSet
EndChar

StartChar: longs
Encoding: 383 383 352
Width: 620
VWidth: 1920
Flags: HMW
LayerCount: 2
Fore
SplineSet
180 1188 m 258
 180 1395.14532511 290.911586484 1468.85022688 578 1441.16584861 c 0
 587.027382074 1440.29532424 590 1437.04717092 590 1430 c 2
 590 1320 l 2
 590 1313.15658313 587.042270588 1310.51024436 573.999994664 1311.88973719 c 0
 428.802169805 1327.24743692 365 1293.49478024 365 1168 c 258
 365 10 l 2
 365 3 362 -8.57252759403e-16 355 0 c 2
 190 0 l 2
 183 0 180 3 180 10 c 2
 180 1188 l 258
EndSplineSet
EndChar

StartChar: uni0259
Encoding: 601 601 359
Width: 1110
VWidth: 1920
Flags: HMW
LayerCount: 2
Fore
SplineSet
96 720.84765625 m 4
 146.732421875 954.708007812 316.868164062 1085 548 1085 c 260
 817 1085 1004 912 1004 602 c 262
 1004 447 l 262
 1004 147 817 -35 540 -35 c 260
 273 -35 118 161 94 376 c 260
 86.2421875 446.790039062 86.01171875 473.3828125 86 557 c 4
 85.9990234375 562 88.9990234375 565 96 565 c 6
 880 565 l 261
 880 445 l 261
 270 445 l 261
 275 218 377 95 540 95 c 260
 697 95 814 207 814 417 c 262
 814 632 l 262
 814 852 707 955 540 955 c 260
 407.727539062 955 296.877929688 865.5625 265.3515625 718 c 4
 264.466796875 713.856445312 260.955078125 712 254 712 c 6
 104 712 l 6
 96.9365234375 712 94.685546875 714.788085938 96 720.84765625 c 4
EndSplineSet
EndChar

StartChar: logicalnot
Encoding: 172 172 373
Width: 1150
VWidth: 2048
Flags: MW
LayerCount: 2
Fore
SplineSet
130 605 m 2
 130 740 l 2
 130 747 133 750 140 750 c 2
 1020 750 l 2
 1027 750 1030 747 1030 740 c 2
 1030 325 l 2
 1030 318 1027 315 1020 315 c 2
 900 315 l 2
 893 315 890 318 890 325 c 2
 890 595 l 1
 140 595 l 2
 133 595 130 598 130 605 c 2
EndSplineSet
EndChar

StartChar: acute
Encoding: 180 180 374
Width: 619
Flags: HMW
LayerCount: 2
Fore
SplineSet
166.809570312 1104 m 6
 159.809570312 1104 158.809570312 1107 162.809570312 1114 c 6
 335.809570312 1390 l 6
 339.809570312 1397 344.809570312 1400 351.809570312 1400 c 6
 561.809570312 1400 l 6
 568.809570312 1400 566.809570312 1395 561.809570312 1390 c 6
 286.809570312 1114 l 6
 281.809570312 1109 273.809570312 1104 266.809570312 1104 c 6
 166.809570312 1104 l 6
EndSplineSet
EndChar

StartChar: degree
Encoding: 176 176 376
Width: 880
VWidth: 2048
Flags: HMW
LayerCount: 2
Fore
SplineSet
100 1083 m 258
 100 1118 l 258
 100 1308 258 1435 435 1435 c 256
 612 1435 780 1308 780 1118 c 258
 780 1083 l 258
 780 893 612 765 435 765 c 256
 258 765 100 893 100 1083 c 258
255 1073 m 262
 255 953 338 885 435 885 c 256
 532 885 625 953 625 1073 c 262
 625 1128 l 262
 625 1248 532 1315 435 1315 c 256
 338 1315 255 1248 255 1128 c 262
 255 1073 l 262
EndSplineSet
EndChar

StartChar: plusminus
Encoding: 177 177 377
Width: 1168
Flags: HMW
LayerCount: 2
Fore
SplineSet
105 210 m 14
 105 345 l 22
 105 352 108 355 115 355 c 14
 1045 355 l 22
 1052 355 1055 352 1055 345 c 14
 1055 210 l 22
 1055 203 1052 200 1045 200 c 14
 115 200 l 22
 108 200 105 203 105 210 c 14
105 975 m 14
 105 1110 l 22
 105 1117 108 1120 115 1120 c 14
 1045 1120 l 22
 1052 1120 1055 1117 1055 1110 c 14
 1055 975 l 22
 1055 968 1052 965 1045 965 c 14
 115 965 l 22
 108 965 105 968 105 975 c 14
515 1490 m 14
 645 1490 l 22
 652 1490 655 1487 655 1480 c 14
 655 580 l 22
 655 573 652 570 645 570 c 14
 515 570 l 22
 508 570 505 573 505 580 c 14
 505 1480 l 22
 505 1487 508 1490 515 1490 c 14
EndSplineSet
EndChar

StartChar: ae
Encoding: 230 230 379
Width: 1775
VWidth: 1920
Flags: HMW
LayerCount: 2
Fore
SplineSet
265 270 m 0
 265 176 312 95 460 95 c 256
 624 95 778 222 778 398 c 257
 868 328 l 257
 868 125 677 -35 436 -35 c 256
 237 -35 70 45 70 280 c 0
 70 441 169 575 529 615 c 256
 713 635 778 655 778 738 c 257
 818 618 l 257
 818 555 726 524 556 500 c 256
 332 468 265 380 265 270 c 0
778 258 m 265
 778 788 l 258
 778 888 694 955 559 955 c 256
 410 955 313 858 308 722 c 0
 308 716 305 713 298 713 c 2
 148 713 l 2
 141 713 138 716 139 722 c 0
 163 955 312 1085 548 1085 c 260
 808 1085 908 971 908 733 c 258
 908 258 l 273
 778 258 l 265
1679 329 m 0
 1628 95 1458 -35 1227 -35 c 256
 958 -35 831 138 831 448 c 258
 831 603 l 258
 831 903 958 1085 1235 1085 c 256
 1502 1085 1657 889 1681 674 c 256
 1689 603 1689 577 1689 493 c 0
 1689 488 1686 485 1679 485 c 2
 895 485 l 257
 895 605 l 257
 1505 605 l 257
 1500 832 1398 955 1235 955 c 256
 1078 955 961 843 961 633 c 258
 961 418 l 258
 961 198 1068 95 1235 95 c 256
 1367 95 1478 184 1510 332 c 0
 1511 336 1514 338 1521 338 c 2
 1671 338 l 2
 1678 338 1680 335 1679 329 c 0
  Spiro
    1679 329 o
    1590.61 130.791 o
    1435.33 7.28663 o
    1227 -35 o
    1004.95 21.2221 o
    873.803 185.215 o
    831 448 [
    831 603 ]
    874.098 861.082 o
    1007.33 1026.82 o
    1235 1085 o
    1463.77 1026.33 o
    1614.15 875.928 o
    1681 674 o
    1686.63 614.238 o
    1688.7 561.425 o
    1689 493 o
    1687.97 488.707 o
    1684.7 485.961 o
    1679 485 [
    895 485 v
    895 605 v
    1505 605 v
    1469.07 796.474 o
    1376.21 914.784 o
    1235 955 o
    1094.31 918.258 o
    997.079 809.672 o
    961 633 [
    961 418 ]
    994.86 236.625 o
    1089.86 129.782 o
    1235 95 o
    1357.74 123.5 o
    1453.89 204.883 o
    1510 332 o
    1511.74 335.331 o
    1515.26 337.335 o
    1521 338 [
    1671 338 ]
    1676.4 337.002 o
    1678.93 333.996 o
    0 0 z
  EndSpiro
EndSplineSet
EndChar

StartChar: paragraph
Encoding: 182 182 380
Width: 1070
VWidth: 1920
Flags: HMW
LayerCount: 2
Fore
SplineSet
935 1275 m 1
 935 -350 l 2
 935 -357 932 -360 925 -360 c 2
 795 -360 l 2
 788 -360 784.357529523 -356.960096829 785 -350 c 2
 785 1275 l 1
 655 1275 l 1
 655 -350 l 2
 654.357529523 -356.960096829 652 -360 645 -360 c 2
 515 -360 l 2
 508 -360 505 -357 505 -350 c 2
 505 600 l 1
 495 600 l 2
 288 600 100 698 100 968 c 2
 100 1032 l 2
 100 1302 288.120117188 1400 495 1400 c 2
 1025 1400 l 6
 1032 1400 1035 1397 1035 1390 c 2
 1035 1285 l 2
 1035 1278 1032 1275 1025 1275 c 2
 935 1275 l 1
EndSplineSet
EndChar

StartChar: guilsinglleft
Encoding: 8249 8249 381
Width: 630
Flags: HMW
LayerCount: 2
Fore
SplineSet
460 216 m 2
 170 459 l 6
 162.61328125 463.393554688 160 468 160 475 c 6
 160 645 l 6
 160 652 162.61328125 656.606445312 170 661 c 6
 460 874 l 2
 467.38671875 878.393554688 470 877 470 870 c 2
 470 710 l 2
 470 703 467.579101562 698.283203125 460 694 c 2
 269.01953125 555 l 261
 460 396 l 2
 467.579101562 391.716796875 470 387 470 380 c 2
 470 220 l 2
 470 213 467.38671875 211.606445312 460 216 c 2
EndSplineSet
EndChar

StartChar: guilsinglright
Encoding: 8250 8250 382
Width: 630
Flags: HW
LayerCount: 2
Fore
SplineSet
170 874 m 2
 460 641 l 2
 467.38671875 636.606445312 470 632 470 625 c 2
 470 455 l 2
 470 448 467.38671875 443.393554688 460 439 c 2
 170 216 l 2
 162.61328125 211.606445312 160 213 160 220 c 2
 160 380 l 2
 160 387 162.420898438 391.716796875 170 396 c 2
 360.98046875 545 l 257
 170 694 l 2
 162.420898438 698.283203125 160 703 160 710 c 2
 160 870 l 2
 160 877 162.61328125 878.393554688 170 874 c 2
EndSplineSet
EndChar

StartChar: mu
Encoding: 181 181 385
Width: 1110
VWidth: 1920
Flags: HW
LayerCount: 2
Fore
SplineSet
132 1050 m 2
 302 1050 l 2
 309 1050 312 1047 312 1040 c 2
 312 -350 l 2
 312 -357 308.595703125 -360 302 -360 c 2
 132 -360 l 2
 125 -360 122 -357 122 -350 c 2
 122 1040 l 2
 122 1047 125 1050 132 1050 c 2
972 0 m 2
 817 0 l 2
 810 0 807 3 807 10 c 2
 807 193 l 257
 792 250 l 257
 792 1040 l 2
 792 1047 795 1050 802 1050 c 2
 972 1050 l 2
 979 1050 982 1047 982 1040 c 2
 982 10 l 2
 982 3 979 -8.57252759403e-16 972 0 c 2
842 347 m 257
 842 127 675 -35 468 -35 c 256
 261 -35 172 87.0234375 172 287 c 258
 172 1040 l 2
 172 1047 175 1050 182 1050 c 2
 302 1050 l 2
 309 1050 312 1047 312 1040 c 2
 312 287 l 258
 313.572312153 167.032582705 381 95 518 95 c 256
 685 95 792 217 792 427 c 257
 842 347 l 257
EndSplineSet
EndChar

StartChar: Eth
Encoding: 208 208 387
Width: 1380
VWidth: 1920
Flags: HW
LayerCount: 2
Fore
SplineSet
40 645 m 10
 40 780 l 18
 40 787 43 790 50 790 c 10
 660 790 l 22
 667 790 670 787 670 780 c 14
 670 645 l 22
 670 638 667 635 660 635 c 14
 50 635 l 18
 43 635 40 638 40 645 c 10
EndSplineSet
Refer: 15 68 N 1 0 0 1 0 0 2
EndChar

StartChar: Dcroat
Encoding: 272 272 388
Width: 1380
VWidth: 1920
Flags: HW
LayerCount: 2
Fore
SplineSet
40 645 m 10
 40 780 l 18
 40 787 43 790 50 790 c 10
 660 790 l 22
 667 790 670 787 670 780 c 14
 670 645 l 22
 670 638 667 635 660 635 c 14
 50 635 l 18
 43 635 40 638 40 645 c 10
EndSplineSet
Refer: 15 68 N 1 0 0 1 0 0 2
EndChar

StartChar: thorn
Encoding: 254 254 389
Width: 1110
VWidth: 1920
Flags: HW
LayerCount: 2
Fore
SplineSet
105 1450 m 2
 275 1450 l 2
 282 1450 285 1447 285 1440 c 2
 285 -350 l 2
 285 -357 281.595703125 -360 275 -360 c 2
 105 -360 l 2
 98 -360 95 -357 95 -350 c 2
 95 1440 l 2
 95 1447 98 1450 105 1450 c 2
215 633 m 257
 215 923 422 1085 619 1085 c 256
 826 1085 1035 943 1035 603 c 258
 1035 447 l 258
 1035 107 826 -35 619 -35 c 256
 422 -35 215 127 215 417 c 257
 285 437 l 257
 285 227 422 105 579 105 c 256
 726 105 845 207 845 417 c 258
 845 633 l 258
 845 843 726 945 579 945 c 256
 422 945 285 823 285 613 c 257
 215 633 l 257
EndSplineSet
EndChar

StartChar: Thorn
Encoding: 222 222 390
Width: 1280
VWidth: 1920
Flags: HW
LayerCount: 2
Fore
SplineSet
700 1150 m 6
 986.879882812 1150 1175 1052 1175 782 c 6
 1175 718 l 6
 1175 448 987 350 700 350 c 6
 360 350 l 5
 360 10 l 2
 360 3 357 -8.57252759403e-16 350 0 c 2
 180 0 l 2
 173 0 170 3 170 10 c 2
 170 1390 l 2
 170 1397 173 1400 180 1400 c 2
 350 1400 l 2
 357 1400 360 1397 360 1390 c 2
 360 1150 l 5
 700 1150 l 6
360 500 m 5
 700 500 l 6
 867 500 975 568 975 688 c 6
 975 812 l 6
 975 932 867 1000 700 1000 c 6
 360 1000 l 5
 360 500 l 5
EndSplineSet
EndChar

StartChar: divide
Encoding: 247 247 391
Width: 1169
VWidth: 2048
Flags: HW
LayerCount: 2
Fore
SplineSet
70 625 m 10
 70 760 l 18
 70 767 73 770 80 770 c 10
 1060 770 l 18
 1067 770 1070 767 1070 760 c 10
 1070 625 l 18
 1070 618 1067 615 1060 615 c 10
 80 615 l 18
 73 615 70 618 70 625 c 10
EndSplineSet
Refer: 1 46 N 1 0 0 1 306 990 2
Refer: 1 46 N 1 0 0 1 306 180 2
EndChar

StartChar: multiply
Encoding: 215 215 392
Width: 1060
VWidth: 1920
Flags: HW
LayerCount: 2
Fore
SplineSet
906 417 m 10
 825 336 l 18
 820 331 816 331 811 336 c 10
 153 994 l 18
 148 999 148 1003 153 1008 c 10
 235 1089 l 18
 240 1094 244 1094 249 1089 c 10
 906 431 l 18
 911 426 911 422 906 417 c 10
235 336 m 14
 153 417 l 22
 148 422 148 426 153 431 c 14
 811 1089 l 22
 816 1094 820 1094 825 1089 c 14
 906 1008 l 22
 911 1003 911 999 906 994 c 14
 249 336 l 22
 244 331 240 331 235 336 c 14
EndSplineSet
EndChar

StartChar: Oslash
Encoding: 216 216 393
Width: 1490
VWidth: 1920
Flags: HW
LayerCount: 2
Fore
SplineSet
1169.01953125 1485.76269531 m 6
 1220.98046875 1455.76269531 l 6
 1227.04296875 1452.26269531 1228.140625 1448.1640625 1224.640625 1442.10253906 c 6
 344.640625 -82.1025390625 l 6
 341.140625 -88.1640625 337.04296875 -89.2626953125 330.98046875 -85.7626953125 c 6
 279.01953125 -55.7626953125 l 6
 272.95703125 -52.2626953125 271.859375 -48.1640625 275.359375 -42.1025390625 c 6
 1155.359375 1482.10253906 l 6
 1158.859375 1488.1640625 1162.95703125 1489.26269531 1169.01953125 1485.76269531 c 6
EndSplineSet
Refer: 26 79 N 1 0 0 1 0 0 2
EndChar

StartChar: oslash
Encoding: 248 248 394
Width: 1110
VWidth: 1920
Flags: HW
LayerCount: 2
Fore
SplineSet
884.01953125 1168.53808594 m 6
 935.98046875 1138.53808594 l 6
 942.04296875 1135.03808594 943.140625 1130.94042969 939.640625 1124.87792969 c 6
 229.640625 -104.877929688 l 6
 226.140625 -110.940429688 222.04296875 -112.038085938 215.98046875 -108.538085938 c 6
 164.01953125 -78.5380859375 l 6
 157.95703125 -75.0380859375 156.859375 -70.9404296875 160.359375 -64.8779296875 c 6
 870.359375 1164.87792969 l 6
 873.859375 1170.94042969 877.95703125 1172.03808594 884.01953125 1168.53808594 c 6
EndSplineSet
Refer: 52 111 N 1 0 0 1 0 0 2
EndChar

StartChar: germandbls
Encoding: 223 223 396
Width: 1210
VWidth: 1920
Flags: HW
LayerCount: 2
Fore
SplineSet
140 1188 m 2
 140 1362 287 1487 517 1487 c 0
 780 1487 912 1372 912 1205 c 0
 912 1008 772 935 772 815 c 0
 772 636 1132 593 1132 302 c 0
 1132 90 973 -35 613 -35 c 0
 604 -35 603 -34 603 -25 c 2
 603 95 l 2
 603 104 604 105 613 105 c 0
 858 106 932 179 932 297 c 0
 932 520 582 537 582 828 c 0
 582 970 722 1038 722 1168 c 0
 722 1279 669 1360 527 1360 c 4
 405 1360 325 1301 325 1168 c 2
 325 10 l 2
 325 3 322 0 315 0 c 2
 150 0 l 2
 143 0 140 3 140 10 c 2
 140 1188 l 2
EndSplineSet
EndChar

StartChar: eth
Encoding: 240 240 397
Width: 1104
VWidth: 1920
Flags: HW
LayerCount: 2
Fore
SplineSet
218 1101 m 14
 178 1185 l 22
 175 1191 177 1195 183 1198 c 14
 719 1448 l 22
 725 1451 729 1450 732 1444 c 14
 771 1360 l 22
 774 1354 772 1350 766 1347 c 14
 231 1096 l 22
 225 1093 221 1095 218 1101 c 14
529 935 m 256
 349 935 260 750 260 537 c 258
 260 497 l 258
 260 287 371 115 560 115 c 256
 737 115 849 302 849 472 c 258
 849 698 l 258
 849 983.786058982 464.865413129 1229.69289721 182.000006984 1350.11206054 c 0
 171.75909514 1354.47173835 169.943504455 1357.5630915 174 1365 c 2
 234 1475 l 2
 238.160488413 1482.62756209 239.030932624 1485.06186525 251.999990126 1480.09855568 c 0
 625.542624884 1337.1423129 1034 998.637400771 1034 623 c 258
 1034 537 l 258
 1034 237 907 -35 550 -35 c 256
 258 -35 70 179 70 457 c 258
 70 567 l 258
 70 841 212 1085 469 1085 c 256
 706 1085 909 856 909 662 c 257
 849 472 l 257
 849 602 l 258
 849 785 679 935 529 935 c 256
EndSplineSet
EndChar

StartChar: dcroat
Encoding: 273 273 398
Width: 1135
VWidth: 1920
Flags: HW
LayerCount: 2
Fore
SplineSet
640 1205 m 14
 640 1320 l 22
 640 1327 643 1330 650 1330 c 14
 1120 1330 l 22
 1127 1330 1130 1327 1130 1320 c 14
 1130 1205 l 22
 1130 1198 1127 1195 1120 1195 c 14
 650 1195 l 22
 643 1195 640 1198 640 1205 c 14
EndSplineSet
Refer: 41 100 N 1 0 0 1 0 0 2
EndChar

StartChar: Hbar
Encoding: 294 294 399
Width: 1380
VWidth: 1920
Flags: HW
LayerCount: 2
Fore
SplineSet
0 1060 m 14
 0 1175 l 22
 0 1182 3 1185 10 1185 c 14
 1370 1185 l 22
 1377 1185 1380 1182 1380 1175 c 14
 1380 1060 l 22
 1380 1053 1377 1050 1370 1050 c 14
 10 1050 l 22
 3 1050 0 1053 0 1060 c 14
EndSplineSet
Refer: 19 72 N 1 0 0 1 0 0 2
EndChar

StartChar: hbar
Encoding: 295 295 400
Width: 1110
VWidth: 1920
Flags: HW
LayerCount: 2
Fore
SplineSet
10 1205 m 14
 10 1320 l 22
 10 1327 13 1330 20 1330 c 14
 490 1330 l 22
 497 1330 500 1327 500 1320 c 14
 500 1205 l 22
 500 1198 497 1195 490 1195 c 14
 20 1195 l 22
 13 1195 10 1198 10 1205 c 14
EndSplineSet
Refer: 45 104 N 1 0 0 1 0 0 2
EndChar

StartChar: Lslash
Encoding: 321 321 405
Width: 1067
VWidth: 1920
Flags: HW
LayerCount: 2
Fore
SplineSet
493.157226562 1038.48046875 m 6
 523.157226562 986.51953125 l 6
 526.657226562 980.45703125 525.55859375 976.359375 519.497070312 972.859375 c 6
 60.5029296875 707.859375 l 6
 54.44140625 704.359375 50.3427734375 705.45703125 46.8427734375 711.51953125 c 6
 16.8427734375 763.48046875 l 6
 13.3427734375 769.54296875 14.44140625 773.640625 20.5029296875 777.140625 c 6
 479.497070312 1042.140625 l 6
 485.55859375 1045.640625 489.657226562 1044.54296875 493.157226562 1038.48046875 c 6
EndSplineSet
Refer: 23 76 N 1 0 0 1 0 0 2
EndChar

StartChar: lslash
Encoding: 322 322 406
Width: 445
VWidth: 1920
Flags: HW
LayerCount: 2
Fore
SplineSet
453.157226562 1038.48046875 m 6
 483.157226562 986.51953125 l 6
 486.657226562 980.45703125 485.55859375 976.359375 479.497070312 972.859375 c 6
 20.5029296875 707.859375 l 6
 14.44140625 704.359375 10.3427734375 705.45703125 6.8427734375 711.51953125 c 6
 -23.1572265625 763.48046875 l 6
 -26.6572265625 769.54296875 -25.55859375 773.640625 -19.4970703125 777.140625 c 6
 439.497070312 1042.140625 l 6
 445.55859375 1045.640625 449.657226562 1044.54296875 453.157226562 1038.48046875 c 6
EndSplineSet
Refer: 49 108 N 1 0 0 1 0 0 2
EndChar

StartChar: eng
Encoding: 331 331 408
Width: 1110
VWidth: 1920
Flags: HW
LayerCount: 2
Fore
SplineSet
135 1050 m 2
 295 1050 l 2
 302 1050 305 1047 305 1040 c 2
 305 837 l 257
 315 810 l 257
 315 10 l 2
 315 3 312 -8.57252759403e-16 305 0 c 2
 135 0 l 2
 128 0 125 3 125 10 c 2
 125 1040 l 2
 125 1047 128 1050 135 1050 c 2
985 -98 m 2
 985 -305.388671875 863.923828125 -378.211914062 576 -351.072265625 c 0
 567.969726562 -350.314453125 565 -347.040039062 565 -340 c 2
 565 -230 l 2
 565 -223.059570312 567.954101562 -220.3828125 575 -221.215820312 c 0
 724.081054688 -238.853515625 795 -205.208007812 795 -78 c 2
 795 763 l 2
 795 883 727 955 590 955 c 0
 423 955 315 833 315 623 c 1
 265 703 l 1
 265 923 433 1085 640 1085 c 0
 847 1085 985 962.995075946 985 763 c 2
 985 -98 l 2
EndSplineSet
EndChar

StartChar: Eng
Encoding: 330 330 409
Width: 1380
VWidth: 1920
Flags: HW
LayerCount: 2
Fore
SplineSet
1070 1400 m 2
 1220 1400 l 2
 1227 1400 1230 1397 1230 1390 c 2
 1230 -98 l 2
 1230 -305.388671875 1108.92382812 -378.211914062 821 -351.072265625 c 0
 812.969726562 -350.314453125 810 -347.040039062 810 -340 c 2
 810 -230 l 2
 810 -223.059570312 812.954101562 -220.3828125 820 -221.215820312 c 0
 969.081054688 -238.853515625 1040 -205.208007812 1040 -78 c 2
 1040 114.983258049 l 1
 320 1150.43457031 l 1
 320 10 l 2
 320 3 317 -8.57252759403e-16 310 0 c 2
 160 0 l 2
 153 0 150 3 150 10 c 2
 150 1390 l 2
 150 1397 153 1400 160 1400 c 2
 350 1400 l 2
 358 1400 361.233052041 1398.16461271 367 1390 c 2
 1060 408.878504673 l 1
 1060 1390 l 2
 1060 1397 1063 1400 1070 1400 c 2
EndSplineSet
EndChar

StartChar: oe
Encoding: 339 339 410
Width: 1835
VWidth: 1920
Flags: HW
LayerCount: 2
Fore
SplineSet
90 448 m 258
 90 603 l 258
 90 893 278 1085 535 1085 c 256
 812 1085 970 893 970 603 c 258
 970 448 l 258
 970 158 812 -35 535 -35 c 256
 278 -35 90 158 90 448 c 258
285 418 m 258
 285 228 368 95 555 95 c 256
 742 95 825 228 825 418 c 258
 825 633 l 258
 825 823 742 955 555 955 c 256
 368 955 285 823 285 633 c 258
 285 418 l 258
1739 329.15234375 m 0
 1688.26757812 95.2919921875 1508.13183594 -35 1307 -35 c 256
 1028 -35 881 138 881 448 c 258
 881 603 l 258
 881 903 1028 1085 1315 1085 c 256
 1552 1085 1717 889 1741 674 c 256
 1748.7578125 603.209960938 1748.98828125 576.6171875 1749 493 c 0
 1749 488 1746 485 1739 485 c 2
 955 485 l 257
 955 605 l 257
 1565 605 l 257
 1560 832 1458 955 1295 955 c 256
 1138 955 1021 843 1021 633 c 258
 1021 418 l 258
 1021 198 1128 95 1295 95 c 256
 1427.27246094 95 1538.12109375 184.4375 1569.6484375 332 c 0
 1570.53320312 336.143554688 1574.04492188 338 1581 338 c 2
 1731 338 l 2
 1738.0625 338 1740.31445312 335.211914062 1739 329.15234375 c 0
EndSplineSet
EndChar

StartChar: OE
Encoding: 338 338 411
Width: 2130
VWidth: 1920
Flags: HW
LayerCount: 2
Fore
SplineSet
675 1400 m 258
 1200 1400 l 258
 1207 1400 1210 1397 1210 1390 c 258
 1210 10 l 258
 1210 3 1207 0 1200 0 c 258
 675 0 l 258
 361.000976562 0 100 231.205078125 100 617 c 258
 100 782 l 258
 100 1168.10839844 320.80078125 1400 675 1400 c 258
715 1250 m 258
 460.610351562 1250 300 1090.21289062 300 792 c 258
 300 607 l 258
 300 309.125 460.99609375 150 715 150 c 258
 1020 150 l 257
 1020 1250 l 257
 715 1250 l 258
EndSplineSet
Refer: 16 69 N 1 0 0 1 850 0 2
EndChar

StartChar: Tbar
Encoding: 358 358 413
Width: 1170
VWidth: 1920
Flags: HW
LayerCount: 2
Fore
SplineSet
200 640 m 14
 200 755 l 22
 200 762 203 765 210 765 c 14
 960 765 l 22
 967 765 970 762 970 755 c 14
 970 640 l 22
 970 633 967 630 960 630 c 14
 210 630 l 22
 203 630 200 633 200 640 c 14
EndSplineSet
Refer: 31 84 N 1 0 0 1 0 0 2
EndChar

StartChar: tbar
Encoding: 359 359 414
Width: 625
VWidth: 1920
Flags: HW
LayerCount: 2
Fore
SplineSet
30 570 m 14
 30 685 l 22
 30 692 33 695 40 695 c 14
 560 695 l 22
 567 695 570 692 570 685 c 14
 570 570 l 22
 570 563 567 560 560 560 c 14
 40 560 l 22
 33 560 30 563 30 570 c 14
EndSplineSet
Refer: 57 116 N 1 0 0 1 0 0 2
EndChar

StartChar: uni0394
Encoding: 916 916 430
Width: 1280
VWidth: 1920
Flags: HW
LayerCount: 2
Fore
SplineSet
50 0 m 6
 43 0 41 4 43 10 c 2
 522 1390 l 2
 524 1396 528 1400 535 1400 c 2
 735 1400 l 2
 742 1400 746 1396 748 1390 c 2
 1237 10 l 2
 1239 4 1237 0 1230 0 c 6
 50 0 l 6
269.167763158 150 m 1
 989.450657895 150 l 1
 624 1226 l 1
 269.167763158 150 l 1
EndSplineSet
EndChar

StartChar: uni03A9
Encoding: 937 937 431
Width: 1490
VWidth: 1920
Flags: HW
LayerCount: 2
Fore
SplineSet
833 171 m 0
 1068 254 1190 428 1190 708 c 2
 1190 793 l 2
 1190 1091 1009 1295 745 1295 c 0
 481 1295 300 1091 300 793 c 2
 300 708 l 2
 300 427 423 252 660 170 c 0
 675 165 675 162 675 151 c 2
 675 10 l 2
 675 3 672 0 665 0 c 2
 115 0 l 2
 108 0 105 3 105 10 c 2
 105 145 l 2
 105 152 108 155 115 155 c 2
 460 155 l 1
 228 262 100 453 100 748 c 2
 100 783 l 2
 100 1169 363 1435 745 1435 c 0
 1127 1435 1390 1169 1390 783 c 2
 1390 748 l 2
 1390 453 1259 262 1028 155 c 1
 1375 155 l 2
 1382 155 1385 152 1385 145 c 2
 1385 10 l 2
 1385 3 1382 0 1375 0 c 2
 825 0 l 2
 818 0 815 3 815 10 c 2
 815 151 l 2
 815 162 815 165 833 171 c 0
EndSplineSet
EndChar

StartChar: pi
Encoding: 960 960 432
Width: 1255
VWidth: 1920
Flags: HW
LayerCount: 2
Fore
SplineSet
398 990 m 2
 398 10 l 2
 398 3 395 0 388 0 c 2
 218 0 l 2
 211 0 208 3 208 10 c 2
 208 990 l 2
 208 997 211 1000 218 1000 c 2
 388 1000 l 2
 395 1000 398 997 398 990 c 2
1215 120 m 2
 1215 10 l 2
 1215 2.9619140625 1212.05566406 -0.396484375 1205 -1.30859375 c 0
 917.491210938 -38.482421875 790 44.3720703125 790 252 c 258
 790 970 l 2
 790 977 793 980 800 980 c 2
 965 980 l 2
 972 980 975 977 975 970 c 2
 975 272 l 258
 975 144.506835938 1056.08203125 110.674804688 1206 128.901367188 c 0
 1212.046875 129.63671875 1215 126.951171875 1215 120 c 2
40 905 m 10
 40 1040 l 18
 40 1047 43 1050 50 1050 c 10
 1150 1050 l 18
 1157 1050 1160 1047 1160 1040 c 10
 1160 905 l 18
 1160 898 1157 895 1150 895 c 10
 50 895 l 18
 43 895 40 898 40 905 c 10
EndSplineSet
EndChar

StartChar: minute
Encoding: 8242 8242 433
Width: 470
VWidth: 1920
Flags: HW
LayerCount: 2
Fore
SplineSet
107 930 m 2
 56 930 l 2
 49 930 46.3783911135 933.752818224 48 940 c 2
 170 1410 l 2
 171.703240406 1416.56166386 175 1420 182 1420 c 2
 362 1420 l 6
 369 1420 373.231136842 1416.12352547 370 1410 c 2
 122 940 l 2
 119.020597376 934.353551478 114 930 107 930 c 2
EndSplineSet
EndChar

StartChar: Euro
Encoding: 8364 8364 435
Width: 1405
VWidth: 1920
Flags: HW
LayerCount: 2
Fore
SplineSet
10 505 m 10
 10 610 l 18
 10 617 13 620 20 620 c 10
 790 620 l 18
 797 620 800 617 800 610 c 10
 800 505 l 18
 800 498 797 495 790 495 c 10
 20 495 l 18
 13 495 10 498 10 505 c 10
10 775 m 10
 10 880 l 18
 10 887 13 890 20 890 c 10
 790 890 l 18
 797 890 800 887 800 880 c 10
 800 775 l 18
 800 768 797 765 790 765 c 10
 20 765 l 18
 13 765 10 768 10 775 c 10
1240 348 m 260
 1217.63183594 126.248046875 1032 -35 715 -35 c 260
 328 -35 120 238 120 618 c 262
 120 783 l 262
 120 1163 328 1435 715 1435 c 260
 1052 1435 1190.93261719 1283.29882812 1200 1133 c 260
 1200.52317108 1124.32803783 1197 1123 1190 1123 c 262
 1041 1123 l 262
 1034 1123 1030.20197176 1124.2470628 1030 1133 c 260
 1028.25195312 1208.75585938 912 1295 725 1295 c 260
 468 1295 320 1063 320 793 c 262
 320 608 l 262
 320 338 448 105 725 105 c 260
 932 105 1062.85644531 215.458007812 1070 348 c 260
 1070.46659094 356.657159506 1073 358 1080 358 c 262
 1230 358 l 262
 1237 358 1240.88152482 356.739199608 1240 348 c 260
EndSplineSet
EndChar

StartChar: uni2116
Encoding: 8470 8470 436
Width: 2180
VWidth: 1920
Flags: HW
LayerCount: 2
Fore
SplineSet
1450 10 m 10
 1450 145 l 18
 1450 152 1453 155 1460 155 c 10
 2050 155 l 18
 2057 155 2060 152 2060 145 c 10
 2060 10 l 18
 2060 3 2057 0 2050 0 c 10
 1460 0 l 18
 1453 0 1450 3 1450 10 c 10
EndSplineSet
Refer: 132 8304 S 1 0 0 1 1370 -295 2
Refer: 25 78 N 1 0 0 1 0 0 2
EndChar

StartChar: trademark
Encoding: 8482 8482 437
Width: 1722
VWidth: 1920
Flags: HW
LayerCount: 2
Fore
SplineSet
86 1400 m 2
 728 1400 l 2
 732 1400 734 1398 734 1394 c 2
 734 1296 l 2
 734 1292 732 1290 728 1290 c 2
 474 1290 l 257
 474 566 l 2
 474 562 472 560 468 560 c 2
 346 560 l 2
 342 560 340 562 340 566 c 2
 340 1290 l 257
 86 1290 l 2
 82 1290 80 1292 80 1296 c 2
 80 1394 l 2
 80 1398 82 1400 86 1400 c 2
952 1242 m 257
 952 566 l 2
 952 562 950 560 946 560 c 2
 848 560 l 2
 844 560 842 562 842 566 c 2
 842 1394 l 2
 842 1398 844 1400 848 1400 c 2
 1012 1400 l 2
 1016 1400 1018 1398 1020 1394 c 2
 1254 811 l 257
 1492 1394 l 2
 1494 1398 1496 1400 1500 1400 c 2
 1636 1400 l 2
 1640 1400 1642 1398 1642 1394 c 2
 1642 566 l 2
 1642 562 1640 560 1636 560 c 2
 1526 560 l 2
 1522 560 1520 562 1520 566 c 2
 1520 1180 l 257
 1268 566 l 2
 1266 562 1264 560 1260 560 c 2
 1224 560 l 2
 1220 560 1218 562 1216 566 c 2
 952 1242 l 257
EndSplineSet
EndChar

StartChar: partialdiff
Encoding: 8706 8706 438
Width: 1104
VWidth: 1920
Flags: HW
LayerCount: 2
Fore
SplineSet
539 735 m 260
 359 735 260 620 260 437 c 258
 260 397 l 258
 260 217 371 115 560 115 c 256
 737 115 849 302 849 472 c 258
 849 698 l 258
 849 983.786058982 464.865413129 1229.69289721 182.000006984 1350.11206054 c 0
 171.75909514 1354.47173835 169.943504455 1357.5630915 174 1365 c 2
 234 1475 l 2
 238.160488413 1482.62756209 239.030932624 1485.06186525 251.999990126 1480.09855568 c 0
 625.542624884 1337.1423129 1034 998.637400771 1034 623 c 258
 1034 537 l 258
 1034 237 907 -35 550 -35 c 256
 258 -35 70 109 70 357 c 258
 70 467 l 258
 70 711 222 885 479 885 c 260
 716 885 909 756 909 562 c 257
 849 372 l 257
 849 502 l 258
 849 685 689 735 539 735 c 260
EndSplineSet
EndChar

StartChar: summation
Encoding: 8721 8721 439
Width: 1170
VWidth: 1920
Flags: HW
LayerCount: 2
Fore
SplineSet
899.446289062 505 m 6
 371.928710938 -210 l 1
 1108 -210 l 2
 1115 -210 1118 -213 1118 -220 c 2
 1118 -350 l 2
 1118 -357 1115 -360 1108 -360 c 2
 78 -360 l 2
 71 -360 69.4931640625 -357.767578125 75 -350 c 2
 691.767759262 520 l 1
 75 1390 l 2
 69.4931640625 1397.76757812 71 1400 78 1400 c 2
 1108 1400 l 2
 1115 1400 1118 1397 1118 1390 c 2
 1118 1260 l 2
 1118 1253 1115 1250 1108 1250 c 2
 371.928710938 1250 l 1
 899.446289062 535 l 6
 907.642578125 523.453125 907.692382812 516.6171875 899.446289062 505 c 6
EndSplineSet
EndChar

StartChar: minus
Encoding: 8722 8722 440
Width: 1170
Flags: HW
LayerCount: 2
Fore
SplineSet
130 435 m 10
 130 570 l 18
 130 577 133 580 140 580 c 10
 1030 580 l 18
 1037 580 1040 577 1040 570 c 10
 1040 435 l 18
 1040 428 1037 425 1030 425 c 10
 140 425 l 18
 133 425 130 428 130 435 c 10
EndSplineSet
EndChar

StartChar: integral
Encoding: 8747 8747 441
Width: 445
VWidth: 1920
Flags: HW
LayerCount: 2
Fore
SplineSet
318 -98 m 2
 318 -305.388243546 196.923850901 -378.212324891 -91 -351.071861109 c 0
 -99.0306840663 -350.314867586 -102 -347.039908704 -102 -340 c 2
 -102 -230 l 2
 -102 -223.059452658 -99.045807618 -220.382714175 -91.9999880275 -221.216262324 c 0
 57.081105309 -238.853141572 128 -205.207856125 128 -78 c 6
 128 1188 l 2
 128 1395.14550781 238.911132812 1468.85058594 526 1441.16601562 c 0
 535.02734375 1440.29492188 538 1437.046875 538 1430 c 2
 538 1320 l 2
 538 1313.15625 535.041992188 1310.50976562 522 1311.88964844 c 0
 376.801757812 1327.24707031 318 1293.49511719 318 1168 c 2
 318 -98 l 2
EndSplineSet
EndChar

StartChar: radical
Encoding: 8730 8730 443
Width: 1055
VWidth: 1920
Flags: HMW
LayerCount: 2
Fore
SplineSet
300 1050 m 6
 307 1050 310.802734375 1046.12207031 313 1040 c 6
 568.581054688 327.907226562 l 5
 813 1590 l 6
 813 1597 816 1600 823 1600 c 6
 978 1600 l 2
 985 1600 989.347093392 1596.73547073 988 1590 c 2
 611.395507812 -143.0234375 l 2
 609.89453125 -150.52734375 607.641601562 -151.240234375 604.395507812 -143.0234375 c 2
 179.110683696 900 l 1
 38 900 l 2
 31 900 28 903 28 910 c 2
 28 1040 l 2
 28 1047 31 1050 38 1050 c 2
 300 1050 l 6
EndSplineSet
EndChar

StartChar: infinity
Encoding: 8734 8734 444
Width: 1450
Flags: HMW
LayerCount: 2
Fore
SplineSet
382 301 m 0
 182 301 64 471 64 665 c 0
 64 859 182 1025 382 1025 c 0
 536 1025 638 915 702 755 c 1
 766 915 866 1025 1020 1025 c 0
 1220 1025 1336 859 1336 665 c 0
 1336 471 1220 301 1020 301 c 0
 866 301 746 411 702 571 c 1
 636 411 536 301 382 301 c 0
404 457 m 0
 492 457 572 541 626 665 c 1
 576 787 492 871 404 871 c 0
 304 871 232 795 232 665 c 0
 232 537 304 457 404 457 c 0
998 457 m 0
 1098 457 1168 537 1168 665 c 0
 1168 795 1098 871 998 871 c 0
 910 871 826 787 776 665 c 1
 806 543 910 457 998 457 c 0
EndSplineSet
EndChar

StartChar: product
Encoding: 8719 8719 445
Width: 1380
VWidth: 1920
Flags: HW
LayerCount: 2
Fore
SplineSet
1220 1400 m 6
 1227 1400 1230 1397 1230 1390 c 2
 1230 10 l 2
 1230 3 1227 -8.57252759403e-16 1220 0 c 2
 1050 0 l 2
 1043 0 1040 3 1040 10 c 2
 1040 1250 l 257
 340 1250 l 257
 340 10 l 2
 340 3 337 -8.57252759403e-16 330 0 c 2
 160 0 l 2
 153 0 150 3 150 10 c 2
 150 1390 l 18
 150 1397 153 1400 160 1400 c 10
 1220 1400 l 6
EndSplineSet
EndChar

StartChar: uni2219
Encoding: 8729 8729 446
Width: 540
Flags: HW
LayerCount: 2
Fore
SplineSet
121 675 m 0
 121 763 182 825 270 825 c 0
 358 825 419 763 419 675 c 0
 419 587 363 525 275 525 c 0
 187 525 121 587 121 675 c 0
EndSplineSet
EndChar

StartChar: approxequal
Encoding: 8776 8776 447
Width: 1180
VWidth: 1920
Flags: HW
LayerCount: 2
Fore
SplineSet
412 664 m 256
 329.913085938 664 303.124023438 609.868164062 300.083984375 577 c 0
 299.53125 571.0234375 296.9140625 568 290 568 c 2
 160 568 l 2
 152.911132812 568 149.907226562 571 150.088867188 577 c 0
 154.280273438 715.384765625 261.4453125 829 402 829 c 256
 581 829 637 707 769 707 c 256
 850.872070312 707 877.62890625 760.809570312 880.895507812 793 c 0
 881.602539062 799.966796875 884.106445312 803 891 803 c 2
 1020 803 l 2
 1027.109375 803 1030.11914062 800 1029.890625 793 c 0
 1025.39453125 655.125 919.28125 542 779 542 c 256
 600 542 564 664 412 664 c 256
412 294 m 256
 329.913085938 294 303.124023438 239.868164062 300.083984375 207 c 0
 299.53125 201.0234375 296.9140625 198 290 198 c 2
 160 198 l 2
 152.911132812 198 149.907226562 201 150.088867188 207 c 0
 154.280273438 345.384765625 261.4453125 459 402 459 c 256
 581 459 637 337 769 337 c 256
 850.872070312 337 877.62890625 390.809570312 880.895507812 423 c 0
 881.602539062 429.966796875 884.106445312 433 891 433 c 2
 1020 433 l 2
 1027.109375 433 1030.11914062 430 1029.890625 423 c 0
 1025.39453125 285.125 919.28125 172 779 172 c 256
 600 172 564 294 412 294 c 256
EndSplineSet
EndChar

StartChar: notequal
Encoding: 8800 8800 448
Width: 1180
VWidth: 1920
Flags: HW
LayerCount: 2
Fore
SplineSet
1008 960 m 6
 1050 918 l 6
 1055 913 1055 909 1050 904 c 6
 186 40 l 6
 181 35 177 35 172 40 c 6
 130 82 l 6
 125 87 125 91 130 96 c 6
 994 960 l 6
 999 965 1003 965 1008 960 c 6
EndSplineSet
Refer: 83 61 N 1 0 0 1 0 0 2
EndChar

StartChar: lessequal
Encoding: 8804 8804 449
Width: 1010
VWidth: 1920
Flags: HW
LayerCount: 2
Fore
SplineSet
110 10 m 14
 110 145 l 22
 110 152 113 155 120 155 c 14
 890 155 l 22
 897 155 900 152 900 145 c 14
 900 10 l 22
 900 3 897 0 890 0 c 14
 120 0 l 22
 113 0 110 3 110 10 c 14
EndSplineSet
Refer: 84 60 N 1 0 0 1 0 150 2
EndChar

StartChar: greaterequal
Encoding: 8805 8805 450
Width: 1010
VWidth: 1920
Flags: HW
LayerCount: 2
Fore
SplineSet
110 10 m 14
 110 145 l 22
 110 152 113 155 120 155 c 14
 890 155 l 22
 897 155 900 152 900 145 c 14
 900 10 l 22
 900 3 897 0 890 0 c 14
 120 0 l 22
 113 0 110 3 110 10 c 14
EndSplineSet
Refer: 85 62 N 1 0 0 1 0 150 2
EndChar

StartChar: lozenge
Encoding: 9674 9674 451
Width: 950
Flags: HW
LayerCount: 2
Fore
SplineSet
481 40 m 6
 81 702 l 6
 76.3843022846 709.638979719 76.3487137855 714.325377746 81 722 c 6
 481 1382 l 6
 486.673178911 1391.3607452 487.493453472 1391.66574656 493 1382 c 6
 869 722 l 6
 873.392640324 714.289514325 873.403091295 709.752251162 869 702 c 6
 493 40 l 6
 487.569002998 30.4379786829 486.728032221 30.5201066743 481 40 c 6
481 304 m 1
 713 712 l 1
 481 1120 l 1
 237 712 l 1
 481 304 l 1
EndSplineSet
EndChar

StartChar: uniF8EA
Encoding: 63722 63722 452
Width: 1088
VWidth: 1920
Flags: HW
LayerCount: 2
Fore
SplineSet
79 1400 m 2
 464 1400 l 2
 466 1400 468 1398 468 1396 c 2
 468 1338 l 2
 468 1336 466 1334 464 1334 c 2
 312 1334 l 257
 312 900 l 2
 312 898 310 896 308 896 c 2
 235 896 l 2
 233 896 231 898 231 900 c 2
 231 1334 l 257
 79 1334 l 2
 77 1334 75 1336 75 1338 c 2
 75 1396 l 2
 75 1398 77 1400 79 1400 c 2
599 1305 m 257
 599 900 l 2
 599 898 597 896 595 896 c 2
 536 896 l 2
 534 896 533 898 533 900 c 2
 533 1396 l 2
 533 1398 534 1400 536 1400 c 2
 635 1400 l 2
 637 1400 638 1398 639 1396 c 2
 780 1047 l 257
 923 1396 l 2
 924 1398 925 1400 927 1400 c 2
 1009 1400 l 2
 1011 1400 1013 1398 1013 1396 c 2
 1013 900 l 2
 1013 898 1011 896 1009 896 c 2
 943 896 l 2
 941 896 939 898 939 900 c 2
 939 1268 l 257
 788 900 l 2
 787 898 785 896 783 896 c 2
 762 896 l 2
 760 896 758 898 757 900 c 2
 599 1305 l 257
EndSplineSet
EndChar

StartChar: uniF8E8
Encoding: 63720 63720 453
Width: 986
Flags: HW
LayerCount: 2
Fore
SplineSet
371 1234 m 261
 371 1068 l 261
 515 1068 l 262
 575 1068 606 1093 606 1136 c 262
 606 1166 l 262
 606 1209 575 1234 515 1234 c 262
 371 1234 l 261
515 1288 m 262
 608 1288 678 1245 678 1159 c 262
 678 1150 l 262
 678 1064 608 1028 515 1028 c 261
 515 1050 l 261
 608 1050 675 1022 675 936 c 262
 675 902 l 262
 675 861 686 831 703 806 c 4
 706 802 705 800 705 798 c 6
 705 787 l 6
 705 784 705 784 702 784 c 6
 637 784 l 6
 634 784 634 784 632 787 c 4
 612 823 606 871 606 902 c 262
 606 946 l 262
 606 989 575 1014 515 1014 c 262
 371 1014 l 261
 371 787 l 6
 371 784 370 784 367 784 c 6
 306 784 l 6
 303 784 302 784 302 787 c 6
 302 1284 l 6
 302 1287 303 1288 306 1288 c 6
 515 1288 l 262
911 1016 m 4
 911 786 722 599 492 599 c 4
 262 599 75 786 75 1016 c 4
 75 1246 262 1435 492 1435 c 4
 722 1435 911 1246 911 1016 c 4
860 1016 m 4
 860 1219 695 1384 492 1384 c 4
 289 1384 126 1219 126 1016 c 4
 126 813 289 650 492 650 c 4
 695 650 860 813 860 1016 c 4
EndSplineSet
EndChar

StartChar: uniF8E9
Encoding: 63721 63721 454
Width: 986
Flags: HW
LayerCount: 2
Fore
SplineSet
695 945 m 260
 687 840 620 753 488 753 c 260
 349 753 274 851 274 988 c 262
 274 1047 l 262
 274 1184 349 1282 488 1282 c 260
 620 1282 681 1203 684 1116 c 260
 684 1113 684 1112 681 1112 c 262
 627 1112 l 262
 624 1112 623 1113 623 1116 c 260
 622 1183 570 1232 492 1232 c 260
 399 1232 346 1148 346 1051 c 262
 346 984 l 262
 346 887 392 803 492 803 c 260
 577 803 635 868 634 945 c 260
 634 948 635 948 638 948 c 262
 692 948 l 262
 695 948 695 948 695 945 c 260
911 1016 m 4
 911 786 722 599 492 599 c 4
 262 599 75 786 75 1016 c 4
 75 1246 262 1435 492 1435 c 4
 722 1435 911 1246 911 1016 c 4
860 1016 m 4
 860 1219 695 1384 492 1384 c 4
 289 1384 126 1219 126 1016 c 4
 126 813 289 650 492 650 c 4
 695 650 860 813 860 1016 c 4
EndSplineSet
EndChar

StartChar: uni1E9E
Encoding: 7838 7838 457
Width: 1380
VWidth: 1920
Flags: HW
LayerCount: 2
Fore
SplineSet
160 1005 m 6
 160 1289 397 1434 687 1434 c 4
 958.006639831 1434 1108.88139579 1328.54071264 1209 1190.51056531 c 4
 1222.21131523 1172.29657 1222.20396752 1172.30180048 1210.5995086 1156 c 6
 932.265625 765 l 5
 1051.52682556 715.846269021 1302 608.829023028 1302 348.020507812 c 4
 1302 124.259765625 1148.4609375 -35 859.372070312 -35 c 4
 751.129882812 -35 653.5078125 -15.0126953125 607.315429688 15.533203125 c 4
 585.309570312 30.0849609375 583 26 583 35 c 6
 583 155 l 6
 583 165.908203125 586.198242188 169.106445312 604.728515625 157.918945312 c 4
 647.80859375 131.908203125 744.987304688 107 836.9453125 107 c 4
 1002.14453125 107 1112 208.416015625 1112 345.912109375 c 4
 1112 542.497593567 907.87739607 622.094947949 732.000004426 672.367514603 c 4
 712.046197765 678.071084948 712.080457331 678.0534323 724.348008386 697 c 6
 1021.54199219 1156 l 5
 988.818735873 1197.95304323 892.230021158 1292 684 1292 c 4
 515 1292 345 1218 345 985 c 6
 345 10 l 6
 345 3 342 0 335 0 c 6
 170 0 l 6
 163 0 160 3 160 10 c 6
 160 1005 l 6
EndSplineSet
EndChar
